<?xml version="1.0" encoding="UTF-8"?>
<svg width="289px" height="156px" viewBox="0 0 289 156" version="1.1" xmlns="http://www.w3.org/2000/svg" xmlns:xlink="http://www.w3.org/1999/xlink">
    <!-- Generator: Sketch 63.1 (92452) - https://sketch.com -->
    <title>03</title>
    <desc>Created with Sketch.</desc>
    <defs>
        <rect id="path-1" x="0" y="0" width="289" height="156" rx="1"></rect>
        <linearGradient x1="49.98833%" y1="100.00047%" x2="49.98833%" y2="-0.00720250172%" id="linearGradient-3">
            <stop stop-color="#808080" stop-opacity="0.25" offset="0%"></stop>
            <stop stop-color="#808080" stop-opacity="0.12" offset="54%"></stop>
            <stop stop-color="#808080" stop-opacity="0.1" offset="100%"></stop>
        </linearGradient>
    </defs>
    <g id="Landing-Page-Update-+-Mobile" stroke="none" stroke-width="1" fill="none" fill-rule="evenodd">
        <g id="Landing-Copy-6" transform="translate(-775.000000, -3874.000000)">
            <g id="03" transform="translate(775.000000, 3874.000000)">
                <mask id="mask-2" fill="white">
                    <use xlink:href="#path-1"></use>
                </mask>
                <use id="Mask" fill="#B96FBF" xlink:href="#path-1"></use>
                <path d="M97.1656874,-12.8801634 C108.44627,-23.0764846 126.155633,-25.1527108 142.273628,-24.3412789 C192.900996,-21.7914766 238.601743,2.97308023 278.132701,30.9862526 C292.443501,41.1277083 306.532718,52.0661576 315.830566,66.0222097 C334.742807,94.4512049 329.131293,133.835975 302.837752,157.254883 C293.890984,165.22482 283.044935,171.332217 271.911115,176.749464 C252.11542,186.376917 230.760011,194.10429 208.288056,196.304686 C192.265025,197.872684 176.057821,196.593451 160.115365,194.410382 C115.611742,188.294322 71.9282623,174.774306 35.3124132,151.632613 C19.2462166,141.485382 4.10951698,128.869203 -2.509192,112.444203 C-9.12790097,96.0192033 -4.89192723,75.2251765 11.5052048,65.5082066 C18.2879427,61.4885863 26.3944223,59.675137 34.3339954,57.968531 C46.0203333,55.4620436 57.8908439,52.9873206 68.4376128,47.8877161 C79.3297056,42.6206276 92.2246773,32.4329694 90.0692803,20.7726055 C87.7556099,8.27193306 85.8994937,-2.71560646 97.1656874,-12.8801634 Z" id="Path" fill="#FFFFFF" fill-rule="nonzero" opacity="0.191889881" style="mix-blend-mode: soft-light;" mask="url(#mask-2)"></path>
                <path d="M170.499646,177 L170.451095,177 C168.639143,177 166.804865,176.956297 165,176.869753 L165.026933,176.5 C166.823293,176.586256 168.648357,176.629672 170.45145,176.629672 L170.5,176.629672 L170.499646,177 Z M176.027249,176.999626 L176,176.518879 C177.812926,176.404112 179.644962,176.229533 181.445149,176 L181.5,176.478131 C179.690613,176.709159 177.849376,176.884486 176.029018,177 L176.027249,176.999626 Z M159.445741,176.5 C157.630021,176.243289 155.797634,175.917785 154,175.532299 L154.081566,175 C155.869979,175.383389 157.693146,175.707634 159.5,175.964765 L159.445741,176.5 Z M186.582777,175.5 L186.5,175.077282 C188.300389,174.770819 190.11398,174.408061 191.890107,174 L192,174.416722 C190.216023,174.826782 188.392086,175.191206 186.58242,175.499667 L186.582777,175.5 Z M148.889078,174.5 C147.085876,174.044407 145.27259,173.525269 143.5,172.957451 L143.637932,172.5 C145.4026,173.065217 147.205801,173.581382 149,174.035117 L148.889078,174.5 Z M197.140258,172.999044 L197,172.606944 C198.786094,172.121516 200.579493,171.580984 202.332714,171 L202.5,171.384138 C200.738744,171.968307 198.935118,172.512024 197.140258,173 L197.140258,172.999044 Z M138.345573,171 C136.719705,170.359298 135.089453,169.656842 133.5,168.912632 L133.678367,168.5 C135.259728,169.240702 136.88155,169.938596 138.5,170.576842 L138.345573,171 Z M207.683163,168.998867 L207.5,168.55487 C209.113215,167.762019 210.72574,166.900453 212.292646,166 L212.5,166.430405 C210.925145,167.336899 209.304672,168.201107 207.683163,169 L207.683163,168.998867 Z M128.28813,166.5 C126.670982,165.676484 125.060201,164.793949 123.5,163.877445 L123.735922,163.5 C125.288342,164.411701 126.890988,165.289775 128.5,166.109859 L128.28813,166.5 Z M217.243573,164 L217,163.594523 C218.600935,162.615482 220.193471,161.574144 221.732325,160.5 L222,160.890732 C220.452016,161.9693 218.850351,163.015798 217.243573,164 Z M118.749698,161 C117.30766,159.99609 115.877849,158.935038 114.5,157.847297 L114.771698,157.5 C116.142415,158.58295 117.565094,159.638186 119,160.637306 L118.749698,161 Z M226.283041,158 L226,157.628035 C227.43148,156.464498 228.843502,155.245992 230.197146,154 L230.5,154.353275 C229.13928,155.602932 227.720182,156.829134 226.281626,157.998534 L226.283041,158 Z M110.18412,154 C108.756,152.816097 107.348225,151.576807 106,150.315361 L106.336964,150 C107.67853,151.254522 109.079278,152.488273 110.5,153.666292 L110.18412,154 Z M234.815116,150.5 L234.5,150.162926 C235.756313,148.819068 236.990488,147.418599 238.166551,146 L238.5,146.316724 C237.318402,147.742353 236.078692,149.149852 234.816154,150.5 L234.815116,150.5 Z M102.647393,146.5 C101.392376,145.134573 100.165216,143.715718 99,142.283063 L99.3713003,142 C100.531018,143.425224 101.75378,144.837003 103,146.195707 L102.647393,146.5 Z M241.847127,142 L241.5,141.728199 C242.585841,140.353228 243.641245,138.930351 244.637483,137.5 L245,137.749037 C243.999316,139.188222 242.93844,140.618233 241.847127,142 Z M95.6109474,138 C94.5296316,136.451198 93.4825789,134.851257 92.5,133.24474 L92.9052632,133 C93.8834211,134.599211 94.9249474,136.191116 96,137.732247 L95.6109474,138 Z M247.877057,133 L247.5,132.764011 C248.412477,131.209737 249.290334,129.606991 250.109232,128 L250.5,128.212284 C249.676303,129.826352 248.795361,131.437235 247.877057,133 Z M90.0697572,128.5 C89.1639829,126.924927 88.2993458,125.304231 87.5,123.683534 L87.9430746,123.5 C88.7386464,125.112747 89.5987546,126.725149 90.5,128.291926 L90.0697572,128.5 Z M253.412227,123.5 L253,123.321633 C253.741727,121.736901 254.44069,120.116427 255.077257,118.5 L255.5,118.654427 C254.859577,120.277598 254.157109,121.907849 253.411876,123.498988 L253.412227,123.5 Z M85.6167436,118.5 C85.032946,116.739708 84.4889384,114.936687 84,113.140604 L84.3915327,113 C84.8782429,114.786952 85.4193856,116.581208 86,118.332005 L85.6167436,118.5 Z M256.956772,113.5 L256.5,113.362041 C257.065492,111.597027 257.582375,109.79347 258.035807,108 L258.5,108.110584 C258.04397,109.913059 257.524861,111.726341 256.956772,113.49964 L256.956772,113.5 Z M82.0836843,108 C81.673354,106.216023 81.3089115,104.39387 81,102.582777 L81.421636,102.5 C81.7292175,104.301816 82.0919973,106.11505 82.5,107.889393 L82.0836843,108 Z M259.531852,102.5 L259,102.41772 C259.383906,100.629191 259.709137,98.8066159 259.963956,97 L260.5,97.054617 C260.244342,98.8697446 259.917854,100.703314 259.531852,102.499645 L259.531852,102.5 Z M80.5212211,97.5 C80.2907669,95.6909664 80.115041,93.8500836 80,92.0276026 L80.4787789,92 C80.5941921,93.8129263 80.7691735,95.644962 81,97.4447947 L80.5212211,97.5 Z M260.86806,91.5 L260.5,91.4739807 C260.585861,89.7231559 260.631082,87.9446001 260.631082,86.1865857 L260.631082,86 L261,86 L261,86.1865857 C261,87.953159 260.955638,89.7406162 260.86806,91.5 Z M79.8725434,86.5 L79.5,86.5 L79.5,86.4032476 C79.5,84.6060635 79.5430636,82.788324 79.6283237,81 L80,81.0269347 C79.9153179,82.8063986 79.8722543,84.615278 79.8722543,86.403602 L79.8725434,86.5 Z M260.523157,80.5 C260.406076,78.6848337 260.229715,76.85268 260,75.0552088 L260.473879,75 C260.705076,76.8066727 260.881438,78.6476739 261,80.4720417 L260.523157,80.5 Z M80.5379658,75.5 L80,75.4460958 C80.2563743,73.6303759 80.5812553,71.7979883 80.9666573,70 L81.5,70.0812109 C81.1162791,71.8703334 80.792659,73.6935005 80.5379658,75.5 L80.5379658,75.5 Z M259.079947,70 C258.77087,68.1951006 258.407796,66.3812784 258,64.6106424 L258.414421,64.5 C258.824205,66.2809864 259.189267,68.1048021 259.5,69.9175535 L259.079947,70 Z M82.4658605,65 L82,64.8897983 C82.4550698,63.0891173 82.9737674,61.2740309 83.5419535,59.5 L84,59.6372119 C83.4347907,61.4018793 82.9186977,63.2065217 82.4662326,65 L82.4658605,65 Z M256.608889,59.5 C256.122222,57.7125639 255.580635,55.9189189 255,54.1676406 L255.380952,54 C255.964762,55.7585829 256.509206,57.5613587 257,59.3579255 L256.608889,59.5 Z M85.923574,54 L85.5,53.846268 C86.1409806,52.2199447 86.8430739,50.5895759 87.5869626,49 L88,49.1783427 C87.2596235,50.7598274 86.5610424,52.3821051 85.923574,54 Z M252.558137,49 C251.762557,47.3869406 250.900678,45.7745729 250,44.2075119 L250.429432,44 C251.335761,45.5746697 252.1999,47.1953379 253,48.8166978 L252.558137,49 Z M90.3921703,44.5 L90,44.2878509 C90.8214286,42.6751644 91.7036401,41.0642458 92.6222527,39.5 L93,39.735839 C92.0875687,41.2926596 91.2098214,42.8954459 90.3921703,44.5 Z M247.595136,39.5 C246.616989,37.9020468 245.575594,36.3099415 244.5,34.7686404 L244.889788,34.5 C245.970897,36.0493421 247.017073,37.6491228 248,39.2554825 L247.595136,39.5 Z M95.8632851,35 L95.5,34.7510566 C96.5018587,33.3113962 97.5626101,31.8812453 98.6524653,30.5 L99,30.7696604 C97.9176776,32.1444528 96.861035,33.5674717 95.8632851,35 Z M241.629542,30.5 C240.466917,29.0717884 239.245722,27.6598709 238,26.3032116 L238.352887,26 C239.604832,27.362681 240.831884,28.7816829 242,30.2176873 L241.629542,30.5 Z M102.834199,26.5 L102.5,26.1838797 C103.68303,24.7567168 104.924242,23.3487799 106.18381,22 L106.5,22.3364555 C105.244589,23.67895 104.011342,25.0794922 102.834199,26.5 Z M234.164052,22.5 C232.818044,21.2428967 231.417337,20.0093555 230,18.8343728 L230.315251,18.5 C231.739611,19.6808732 233.148078,20.9203049 234.5,22.1839917 L234.164052,22.5 Z M110.303021,19 L110,18.6469511 C111.361823,17.3951657 112.78064,16.1682842 114.216803,15 L114.5,15.3709943 C113.071625,16.5334188 111.658472,17.7544406 110.303021,19 Z M225.730761,15 C224.359439,13.9173845 222.93617,12.862177 221.5,11.8634984 L221.748868,11.5 C223.191829,12.5034749 224.622227,13.5641641 226,14.6519186 L225.730761,15 Z M118.768177,12 L118.5,11.6099253 C120.04768,10.5298602 121.647242,9.48328251 123.255572,8.5 L123.5,8.90479445 C121.900073,9.88329303 120.308184,10.9247187 118.768177,11.999632 L118.768177,12 Z M216.763521,9 C215.208201,8.08749427 213.605514,7.21037563 212,6.39234998 L212.212089,6 C213.826087,6.82214842 215.436903,7.70373339 217,8.62070545 L216.763521,9 Z M128.20744,6.5 L128,6.07018977 C129.574817,5.16532613 131.19527,4.29816514 132.816415,3.5 L133,3.94262913 C131.386807,4.73815508 129.774651,5.5985296 128.208132,6.5 L128.20744,6.5 Z M207.322018,4 C205.740747,3.26118773 204.119699,2.56072333 202.5,1.92428933 L202.653711,1.5 C204.280489,2.1410076 205.910638,2.84323107 207.5,3.58767239 L207.322018,4 Z M138.167641,1.5 L138,1.11819917 C139.76114,0.53372574 141.56428,-0.0106586064 143.359386,-0.5 L143.5,-0.108654152 C141.712564,0.376551066 139.918554,0.918390073 138.166545,1.5 L138.167641,1.5 Z M197.362806,0 C195.59837,-0.564933855 193.793604,-1.08067822 192,-1.53344513 L192.110187,-2 C193.910632,-1.54536985 195.725841,-1.02664431 197.5,-0.458729271 L197.362806,0 Z M148.610614,-1.50033193 L148.5,-1.91557867 C150.286233,-2.32651029 152.108862,-2.69130339 153.916861,-3 L154,-2.57911042 C152.201278,-2.27207347 150.387927,-1.90894003 148.612041,-1.5 L148.610614,-1.50033193 Z M186.418794,-2.5 C184.63227,-2.88289806 182.80922,-3.2064027 181,-3.46082561 L181.053546,-4 C182.871986,-3.7443134 184.704255,-3.41954507 186.5,-3.03454086 L186.418794,-2.5 Z M159.555209,-3.5 L159.5,-3.97548291 C161.308088,-4.20653789 163.14909,-4.38410104 164.972396,-4.5 L165,-4.02228826 C163.185895,-3.90601783 161.354803,-3.73068351 159.555209,-3.50222883 L159.555209,-3.5 Z M175.473776,-4 C173.709665,-4.08357516 171.917204,-4.12594312 170.145296,-4.12594312 L170,-4.12594312 L170,-4.5 L170.145296,-4.5 C171.925709,-4.5 173.727738,-4.45734185 175.5,-4.3731863 L175.473776,-4 Z" id="Path_1105" fill="#F2F2F2" fill-rule="nonzero" mask="url(#mask-2)"></path>
                <g id="illustration_man" mask="url(#mask-2)">
                    <g transform="translate(132.500000, 26.500000)" id="man-&amp;-tree">
                        <g>
                            <path d="M145.704063,131.039076 C145.425296,130.030789 145.146528,129.008577 144.588993,128.131201 C144.071816,127.38658 143.456727,126.714863 142.760277,126.134126 C140.739212,124.298599 138.255392,122.43522 135.576435,122.900368 C134.7456,123.081765 133.942979,123.374062 133.190184,123.769389 C132.799909,123.950434 132.406847,124.13148 132.005421,124.284673 C130.874447,124.756714 129.62456,124.865731 128.428833,124.596629 C127.815544,124.432295 127.24407,124.137051 126.639144,123.95322 C126.350893,123.867263 126.056362,123.803936 125.758239,123.763818 C126.342253,123.49963 126.910077,123.201077 127.458721,122.86973 C130.466624,121.011921 132.866813,117.669536 132.529505,114.132179 C132.417997,112.934491 132.005421,111.789724 131.598421,110.661669 C131.241598,109.675666 130.883846,108.688734 130.525165,107.700873 C130.062411,106.416841 129.585718,105.110525 128.738265,104.043747 C127.79603,102.857201 126.457945,102.052243 125.075258,101.450614 C122.103595,100.16101 118.855952,99.707003 115.650124,99.2669223 L115.42711,99.2362838 L115.42711,64.6314593 C115.430822,64.0380797 115.197501,63.4677296 114.778865,63.0468335 C114.36023,62.6259374 113.790862,62.3892646 113.196969,62.3892762 L108.979214,62.3892762 C108.793369,61.2528653 108.607524,60.1173829 108.421679,58.982829 C107.889233,55.7490716 107.340061,52.4512519 105.848654,49.5378064 C104.872967,47.6298618 103.317444,45.8138327 101.223899,45.4378144 C100.811781,45.3993988 100.406716,45.305713 100.019622,45.1592823 C99.4063336,44.8584677 99.0718124,44.1899907 98.5979075,43.6942036 C97.3824806,42.421312 95.406018,42.4018148 93.7752273,41.7444791 C92.3367863,41.1734884 91.1603868,40.0955693 89.8501789,39.268329 C88.539971,38.4410888 86.9091803,37.8506008 85.4568009,38.390953 C85.4568009,38.4967952 85.4372872,38.599852 85.4261365,38.7056942 L84.4950526,38.2878961 C83.4914891,37.8255329 82.4656242,37.3464577 81.6599857,36.5832798 C80.6229701,35.6056323 80.0710101,34.3160288 79.641708,32.9400804 C79.5971052,32.7952437 79.55529,32.6615483 79.5134749,32.5083557 C81.2949413,30.6895125 82.5010413,28.3868783 82.9813443,25.8876483 C83.0566116,26.1299712 83.1346665,26.3750795 83.2099338,26.6201877 C83.2784923,26.8693583 83.3718819,27.111033 83.4887014,27.3415858 C83.527402,27.417777 83.5711738,27.4912888 83.6197222,27.5616261 C83.711701,27.6983501 83.8267818,27.8180462 83.9598187,27.9153618 C84.0918534,28.0114045 84.2464267,28.0718386 84.4086346,28.090837 C84.4863033,28.1018095 84.5651308,28.1018095 84.6427994,28.090837 C85.0705852,28.0005095 85.4232879,27.6994972 85.5794587,27.29145 C85.6239142,27.1819455 85.6566201,27.0680386 85.6770274,26.9516409 C85.6878008,26.8815374 85.6943173,26.8108467 85.6965411,26.7399565 C85.6965411,26.7176739 85.6965411,26.6953913 85.6965411,26.6731088 C85.6965411,26.6508262 85.6965411,26.5756226 85.6965411,26.5282721 C85.6965411,26.4809217 85.6965411,26.475351 85.6965411,26.4502831 C85.6965411,26.4252152 85.6965411,26.3555822 85.6965411,26.3110171 L85.6965411,26.2385988 C85.6965411,26.1828923 85.679815,26.1271859 85.6686643,26.0742648 C85.6575136,26.0213437 85.6686643,26.0436263 85.6686643,26.0296997 C85.654726,25.9572814 85.6379999,25.8876483 85.6240615,25.81523 C85.6227164,25.7994751 85.6227164,25.7836344 85.6240615,25.7678796 L85.5822464,25.5924043 L85.5571573,25.4865622 L85.5571573,25.458709 L85.5571573,25.458709 C85.5292805,25.3500814 85.5041914,25.2386686 85.4791023,25.1272558 C85.2764723,24.1596505 85.2247543,23.1665642 85.3257801,22.1831718 C85.4937266,20.740612 85.7601052,19.3112003 86.1230556,17.9049192 L86.1815968,17.651455 L86.248501,17.356211 C86.2931039,17.1556679 86.334919,16.9551248 86.3767341,16.7545818 L86.3767341,16.7545818 C86.4129739,16.5846772 86.4464261,16.4119873 86.4770905,16.2392974 C86.5077549,16.0666075 86.5300563,15.9356975 86.5523578,15.7825048 C86.5523578,15.7630076 86.5523578,15.7462957 86.5523578,15.7267984 C86.7226914,14.688663 86.768547,13.6339396 86.6889539,12.5849567 L86.6889539,12.5849567 C86.5579331,11.1282339 86.1063295,9.74950018 85.1139167,8.6492985 C84.41421,7.87219403 83.4942768,7.29841796 82.8447482,6.482319 C82.234247,5.7163558 81.8913628,4.77491741 81.261348,4.02566614 C79.5190502,1.94781689 75.0504049,0.346257485 72.3073314,0.0677254148 C69.1656201,-0.249801146 64.0892614,0.552371217 61.5580512,2.40739481 C60.6213919,3.0925837 59.9802264,4.07858723 59.3279101,5.01724031 C58.1292092,6.76085107 56.7660355,8.49889119 54.8453264,9.47375343 C54.1177429,9.84141577 53.2870153,10.1199478 52.8047473,10.7605716 C52.5133657,11.1948767 52.3228725,11.6887886 52.247212,12.206153 C51.8766505,14.021416 51.6843181,15.8684859 51.6729507,17.721088 C51.6312894,18.5314322 51.735142,19.3426847 51.9795951,20.1164638 C52.0186226,20.222306 52.0660131,20.3309335 52.1161912,20.4339904 L52.1161912,20.4339904 C52.1607941,20.525906 52.2109722,20.6178216 52.2639381,20.7125225 L52.2973902,20.7710142 C52.6338406,21.253562 52.9329885,21.7610319 53.1922343,22.289014 C53.2536238,22.4377828 53.298495,22.5928312 53.3260428,22.7513772 C53.3738349,23.1603359 53.3473931,23.5745549 53.2479879,23.974133 L53.2479879,23.974133 C53.2479879,24.0354101 53.2256864,24.0939018 53.2117481,24.1523935 L53.186659,24.2805183 C53.186659,24.3195128 53.186659,24.3612926 53.1643576,24.4002871 C53.1420562,24.5209843 53.1225424,24.6407531 53.1058164,24.7595935 C53.1058164,24.8431531 53.0890903,24.929498 53.0863026,25.015843 C53.0665443,25.3608249 53.1326292,25.7053244 53.2786523,26.0185584 C53.3153157,26.0932183 53.3591981,26.1641171 53.4096731,26.2302428 C53.5095514,26.3638033 53.6381572,26.4732638 53.7860094,26.5505547 C54.1181446,26.6752511 54.4646915,26.7576034 54.8174497,26.7956629 C55.8600406,27.0296298 56.5123569,27.8262316 56.9360837,28.8038791 C57.030038,29.023319 57.1128445,29.2473582 57.1841869,29.4751414 C57.3580569,30.0466366 57.4885189,30.630426 57.5744616,31.2215375 C58.0483666,31.1964696 58.3243466,30.7786715 58.4916072,30.3218789 C58.5439056,30.1712731 58.5876489,30.0178361 58.622628,29.862301 C58.6867445,29.5698423 58.7508611,29.2773836 58.8177653,28.984925 C59.9181495,31.3177316 61.6906295,33.2691096 63.9080624,34.5889902 C63.9861173,34.8173865 64.0613846,35.0485681 64.1310765,35.2825351 C64.4962621,36.5442854 64.6718857,37.8673127 64.0390832,38.9702997 C63.5874796,39.7529748 62.826444,40.2376206 61.9789903,40.5718591 C61.8570473,40.4081758 61.6998536,40.2739603 61.5190237,40.1791289 C60.7830772,39.8114665 59.9021714,40.2599032 59.2888826,40.8086114 C58.1738121,41.8168975 57.2650295,43.2624789 55.7959241,43.5939321 C55.2662656,43.7164862 54.6808535,43.6914183 54.237613,44.0145155 C53.945744,44.2887834 53.7017238,44.6097894 53.5156048,44.9643098 C52.8681561,45.8924881 51.7925352,46.427745 50.6610242,46.3848234 C50.1508794,46.3597555 49.5459536,46.2427721 49.1974941,46.616005 C48.9382402,46.8945371 48.9187264,47.3374031 48.6399588,47.6020086 C48.2636225,47.9696709 47.6531213,47.788625 47.1290382,47.7663425 C46.3637593,47.7683341 45.6329533,48.0845813 45.1079728,48.6409332 C45.0750549,47.5171352 44.6443973,46.4414011 43.8925459,45.6049336 C43.1398733,44.8306145 42.0944946,44.4323136 41.2024382,43.8251137 C38.972297,42.3098992 37.8572265,39.6471326 36.6947654,37.2071917 C35.5323044,34.7672507 33.9990824,32.1936144 31.4622968,31.3050971 C30.8796725,31.0989834 30.0684586,31.0822715 29.8064171,31.6476916 C29.7173035,31.8836754 29.7027099,32.1412775 29.7646019,32.3858015 C30.0099174,33.683761 30.935426,34.7254709 31.7354891,35.7699662 C33.0819368,37.5302889 34.2109458,39.6833418 33.8847876,41.8837451 C33.502876,44.48802 31.1807415,46.5101628 30.9019739,49.125579 C30.7793161,50.2787018 31.0720221,51.4373952 31.0692345,52.5960886 C31.0692345,53.320272 30.9549397,54.0528113 31.1110496,54.7574974 C31.2768484,55.2928688 31.4732373,55.8183 31.6992493,56.3312036 C31.9504864,57.1728521 32.0800296,58.0460604 32.0839487,58.9243372 C32.2809445,62.6158156 32.477011,66.3082224 32.6721484,70.0015577 C32.8198952,72.7562398 32.2177571,75.4747128 31.6100437,78.1848299 C30.8565661,79.7913005 30.271747,81.4714678 29.8649583,83.1984072 C29.1791899,86.2149095 29.1596761,89.4291696 30.1437259,92.3648976 C30.6705967,93.9608864 31.4790229,95.4566036 31.9111127,97.0804455 C31.9111127,97.1166547 31.9278388,97.1500786 31.9362018,97.1835024 C31.978017,97.5288822 32.0254075,97.8742619 32.089524,98.2168564 C32.1687779,98.6127221 32.2721136,99.0033917 32.3989561,99.3866911 C32.5254265,100.046902 32.7313514,100.689405 33.0122449,101.300206 C33.403205,102.076076 33.9772548,102.745234 34.6848507,103.249931 C34.2834253,104.035391 33.6338967,104.667659 33.2018069,105.436408 C32.4491343,106.767791 32.4184698,108.402774 32.6916621,109.912418 C33.218533,112.825863 34.7935701,115.430138 36.8731767,117.546982 C36.7803314,117.541629 36.6872544,117.541629 36.5944091,117.546982 C35.9141126,117.622153 35.2609905,117.855896 34.6876384,118.229386 C30.2858974,120.800237 27.7686256,126.306816 28.6885588,131.348246 C28.8697578,132.33425 29.1847652,133.331395 29.8426568,134.080646 C30.3903925,134.677148 31.0943859,135.10845 31.8748729,135.325684 C32.3623391,135.472256 32.8642601,135.565645 33.3718552,135.604216 C36.8034848,135.882748 40.1263951,134.29233 43.5663877,134.158635 C44.7068845,134.140629 45.8473959,134.193653 46.9812913,134.317398 C48.6371711,134.454807 50.2967678,134.542081 51.9600814,134.579218 C54.6613398,134.643281 56.1834111,133.924668 57.9089828,131.90531 C58.3330414,131.404186 58.6866258,130.84755 58.9599368,130.25083 C60.4262546,130.16727 62.0458946,130.039145 63.2195063,129.941659 L63.2362324,130.105993 C63.3003489,130.663057 63.3979176,131.303681 63.8439458,131.657417 C64.09581,131.827973 64.3807341,131.943744 64.6802488,131.997226 C67.4985896,132.690771 70.3503825,133.389886 73.249566,133.389886 C74.6110843,133.361627 75.969918,133.256546 77.3195735,133.075145 L82.4210213,132.487442 C83.9055694,132.678345 85.3708322,132.997057 86.800461,133.440022 C88.2723541,133.94138 89.6494662,134.68506 91.0879073,135.269978 C94.4331189,136.626429 98.0347968,137.111075 101.600235,137.584579 C102.207948,137.665354 102.904867,137.72106 103.356471,137.306047 C103.936308,136.748983 103.74117,135.815901 103.579485,135.036011 C103.512581,134.718484 103.462403,134.395387 103.420588,134.07229 C105.827207,134.704331 108.18142,135.520998 110.462258,136.515016 L110.863684,136.690491 C110.977978,137.297691 111.541089,137.785122 112.079111,138.439673 C112.255734,138.715092 112.462353,138.970112 112.695187,139.200065 C112.96046,139.37475 113.263213,139.484489 113.57888,139.520377 C117.346314,140.221237 121.193056,140.394662 125.008354,140.035661 C125.788831,139.929638 126.578024,139.902576 127.36394,139.954887 C127.940946,140.032977 128.509963,140.161596 129.064423,140.339261 L132.292552,141.261203 C134.67044,141.943606 137.109657,142.63158 139.57675,142.478388 C140.077775,142.445596 140.575484,142.37389 141.06537,142.263918 C143.016743,141.812696 144.837096,140.72085 145.773755,138.966098 C147.030997,136.579078 146.420496,133.646136 145.704063,131.039076 Z M51.0178467,87.4738744 C50.9184557,88.681627 50.6031034,89.8617838 50.0867628,90.9583106 C49.741091,91.6574261 49.2950627,92.3008352 48.9716923,93.002736 C48.6650479,93.6377892 48.4364584,94.8382624 48.2998623,96.1557191 C48.1326017,96.1278659 47.9625534,96.102798 47.7952928,96.0833007 C48.043396,95.2142807 48.2301703,94.322978 48.4782735,93.4511727 C49.0664733,91.3788941 50.033797,89.4208136 51.0178467,87.4738744 Z" id="Shape" fill="url(#linearGradient-3)" fill-rule="nonzero"></path>
                            <path d="M55.3189809,130.339163 C54.7225472,129.007762 54.1572073,127.47665 54.7536409,126.145249 C55.1429601,125.361162 55.8117562,124.744368 56.6333963,124.411654 C57.4464538,124.08632 58.3034533,123.878886 59.1774261,123.79588 C61.9205797,123.442823 64.6963857,123.405587 67.4483496,123.68493 C67.6490453,125.243779 67.2250403,126.824818 66.8603961,128.330966 C66.5296722,129.717843 66.3402833,129.9231 64.8817062,129.995218 C63.9375885,130.045145 55.5422902,130.830117 55.3189809,130.339163 Z" id="Path" fill="#FBBEBE" fill-rule="nonzero"></path>
                            <ellipse id="Oval" fill="#464353" fill-rule="nonzero" cx="80" cy="110.25" rx="40" ry="11.25"></ellipse>
                            <ellipse id="Oval" fill="#000000" fill-rule="nonzero" opacity="0.1" cx="80" cy="110.25" rx="40" ry="11.25"></ellipse>
                            <path d="M87.4487409,51.2024018 C86.0881722,53.8424142 83.8284713,55.9038132 81.0812643,57.0110953 C79.463728,57.6030837 77.7615654,57.9287464 76.0405766,57.9754945 C74.1558701,58.0619003 72.2323037,57.9392599 70.4614013,57.2926107 C68.0853943,56.4285536 66.1118652,54.6614175 64.6324122,52.6016169 C63.1529593,50.5418162 62.1342741,48.1893511 61.2488229,45.817375 C60.7825037,44.5826096 60.3383903,43.267013 60.5576713,41.9625655 C61.9871615,41.6364536 63.5526614,41.1570413 64.291,39.8832539 C64.921086,38.7906398 64.7462163,37.4806177 64.3825984,36.2319158 C64.2798972,35.8779312 64.1605417,35.5267338 64.0411862,35.1894728 C63.7636153,34.3811613 62.8059957,32.8453695 63.4721658,32.1541238 C63.8968493,31.7165207 65.6760788,31.4935382 66.2895106,31.2092356 C68.1797684,30.3340294 69.9229137,29.0686038 71.9991441,28.6532989 C73.7950279,28.2937397 75.6492016,28.6310007 77.4423096,29.0044963 C77.6801565,29.0392313 77.9086035,29.1217014 78.1140312,29.2469898 C78.3482572,29.4452068 78.5215358,29.7062084 78.6136589,29.9995556 C79.1243893,31.2482575 79.4241659,32.6279616 79.8349709,33.9296218 C80.2624301,35.2926022 80.8120205,36.5719641 81.8418085,37.5391506 C82.6439885,38.2945037 83.6654494,38.7683415 84.6647047,39.2282429 L87.1239829,40.3598789 C87.5614362,40.5243577 87.9582107,40.7820526 88.287005,41.1152321 C88.6086088,41.5591254 88.8008289,42.0841438 88.8421468,42.6315129 C89.2827934,45.5645076 88.7954122,48.5624068 87.4487409,51.2024018 L87.4487409,51.2024018 Z" id="Path" fill="#8F575F" fill-rule="nonzero"></path>
                            <path d="M79.5,33.7175618 C75.3725884,37.7588464 68.8671434,38.6680551 63.6703154,35.9299372 C63.5650308,35.5897778 63.442673,35.2522968 63.3203152,34.9282079 C63.0357622,34.151466 62.0540543,32.6756562 62.7369815,32.0114079 C63.1723476,31.5908959 64.9963325,31.3766222 65.6251947,31.1034233 C67.5630008,30.2623993 69.3499937,29.0463963 71.4784503,28.6473117 C73.3195084,28.3017954 75.2203226,28.6258843 77.0585351,28.9847927 C77.3023648,29.0181711 77.5365583,29.0974201 77.7471534,29.2178153 C77.9872711,29.4082907 78.1649085,29.6590986 78.2593488,29.9409888 C78.7715443,31.1409212 79.0788615,32.4667394 79.5,33.7175618 Z" id="Path" fill="#000000" fill-rule="nonzero" opacity="0.1"></path>
                            <circle id="Oval" fill="#A0616A" fill-rule="nonzero" cx="70.25" cy="24.25" r="12.75"></circle>
                            <path d="M109.597062,65.9579073 L108.540805,59.5772714 C108.007089,56.3758082 107.456606,53.1130463 105.964434,50.2292218 C104.983624,48.3401077 103.427183,46.5401554 101.328642,46.1667907 C100.915268,46.130053 100.509008,46.0362815 100.121492,45.8881603 C99.5067393,45.5928121 99.1714198,44.9296717 98.6991781,44.4392823 C97.4808506,43.1798729 95.4968769,43.1603688 93.8649887,42.5195189 C92.4231149,41.9622581 91.243908,40.8895311 89.9305732,40.0703577 C88.6172385,39.2511844 86.982556,38.6772058 85.5295048,39.2010309 C85.2947812,41.6947729 85.0460859,44.244241 83.9842408,46.5150787 C82.5845049,49.509148 79.9034315,51.7126375 76.6887282,52.5110302 C73.4740248,53.3094229 70.0696567,52.6172926 67.4250462,50.6276632 C64.935299,48.7580533 63.339737,45.8742288 62.5964454,42.8566616 C62.4148141,42.1210774 62.2080337,41.2768273 61.5290117,40.9396845 C60.7941031,40.5718924 59.9110951,41.0177011 59.2935484,41.558244 C58.1618451,42.5585271 57.2620711,43.9906873 55.792254,44.3278301 C55.2613314,44.4504275 54.6745223,44.4253507 54.2330183,44.7457757 C53.9395919,45.0157878 53.6939678,45.33324 53.5064927,45.6847601 C52.8530856,46.6053824 51.7782461,47.1354966 50.647894,47.0946299 C50.1365317,47.0695531 49.5301623,46.9525284 49.1808712,47.3231068 C48.9209986,47.6017372 48.9014383,48.0364006 48.6220053,48.2955269 C48.2447709,48.6605327 47.6328128,48.4822092 47.1074789,48.4627051 C46.1126978,48.4209105 45.1877748,49.0561878 44.6177317,49.855857 C44.0476885,50.6555263 43.7794329,51.6446642 43.5,52.6031527 C46.5542018,59.3850164 49.3485309,66.175239 52.4027327,72.9571028 C52.5458253,73.2127153 52.6217636,73.5002604 52.6234847,73.7929939 C52.5622339,74.0968245 52.4322584,74.3827119 52.2434559,74.6288851 C50.7456955,77.0278928 50.7931991,80.0454599 50.9580645,82.8651995 C51.1229299,85.684939 51.3241216,88.6634979 50.0610849,91.1906755 C49.7173824,91.8844652 49.2702897,92.5197425 48.9433532,93.2135322 C48.177707,94.7850076 47.9010684,99.8114998 48.3481611,101.5 L111.5,101.5 C110.295644,98.1982299 110.753914,91.5723992 111.005404,88.0672289 C111.181446,85.6152814 110.725971,83.1661203 110.530368,80.7141728 C110.119601,75.7071847 110.426978,70.9565366 109.597062,65.9579073 Z" id="Path" fill="#6C63FF" fill-rule="nonzero"></path>
                            <path d="M112.675917,99.7294945 C113.602797,99.3749851 114.624315,99.5033901 115.617997,99.6373779 C118.816153,100.07563 122.061627,100.525047 125.025976,101.806305 C126.417688,102.403667 127.742599,103.202011 128.683397,104.377196 C129.518424,105.435141 130.005524,106.730356 130.467572,108.006032 L131.536408,110.934223 C131.942788,112.050788 132.354735,113.189684 132.468855,114.376035 C132.802866,117.890423 130.406337,121.203829 127.391887,123.029413 C124.377437,124.854996 120.82857,125.505395 117.371555,126.1865 C113.914541,126.867604 110.443609,127.621286 107.000512,128.41963 C105.394588,128.837583 103.765251,129.159166 102.121167,129.382667 C98.4359118,129.801379 94.5836509,129.184477 91.0821016,130.407115 C89.6903888,130.895612 88.3237269,131.62138 86.8791291,131.95914 C85.9209636,132.169955 84.9517268,132.326521 83.9760163,132.428098 L77.3486802,133.187362 C76.0010194,133.368126 74.6442636,133.472504 73.2848789,133.5 C70.3901164,133.5 67.5426721,132.813313 64.7314123,132.126625 C64.4325242,132.074035 64.1480169,131.958954 63.8963847,131.788864 C63.4510366,131.437146 63.3536167,130.814661 63.2895979,130.250796 C63.0056885,127.755274 62.7570359,125.25696 62.5436399,122.755854 C62.4768377,121.943553 62.426736,121.064258 62.8693007,120.380362 C63.4259858,119.542939 64.5115217,119.280546 65.5024212,119.118644 C69.7041644,118.429302 73.9606972,118.133069 78.2171089,118.233766 C79.8342791,116.611956 82.5008008,116.603582 84.6189876,115.721495 C85.398228,115.362614 86.1523983,114.95134 86.8763457,114.490483 C90.6636961,112.274311 94.8959883,110.932608 99.2653726,110.562965 C100.121417,110.536765 100.97189,110.415054 101.801073,110.200082 C103.440511,109.689253 104.93521,108.29913 106.619183,108.639682 C106.82794,108.06186 106.972678,107.288639 107.45421,106.892258 C107.693585,106.688485 107.988628,106.551706 108.208519,106.333976 C108.673351,105.862227 108.715102,105.119712 108.645517,104.460938 C108.575931,103.802165 108.420059,103.126643 108.589848,102.484618 C108.66049,102.241549 108.764471,102.009503 108.898808,101.79514 C109.736619,100.326857 110.997511,99.5899239 112.675917,99.7294945 Z" id="Path" fill="#464353" fill-rule="nonzero"></path>
                            <path d="M112.675917,99.7294945 C113.602797,99.3749851 114.624315,99.5033901 115.617997,99.6373779 C118.816153,100.07563 122.061627,100.525047 125.025976,101.806305 C126.417688,102.403667 127.742599,103.202011 128.683397,104.377196 C129.518424,105.435141 130.005524,106.730356 130.467572,108.006032 L131.536408,110.934223 C131.942788,112.050788 132.354735,113.189684 132.468855,114.376035 C132.802866,117.890423 130.406337,121.203829 127.391887,123.029413 C124.377437,124.854996 120.82857,125.505395 117.371555,126.1865 C113.914541,126.867604 110.443609,127.621286 107.000512,128.41963 C105.394588,128.837583 103.765251,129.159166 102.121167,129.382667 C98.4359118,129.801379 94.5836509,129.184477 91.0821016,130.407115 C89.6903888,130.895612 88.3237269,131.62138 86.8791291,131.95914 C85.9209636,132.169955 84.9517268,132.326521 83.9760163,132.428098 L77.3486802,133.187362 C76.0010194,133.368126 74.6442636,133.472504 73.2848789,133.5 C70.3901164,133.5 67.5426721,132.813313 64.7314123,132.126625 C64.4325242,132.074035 64.1480169,131.958954 63.8963847,131.788864 C63.4510366,131.437146 63.3536167,130.814661 63.2895979,130.250796 C63.0056885,127.755274 62.7570359,125.25696 62.5436399,122.755854 C62.4768377,121.943553 62.426736,121.064258 62.8693007,120.380362 C63.4259858,119.542939 64.5115217,119.280546 65.5024212,119.118644 C69.7041644,118.429302 73.9606972,118.133069 78.2171089,118.233766 C79.8342791,116.611956 82.5008008,116.603582 84.6189876,115.721495 C85.398228,115.362614 86.1523983,114.95134 86.8763457,114.490483 C90.6636961,112.274311 94.8959883,110.932608 99.2653726,110.562965 C100.121417,110.536765 100.97189,110.415054 101.801073,110.200082 C103.440511,109.689253 104.93521,108.29913 106.619183,108.639682 C106.82794,108.06186 106.972678,107.288639 107.45421,106.892258 C107.693585,106.688485 107.988628,106.551706 108.208519,106.333976 C108.673351,105.862227 108.715102,105.119712 108.645517,104.460938 C108.575931,103.802165 108.420059,103.126643 108.589848,102.484618 C108.66049,102.241549 108.764471,102.009503 108.898808,101.79514 C109.736619,100.326857 110.997511,99.5899239 112.675917,99.7294945 Z" id="Path" fill="#000000" fill-rule="nonzero" opacity="0.05"></path>
                            <path d="M57.7414563,131.787731 C55.9951671,133.795625 54.4576427,134.512531 51.7239525,134.448121 C50.0425496,134.408915 48.3630275,134.322103 46.6853862,134.187683 C45.5387171,134.064598 44.385534,134.011291 43.2323038,134.02806 C39.75101,134.162479 36.3910254,135.744711 32.918195,135.46747 C32.4046831,135.42735 31.896879,135.333482 31.4032398,135.187429 C30.6197767,134.970878 29.9119086,134.543463 29.3579091,133.952448 C28.6921187,133.204739 28.3733292,132.213394 28.1899548,131.23325 C27.2617978,126.209314 29.8064713,120.737312 34.2610604,118.180538 C34.84227,117.807937 35.50297,117.57494 36.1907241,117.5 C36.8651269,117.497296 37.5317929,117.642655 38.1429569,117.9257 L38.1852741,117.942503 C39.9950703,118.681696 41.638749,119.770697 43.0207179,121.146172 C43.2303867,121.384531 43.4805594,121.584525 43.7598581,121.737059 C44.038585,121.841552 44.3336644,121.896532 44.6315921,121.899483 L48.3385776,122.131917 C48.9666245,122.150522 49.5908484,122.235956 50.2005338,122.386754 C50.8726654,122.619686 51.5269893,122.900457 52.1584089,123.226877 C54.152959,124.111807 56.3647372,124.347041 58.5200926,124.688691 C58.727795,124.700085 58.9260007,124.778784 59.0843217,124.912724 C59.1703419,125.018929 59.2302309,125.143579 59.2592327,125.276777 C59.8702141,127.562686 59.30191,130.000595 57.7414563,131.787731 L57.7414563,131.787731 Z" id="Path" fill="#3F3D56" fill-rule="nonzero"></path>
                            <path d="M38.5,117.937744 C37.086368,119.286321 35.8599994,120.818075 34.8536363,122.492112 C33.238706,125.254856 32.2240062,128.326301 31.8755415,131.506656 C31.7433961,132.666851 31.7331731,133.837679 31.8450396,135 C31.0746635,134.784999 30.3788683,134.361202 29.8346869,133.775529 C29.1802825,133.03586 28.8669448,132.055175 28.6867063,131.085571 C27.7744221,126.115659 30.2755781,120.7025 34.6539875,118.17322 C35.2252576,117.804626 35.8746587,117.574134 36.5506512,117.5 C37.2135207,117.497325 37.8687859,117.641121 38.4694981,117.921123 L38.5,117.937744 Z" id="Path" fill="#000000" fill-rule="nonzero" opacity="0.1"></path>
                            <path d="M109.683614,125.023733 C111.76259,124.968033 114.096135,124.864989 115.623546,126.243555 C117.080243,127.546926 117.272584,129.696932 117.368754,131.632494 L117.479067,133.879974 C117.51301,134.56508 117.541295,135.272465 117.26127,135.907441 C116.763447,137.021434 115.397263,137.558935 114.149877,137.494881 C112.902491,137.430826 111.756933,136.893325 110.617032,136.408738 C107.522345,135.096058 104.300088,134.096677 101,133.426022 C101.107484,131.872003 101.286625,130.325409 101.537422,128.786243 C101.709963,127.719595 101.738249,125.934422 102.462355,125.048797 C103.228889,124.113044 104.227363,124.61991 105.268265,124.792579 C106.728786,125.012025 108.207693,125.089449 109.683614,125.023733 L109.683614,125.023733 Z" id="Path" fill="#FBBEBE" fill-rule="nonzero"></path>
                            <path d="M55.4124919,102.690947 C55.4124919,102.971184 54.9730926,102.690947 54.9339105,102.391092 C54.6260512,100.123971 52.8292721,98.2547873 50.7358285,97.3468179 C48.6423849,96.4388485 46.2578743,96.3912082 43.99091,96.606991 C40.5624764,96.9320665 36.7282281,98.2463802 35.4604074,101.455099 C35.1637429,102.206136 35.0294043,103.018824 34.6655705,103.739035 C34.2625546,104.529304 33.6048551,105.159839 33.1682546,105.927689 C32.4153985,107.256015 32.3846126,108.884195 32.6560886,110.386268 C33.3865548,114.393663 36.1237043,117.820968 39.4401891,120.194579 C42.7566739,122.56819 46.632903,123.986192 50.4979372,125.264075 C60.7179226,128.639107 71.2035001,131.146744 81.8436163,132.760427 C83.5676286,133.021048 85.3084333,133.262052 86.9596789,133.816923 C88.4374038,134.312943 89.8199721,135.055572 91.2641124,135.638466 C94.622578,136.989211 98.2357272,137.471219 101.815292,137.94482 C102.425413,138.023287 103.125093,138.079334 103.575688,137.664583 C104.157822,137.123725 103.96471,136.182127 103.799585,135.405869 C103.191782,132.456825 103.699453,129.38685 105.224134,126.791369 C105.823061,125.782514 106.601105,124.748438 106.489156,123.579848 C106.354818,122.217894 105.000237,121.253877 103.651253,121.035291 C102.302269,120.816706 100.930896,121.138979 99.5763148,121.315529 C99.1089283,121.377181 98.599561,121.416414 98.1769541,121.178213 C97.9756307,121.042096 97.7930784,120.880034 97.6340021,120.696204 C95.7196049,118.847 92.8334871,118.44305 90.4860678,119.695756 C89.9850967,119.975994 89.2266432,119.351064 88.706081,119.115665 L82.8259675,116.445002 C76.0642567,113.382006 69.2689613,110.304999 62.1154295,108.365755 C61.5446666,108.253414 61.0022086,108.027572 60.5201583,107.701593 C60.1647207,107.421355 59.9100371,107.040232 59.5825867,106.729168 C58.8689127,106.053796 57.8753667,105.784768 57.0189579,105.305562 C56.1625492,104.826356 55.2109839,103.652161 55.4124919,102.690947 Z" id="Path" fill="#464353" fill-rule="nonzero"></path>
                            <path d="M145.763142,139.000105 C144.830839,140.737761 143.021726,141.819961 141.079427,142.266229 C140.591999,142.376806 140.096494,142.447695 139.59773,142.478206 C137.142109,142.631611 134.71701,141.948263 132.35018,141.273283 L129.137063,140.358433 C128.58468,140.183646 128.018419,140.05674 127.444488,139.979106 C126.663152,139.926644 125.878541,139.953743 125.10263,140.059992 C121.305076,140.415128 117.476949,140.242433 113.726307,139.546784 C113.412531,139.512735 113.111173,139.404751 112.846723,139.231607 C112.615042,139.003313 112.409371,138.749795 112.233512,138.475741 C111.359477,137.418643 110.418849,136.802236 111.453817,135.407649 C112.050381,134.598788 113.157491,134.194358 113.620868,133.265563 C114.084245,132.336768 113.787351,131.017488 113.512654,130.058012 C113.138068,128.733154 111.906096,128.161373 111.464916,126.945293 C111.134725,126.027655 111.689668,124.96219 112.524857,124.462928 C113.360045,123.963666 114.392238,123.924617 115.355064,124.052919 C116.317889,124.181221 117.261291,124.45456 118.229666,124.529868 C121.076522,124.75858 123.987195,123.283107 126.720288,124.114281 C127.3224,124.298367 127.891216,124.59123 128.501653,124.753002 C129.691721,125.020586 130.934944,124.912467 132.06161,124.443404 C132.461169,124.292788 132.852403,124.111492 133.240863,123.932985 C133.990017,123.540946 134.787845,123.251106 135.613242,123.07113 C138.279741,122.610916 140.752011,124.465717 142.763677,126.275891 C143.454231,126.851998 144.065412,127.517952 144.581114,128.256205 C145.136057,129.126428 145.430177,130.138898 145.691,131.137422 C146.426299,133.722987 147.033961,136.629307 145.763142,139.000105 Z" id="Path" fill="#3F3D56" fill-rule="nonzero"></path>
                            <path d="M145.77617,138.780873 C144.861378,140.493526 143.086248,141.560154 141.180433,142 C141.92178,140.545664 142.255961,138.914609 142.146954,137.282646 C141.983598,134.668309 140.845555,132.205168 139.394413,130.033426 C138.50167,128.696545 137.486196,127.447546 136.361445,126.302978 C135.49566,125.423285 134.431127,124.725029 133.5,123.91956 C134.235082,123.533163 135.017924,123.247492 135.827817,123.070106 C138.444228,122.616515 140.870058,124.444627 142.843937,126.228754 C143.521519,126.796571 144.12122,127.452943 144.627236,128.180573 C145.171754,129.038273 145.460349,130.036175 145.716273,131.020332 C146.426869,133.579689 147.023117,136.444189 145.77617,138.780873 Z" id="Path" fill="#000000" fill-rule="nonzero" opacity="0.1"></path>
                            <path d="M61.8643141,3.87410421 C60.9283046,4.5536756 60.2875839,5.52968552 59.6357201,6.46654319 C58.4350651,8.19763243 57.0756228,9.92592509 55.1562462,10.8907487 C54.4291674,11.257102 53.5990162,11.5339644 53.1170827,12.1715869 C52.8310331,12.6028065 52.6453686,13.0931487 52.573863,13.6062376 C52.2061773,15.4103707 52.0139866,17.2461018 52,19.0875541 C52,20.0048356 52.0390004,20.9500831 52.4429331,21.7834669 C52.8245798,22.5665121 53.5126582,23.229304 53.654731,24.0822639 C53.763375,24.7478524 53.5182296,25.4106442 53.4318716,26.0790292 C53.3455136,26.7474143 53.4959437,27.5388492 54.1115928,27.8576605 C54.4433137,27.9829284 54.7897487,28.0647046 55.1423175,28.1009638 C56.9948363,28.5148592 57.6160568,30.6961994 57.8974168,32.5 C58.5269946,32.4636443 58.8111404,31.7393275 58.9420703,31.149247 L60.8725898,22.532953 C61.0815205,21.598892 61.4297383,20.5166116 62.3573905,20.1894106 C62.9786111,19.9740732 63.6583323,20.1754276 64.3074103,20.2313594 C66.8563646,20.4411037 69.0125293,18.4639145 71.5057688,17.9185795 C72.303964,17.7578238 73.1198936,17.7042198 73.9321505,17.7591738 C75.8988847,17.8570545 78.1859793,18.6680656 78.6038406,20.5110184 C78.6734842,20.8102536 78.7152703,21.1682171 78.9938446,21.3164364 C79.2724188,21.4646556 79.5509931,21.3388091 79.8574248,21.3164364 C81.1054374,21.1905898 81.8408734,22.6000712 82.2002342,23.7522663 L83.5095331,27.9471514 C83.7045351,28.5819773 84.0332527,29.3286669 84.7185454,29.409768 C85.3509089,29.4880725 85.8885572,28.8868057 85.9832725,28.291132 C86.0779877,27.6954583 85.8718428,27.0774119 85.7353414,26.4789416 C85.1196923,23.7243004 86.0612733,20.9053376 86.6351362,18.1451033 C87.2089992,15.3848689 87.3120716,12.2135358 85.3871236,10.0881273 C84.6879022,9.31906505 83.7686072,8.74576409 83.1167435,7.93475297 C82.5094516,7.17408048 82.1668053,6.2400194 81.5372275,5.49332985 C79.7961384,3.43224298 75.3305932,1.84098324 72.5922084,1.57810378 C69.4749626,1.2341232 64.3937683,2.03115137 61.8643141,3.87410421 Z" id="Path" fill="#3F3D56" fill-rule="nonzero"></path>
                            <g id="Group" opacity="0.1" transform="translate(51.500000, 13.500000)" fill="#000000" fill-rule="nonzero">
                                <path d="M33.0876772,13.838806 C32.4000394,13.7537313 32.0701969,12.9880597 31.8745276,12.3556716 C31.436601,10.9358706 30.9986745,9.5179602 30.560748,8.1019403 C30.2001575,6.93074627 29.4622047,5.50149254 28.2099213,5.6319403 C27.9303937,5.66313433 27.6005512,5.77940299 27.3433858,5.6319403 C27.0862205,5.48447761 27.0219291,5.11865672 26.9520472,4.81522388 C26.5327559,2.94358209 24.2378346,2.12402985 22.2643701,2.02477612 C21.4493328,1.97047634 20.6307956,2.02482005 19.829685,2.18641791 C17.313937,2.75358209 15.1643701,4.73865672 12.6066929,4.53164179 C11.9470079,4.47776119 11.2649606,4.27358209 10.65,4.4919403 C9.70799213,4.82089552 9.36976378,5.90985075 9.16011811,6.86835821 L7.22299213,15.6026866 C7.09161417,16.2038806 6.80649606,16.9383582 6.17476378,16.9723881 C5.89523622,15.1461194 5.26909449,12.9341791 3.41023622,12.5144776 C3.05691842,12.47498 2.70962985,12.3921358 2.37598425,12.2677612 C2.13279521,12.1329994 1.9424106,11.9178367 1.83649606,11.6580597 C1.7861811,11.921791 1.72748031,12.1855224 1.69393701,12.4492537 C1.61007874,13.1241791 1.75822835,13.9295522 2.37598425,14.2528358 C2.70884036,14.379861 3.05646088,14.4627844 3.41023622,14.4995522 C5.26909449,14.9192537 5.89244094,17.131194 6.17476378,18.9602985 C6.80649606,18.9234328 7.09161417,18.1889552 7.22299213,17.590597 L9.16011811,8.85343284 C9.36976378,7.90626866 9.71917323,6.80880597 10.65,6.47701493 C11.2733465,6.25865672 11.9553937,6.46283582 12.6066929,6.51955224 C15.1643701,6.73223881 17.3279134,4.72731343 19.829685,4.17432836 C20.6269665,4.01231992 21.4418628,3.95796833 22.253189,4.01268657 C24.2266535,4.1119403 26.5215748,4.93432836 26.9408661,6.80313433 C27.010748,7.10656716 27.0526772,7.46955224 27.3322047,7.61985075 C27.6117323,7.77014925 27.8912598,7.64253731 28.1987402,7.61985075 C29.4510236,7.49223881 30.1889764,8.92149254 30.5495669,10.0898507 C30.9856299,11.5096517 31.4235564,12.9275622 31.8633465,14.3435821 C32.0590157,14.9873134 32.3888583,15.7444776 33.0764961,15.8267164 C33.7110236,15.9061194 34.2505118,15.2964179 34.3455512,14.6923881 C34.3885041,14.1841326 34.331495,13.6722842 34.1778346,13.1865672 C33.9747624,13.6046918 33.5466227,13.8608468 33.0876772,13.838806 Z" id="Path"></path>
                                <path d="M1.90917323,8.43940299 C1.76661417,7.57447761 1.07059055,6.90238806 0.693228346,6.10835821 C0.45061217,5.57280153 0.31023527,4.99545129 0.279527559,4.40686567 C0.279527559,4.72447761 0.251574803,5.04208955 0.248779528,5.36253731 C0.248779528,6.29268657 0.287913386,7.25119403 0.693228346,8.09626866 C1.00350394,8.74 1.51503937,9.30716418 1.77220472,9.96223881 C1.90779578,9.46712053 1.95419557,8.95124086 1.90917323,8.43940299 Z" id="Path"></path>
                                <path d="M35.0108268,2.40477612 C34.5020866,4.87761194 33.7082283,7.3958209 33.9542126,9.87432836 C34.1135433,8.04522388 34.6390551,6.20477612 35.0108268,4.38985075 C35.3206562,3.01254019 35.4299003,1.59660723 35.3350787,0.187164179 C35.2742645,0.932690667 35.1659542,1.67344275 35.0108268,2.40477612 L35.0108268,2.40477612 Z" id="Path"></path>
                            </g>
                            <path d="M54.953819,78.2942378 C54.6109688,83.8294567 50.4825992,88.4031194 48.9100219,93.7265172 C48.5190027,95.0587602 48.2838244,96.4411713 47.7227968,97.7093106 C46.5894078,100.259525 44.2574598,102.110172 41.7725043,103.414544 C40.8658635,103.930011 39.8741743,104.284726 38.8426936,104.462501 C36.520991,104.729375 34.2740046,103.553769 33.2012496,101.510941 C32.5523844,100.214931 32.4617133,98.723822 32.0678606,97.3302624 C31.6286723,95.7220945 30.8069653,94.2393471 30.2714389,92.6590505 C29.2853905,89.7520851 29.3052248,86.5691949 29.9880917,83.5814031 C30.6351208,80.9831421 31.6590625,78.4900399 33.0284078,76.1788143 C33.2267509,75.8359986 33.4279274,75.4959701 33.6347709,75.1587287 C34.2192587,74.183786 34.875546,73.2522551 35.5983675,72.3716094 C37.298451,70.3565222 39.4830584,68.8068839 41.6449981,67.2795425 C41.8100838,67.1457491 42.0038263,67.0504626 42.2116926,67.0008306 L42.2456943,67.0008306 C42.4894602,66.9924045 42.7310862,67.0482144 42.945562,67.1624835 C45.9437872,68.4375183 48.8215232,69.9708305 51.5451514,71.7445076 C52.519866,72.3827579 54.0584416,73.0962604 54.5684667,74.1832369 C55.0784918,75.2702134 55.0274893,77.1124993 54.953819,78.2942378 Z" id="Path" fill="#A0616A" fill-rule="nonzero"></path>
                            <path d="M43.4620953,52.8008315 C43.1925663,53.0887121 42.9835405,53.4297562 42.8478471,53.8030315 C40.6112736,58.9459587 39.2902145,64.454182 38.9465412,70.0697256 C38.9525584,70.3435376 38.890696,70.6144647 38.7666938,70.8573701 C38.6444132,71.0189896 38.5083008,71.1692044 38.3599619,71.3062427 C38.0876927,71.6355203 37.9611689,72.0651094 38.0104421,72.4929757 C38.0597153,72.920842 38.2803888,73.3088066 38.6200489,73.5647216 C39.0765847,72.6867379 40.1695038,72.401605 41.1406799,72.3253813 C45.7918113,71.9499092 50.3350342,74.1575723 55,73.9910095 C54.6707408,72.830716 54.1976037,71.715592 53.929216,70.541183 C52.742223,65.3269199 55.7027884,59.6496687 53.8877128,54.6273763 C53.525251,53.6223532 52.9193035,52.6342687 51.9647287,52.1938653 C51.5694937,52.0309765 51.1558742,51.9190692 50.7334655,51.8607397 C49.554773,51.6433611 47.2084557,50.7145617 46.0684997,51.0872107 C45.6479334,51.2255425 45.4819203,51.6292456 45.133293,51.8720321 C44.6158858,52.2192732 43.9130973,52.3406665 43.4620953,52.8008315 Z" id="Path" fill="#6C63FF" fill-rule="nonzero"></path>
                            <path d="M45.2466815,98.9817458 C43.8088016,101.436742 41.2030621,102.959123 38.3721593,102.998126 C37.6187416,103.018014 36.869491,102.879428 36.1723122,102.591229 C34.4151843,101.81065 33.4225033,99.8785805 33.0540289,97.9797268 C32.6855545,96.0808731 32.8010465,94.1211232 32.5398147,92.2028935 C32.3308292,90.6749529 31.8853602,89.1913004 31.6543762,87.6661279 C31.0879156,83.8933325 32.204338,80.1675934 32.9990327,76.4114061 C33.1915194,76.0709411 33.3867558,75.733244 33.5874918,75.398315 C34.1547215,74.4300574 34.7916306,73.5049139 35.4931094,72.6303067 C37.1429947,70.6290367 39.2630974,69.0900241 41.3612015,67.5731555 L39.1613544,67.5731555 C39.2696598,67.4934014 39.4119343,67.4776613 39.534862,67.5318338 C39.6577897,67.5860062 39.7428102,67.7019119 39.758063,67.8361163 C39.9752979,69.7737222 42.6893592,71.711328 43.2805681,73.5935736 C43.6462927,74.7506011 44.0862621,75.8854845 44.3804917,77.064656 C44.6124163,78.0689556 44.7886762,79.0854615 44.908455,80.1094652 C45.2989279,82.9752765 45.6875675,85.8355517 46.074374,88.6902909 C46.5610901,92.1752134 46.9790611,95.9424727 45.2466815,98.9817458 Z" id="Path" fill="#000000" fill-rule="nonzero" opacity="0.1"></path>
                            <path d="M41.857041,62.2872289 L44.5499688,53.8470839 C44.951815,52.5839898 45.3592424,51.3013778 45.4066826,49.9741531 C45.4541228,48.6469285 45.1052979,47.2555732 44.1760286,46.3075556 C43.4225669,45.5407766 42.378883,45.1448399 41.4858914,44.5453581 C39.2534125,43.0424714 38.137173,40.4103284 36.9734933,37.9873069 C35.8098137,35.5642854 34.277775,33.0297324 31.7383302,32.131904 C31.1523044,31.9255708 30.3430308,31.908841 30.0807145,32.4692867 C29.9899832,32.702288 29.9753315,32.9579926 30.0388555,33.199818 C30.2844282,34.4880066 31.2081164,35.5168845 32.0118088,36.5457625 C33.359668,38.2884419 34.4870699,40.4214815 34.1633604,42.601922 C33.7782578,45.1838759 31.4564797,47.185866 31.1774198,49.7817613 C31.0546335,50.924959 31.3476463,52.070945 31.3448557,53.2225076 C31.3448557,53.9363091 31.2276506,54.664052 31.3867147,55.3611238 C31.5518056,55.9000956 31.7484158,56.4289207 31.975531,56.9448708 C32.2240874,57.7785289 32.3537316,58.6430464 32.3606337,59.5128833 L32.94945,70.4875813 C33.2675782,76.4238445 30.0444367,82.1983871 30.9318471,88.0537899 C31.1662574,89.5901361 31.6183344,91.084658 31.8304199,92.6237925 C32.1094798,94.5560755 31.9783216,96.5273944 32.3522619,98.4429477 C32.7262021,100.358501 33.7475612,102.301937 35.5168008,103.088234 C36.2243214,103.378545 36.9846861,103.518146 37.7492798,103.498112 C40.6221754,103.458823 43.2665676,101.92529 44.7257765,99.4523076 C46.4838537,96.3851918 46.0596827,92.5959096 45.5796997,89.0993976 L44.3964859,80.4557076 C44.2749303,79.424202 44.0960558,78.400249 43.8606909,77.3885918 C43.5648875,76.2007815 43.1183917,75.0575838 42.7444514,73.8920798 C41.5472846,70.0804913 40.6515024,66.0737228 41.857041,62.2872289 Z" id="Path" fill="#A0616A" fill-rule="nonzero"></path>
                            <rect id="Rectangle" fill="#3F3D56" fill-rule="nonzero" x="53" y="63" width="62" height="39.5" rx="3.985"></rect>
                            <rect id="Rectangle" fill="#000000" fill-rule="nonzero" opacity="0.2" x="53" y="63" width="62" height="39.5" rx="3.985"></rect>
                            <path d="M10.8426984,115.5 L14.1573016,115.5 C17.9364196,115.5 21,118.56358 21,122.342698 L21,132.5 L4,132.5 L4,122.342698 C4,118.56358 7.06358044,115.5 10.8426984,115.5 Z" id="Path" fill="#3F3D56" fill-rule="nonzero"></path>
                            <path d="M10.8426984,115.5 L14.1573016,115.5 C17.9364196,115.5 21,118.56358 21,122.342698 L21,132.5 L4,132.5 L4,122.342698 C4,118.56358 7.06358044,115.5 10.8426984,115.5 Z" id="Path" fill="#000000" fill-rule="nonzero" opacity="0.1"></path>
                            <circle id="Oval" fill="#3F3D56" fill-rule="nonzero" cx="12" cy="117.5" r="1.5"></circle>
                            <circle id="Oval" fill="#3F3D56" fill-rule="nonzero" cx="12" cy="116" r="1.5"></circle>
                            <circle id="Oval" fill="#3F3D56" fill-rule="nonzero" cx="12" cy="114.5" r="1.5"></circle>
                            <circle id="Oval" fill="#3F3D56" fill-rule="nonzero" cx="12" cy="112.5" r="1.5"></circle>
                            <circle id="Oval" fill="#3F3D56" fill-rule="nonzero" cx="12" cy="110.5" r="1.5"></circle>
                            <circle id="Oval" fill="#3F3D56" fill-rule="nonzero" cx="12" cy="109" r="1.5"></circle>
                            <circle id="Oval" fill="#3F3D56" fill-rule="nonzero" cx="12" cy="107" r="1.5"></circle>
                            <circle id="Oval" fill="#3F3D56" fill-rule="nonzero" cx="14" cy="108" r="1.5"></circle>
                            <circle id="Oval" fill="#3F3D56" fill-rule="nonzero" cx="15" cy="107" r="1.5"></circle>
                            <circle id="Oval" fill="#3F3D56" fill-rule="nonzero" cx="17" cy="106.5" r="1.5"></circle>
                            <circle id="Oval" fill="#3F3D56" fill-rule="nonzero" cx="12" cy="105.5" r="1.5"></circle>
                            <circle id="Oval" fill="#3F3D56" fill-rule="nonzero" cx="12" cy="104" r="1.5"></circle>
                            <circle id="Oval" fill="#3F3D56" fill-rule="nonzero" cx="12" cy="102" r="1.5"></circle>
                            <circle id="Oval" fill="#3F3D56" fill-rule="nonzero" cx="12" cy="100" r="1.5"></circle>
                            <path d="M17.8582903,96.261056 C17.523115,96.3101055 17.1852147,96.3455302 16.8473144,96.36733 C17.1614522,96.0932362 17.4530575,95.7943437 17.7193152,95.473538 C17.5307667,94.9048298 17.2549751,94.3688801 16.9018144,93.8848772 C16.5661218,94.073443 16.1949753,94.190353 15.8118134,94.2282241 C15.4766381,94.2772737 15.1387377,94.3154233 14.8008374,94.3372231 C15.2549291,93.9051111 15.6869367,93.4503708 16.0952137,92.9747353 C14.0762194,91.1588672 11.0620628,91.0030523 8.86658709,92.6010561 C6.67111139,94.1990598 5.8929366,97.1151693 7.0003486,99.5945436 C8.1077606,102.073918 10.7988116,103.440529 13.4540953,102.871985 C16.1093789,102.303441 18.0049036,99.9547614 18,97.2393222 C18,96.9076766 17.9709079,96.5766698 17.9127904,96.2501561 L17.8582903,96.261056 Z" id="Path" fill="#3ACC6C" fill-rule="nonzero"></path>
                            <path d="M22.067407,102.684865 C21.7103143,102.903466 21.308243,103.038128 20.8915196,103.078693 C20.5455049,103.129328 20.1966771,103.165897 19.8478492,103.188402 C20.2186006,102.855858 20.564596,102.49671 20.8830802,102.113816 C19.1362894,101.658395 17.3297021,102.606347 16.7119419,104.302494 C16.0941818,105.998642 16.8679808,107.886356 18.4985275,108.660941 C20.1290741,109.435527 22.0812675,108.842787 23.0058482,107.292394 C23.930429,105.742 23.5239749,103.74275 22.067407,102.676426 L22.067407,102.684865 Z" id="Path" fill="#3ACC6C" fill-rule="nonzero"></path>
                            <circle id="Oval" fill="#3F3D56" fill-rule="nonzero" cx="9.5" cy="108" r="1.5"></circle>
                            <circle id="Oval" fill="#3F3D56" fill-rule="nonzero" cx="8.5" cy="107" r="1.5"></circle>
                            <circle id="Oval" fill="#3F3D56" fill-rule="nonzero" cx="7" cy="106.5" r="1.5"></circle>
                            <path d="M1.43259303,102.684865 C1.78947604,102.903916 2.19165374,103.038613 2.60848041,103.078693 C2.95449511,103.129328 3.30332295,103.165897 3.65215078,103.188402 C3.28070011,102.856584 2.93465307,102.497381 2.61691979,102.113816 C4.36371062,101.658395 6.17029789,102.606347 6.78805805,104.302494 C7.40581821,105.998642 6.6320192,107.886356 5.00147253,108.660941 C3.37092587,109.435527 1.41873254,108.842787 0.494151788,107.292394 C-0.430428962,105.742 -0.0239749206,103.74275 1.43259303,102.676426 L1.43259303,102.684865 Z" id="Path" fill="#3ACC6C" fill-rule="nonzero"></path>
                            <path d="M10.8426984,116.5 L14.1573016,116.5 C17.9364196,116.5 21,119.56358 21,123.342698 L21,132.339478 C21,132.980417 20.4804168,133.5 19.8394783,133.5 L5.16052166,133.5 C4.51958324,133.5 4,132.980417 4,132.339478 L4,123.342698 C4,119.56358 7.06358044,116.5 10.8426984,116.5 Z" id="Path" fill="#3F3D56" fill-rule="nonzero"></path>
                            <g id="Group" opacity="0.1" transform="translate(6.000000, 91.000000)" fill="#000000" fill-rule="nonzero">
                                <path d="M11.7181395,5.22789474 C11.5777233,5.37641764 11.4286301,5.51665844 11.2716279,5.64789474 C11.4306977,5.64789474 11.5869767,5.62302632 11.7460465,5.60644737 C11.7404651,5.47934211 11.732093,5.35223684 11.7181395,5.22789474 Z" id="Path"></path>
                            </g>
                            <g id="Group" opacity="0.1" transform="translate(16.500000, 102.000000)"></g>
                            <g id="Group" opacity="0.1" transform="translate(0.000000, 102.000000)"></g>
                            <text id="32" font-family="Helvetica" font-size="19" font-weight="normal" fill="#F2F2F2">
                                <tspan x="68" y="87.5">32</tspan>
                            </text>
                        </g>
                    </g>
                </g>
                <g id="illustration_ETH-planet" mask="url(#mask-2)">
                    <g transform="translate(19.000000, 16.500000)">
                        <path d="M113.615455,51 C103.175885,42.9408274 86.8249189,35.318999 68.7552064,30.0890711 C52.3026885,25.3270934 36.2554362,23.0279954 23.5660671,23.6151139 L23.5,22.0912704 C36.3405513,21.4974481 52.5542608,23.8158357 69.153915,28.6203405 C87.3921126,33.8990546 103.920219,41.6108544 114.5,49.7783161 L113.615455,51 Z" id="Path" fill="#F2F2F2" fill-rule="nonzero"></path>
                        <path d="M111.5,57.5 C111.509288,64.4376357 110.05486,71.2991915 107.231684,77.6364252 C106.996035,78.166998 106.75051,78.6926272 106.495108,79.2133128 C98.1934631,96.2187124 80.9235175,107.003589 61.9999714,107 C34.6623475,107 12.5,84.837632 12.5,57.5 C12.5,56.3543817 12.5390256,55.2176592 12.6170767,54.0898333 C12.654127,53.5162852 12.7020475,52.946197 12.7608384,52.3795686 C15.3232749,27.4472724 36.3918909,8 61.9999714,8 C89.3376003,8 111.5,30.1623621 111.5,57.5 Z" id="Path" fill="#3F3D56" fill-rule="nonzero"></path>
                        <path d="M104,75.1954898 C103.785807,75.672256 103.562637,76.1445799 103.330489,76.6124615 C102.015721,76.7536255 100.631803,76.8561694 99.1787356,76.9200933 C97.9757793,76.9733644 96.7377974,77 95.4728796,77 C84.4239906,77 71.126797,74.9837438 57.5426793,71.2202483 C42.4040072,67.0252702 28.7080772,61.1576279 18.9766443,54.6973691 C18.6452639,54.4776286 18.3197158,54.2574465 18,54.0368227 C18.0336769,53.5214395 18.0772343,53.0091653 18.1306722,52.5 C18.6466118,52.863568 19.178714,53.2275739 19.7269787,53.5920177 C29.3439028,59.9750425 42.902434,65.7800979 57.906397,69.9377908 C71.371969,73.669319 84.5438834,75.6682599 95.4661371,75.6682599 C96.7148976,75.6682599 97.9322264,75.6420682 99.1181236,75.5896849 C100.845102,75.5124433 102.472394,75.3810449 104,75.1954898 Z" id="Path" fill="#000000" fill-rule="nonzero" opacity="0.1"></path>
                        <path d="M98.7510834,78.5 C86.6122954,78.5 72.00213,76.25083 57.0782557,72.0520747 C40.4459206,67.3726703 25.3978938,60.8268047 14.7060991,53.6202656 C3.79115055,46.2633423 -1.32706993,39.0141395 0.294162305,33.2080374 C1.91532179,27.4019454 10.9116111,23.0908373 24.0458015,22.5 L24.111791,23.9990639 C17.9782951,24.2749336 12.1098468,25.9632614 8.38514652,27.4921125 C4.66947971,29.0171914 2.42674999,31.0752198 1.71926315,33.60904 C1.01177129,36.1427847 1.86220496,39.0710026 4.24686302,42.3124482 C6.63737362,45.5617275 10.43398,48.9512281 15.5311685,52.3868622 C26.095833,59.5077416 40.9927625,65.9836678 57.4777583,70.6215795 C72.2724202,74.7839184 86.7428222,77.0143767 98.7438687,77.0146662 C100.115062,77.0146662 101.452238,76.9854088 102.755396,76.9268939 C108.888962,76.6509512 113.887503,75.7359326 117.612281,74.2070815 C121.327948,72.6820026 123.570677,70.6240472 124.278164,68.090227 C125.548468,63.5405258 122.22804,57.0691791 113.986453,50.8845003 L114.886162,49.6975729 C119.127208,52.8801888 121.734524,56.5740821 123.685149,59.5783961 C125.776257,62.7993119 126.455277,65.7981113 125.70327,68.4912271 C124.082038,74.2973216 115.955788,77.8201489 102.821743,78.4110593 C101.500111,78.4705487 100.140773,78.5 98.7510834,78.5 Z" id="Path" fill="#F2F2F2" fill-rule="nonzero"></path>
                        <circle id="Oval" fill="#F2F2F2" fill-rule="nonzero" cx="77.25" cy="8.25" r="1"></circle>
                        <circle id="Oval" fill="#F2F2F2" fill-rule="nonzero" cx="15.75" cy="21.75" r="1"></circle>
                        <circle id="Oval" fill="#F2F2F2" fill-rule="nonzero" cx="2.25" cy="69.75" r="1"></circle>
                        <circle id="Oval" fill="#F2F2F2" fill-rule="nonzero" cx="107.75" cy="15.25" r="1"></circle>
                        <circle id="Oval" fill="#F2F2F2" fill-rule="nonzero" cx="113.75" cy="81.25" r="1"></circle>
                        <circle id="Oval" fill="#F2F2F2" fill-rule="nonzero" cx="121.25" cy="39.25" r="1"></circle>
                        <circle id="Oval" fill="#F2F2F2" fill-rule="nonzero" cx="30.75" cy="14.75" r="1"></circle>
                        <circle id="Oval" fill="#F2F2F2" fill-rule="nonzero" cx="129.25" cy="59.75" r="1"></circle>
                        <circle id="Oval" fill="#F2F2F2" fill-rule="nonzero" cx="11.25" cy="90.25" r="1"></circle>
                        <circle id="Oval" fill="#F2F2F2" fill-rule="nonzero" cx="27.25" cy="103.75" r="1"></circle>
                        <polygon id="Path" fill="#F2F2F2" fill-rule="nonzero" points="44.5 2.78838489 43.7116151 2.78838489 43.7116151 2 43.2887645 2 43.2887645 2.78838489 42.5 2.78838489 42.5 3.21161511 43.2887645 3.21161511 43.2887645 4 43.7116151 4 43.7116151 3.21161511 44.5 3.21161511"></polygon>
                        <polygon id="Path" fill="#F2F2F2" fill-rule="nonzero" points="100 101.788385 99.2112355 101.788385 99.2112355 101 98.7883849 101 98.7883849 101.788385 98 101.788385 98 102.211615 98.7883849 102.211615 98.7883849 103 99.2112355 103 99.2112355 102.211615 100 102.211615"></polygon>
                        <polygon id="Path" fill="#F2F2F2" fill-rule="nonzero" points="140 107.788385 139.211615 107.788385 139.211615 107 138.788385 107 138.788385 107.788385 138 107.788385 138 108.211615 138.788385 108.211615 138.788385 109 139.211615 109 139.211615 108.211615 140 108.211615"></polygon>
                        <circle id="Oval" fill="#F2F2F2" fill-rule="nonzero" cx="63" cy="22" r="3.5"></circle>
                        <circle id="Oval" fill="#F2F2F2" fill-rule="nonzero" cx="34.5" cy="50" r="3.5"></circle>
                        <circle id="Oval" fill="#F2F2F2" fill-rule="nonzero" cx="76.5" cy="88" r="3.5"></circle>
                        <circle id="Oval" fill="#F2F2F2" fill-rule="nonzero" cx="63" cy="55" r="3.5"></circle>
                        <circle id="Oval" fill="#F2F2F2" fill-rule="nonzero" cx="36.5" cy="76" r="3.5"></circle>
                        <circle id="Oval" fill="#F2F2F2" fill-rule="nonzero" cx="83.5" cy="35" r="3.5"></circle>
                        <circle id="Oval" fill="#F2F2F2" fill-rule="nonzero" cx="96.5" cy="61.5" r="3.5"></circle>
                        <g id="Ethereum_logo_2014" fill="none" transform="translate(69.500000, 65.500000)" fill-rule="evenodd" stroke-width="1">
                            <g id="Path">
                                <polygon fill="#FF9F94" fill-rule="nonzero" points="7.24779668 0 7.08948613 0.523980815 7.08948613 15.7286906 7.24779668 15.8825755 14.4956443 11.7106954"></polygon>
                                <polygon fill="#FFEA4C" fill-rule="nonzero" points="7.24784766 0 0 11.7106954 7.24784766 15.8826307 7.24784766 8.50271942"></polygon>
                                <polygon fill="#5B9EEF" fill-rule="nonzero" points="7.24779668 17.2189252 7.1585877 17.3248245 7.1585877 22.7410763 7.24779668 22.9948484 14.499949 13.049141"></polygon>
                                <polygon fill="#54D0E2" fill-rule="nonzero" points="7.24784766 22.9947712 7.24784766 17.218848 0 13.0490638"></polygon>
                                <polygon fill="#A161A6" fill-rule="nonzero" points="7.24779668 15.882559 14.4955311 11.7107341 7.24779668 8.50275803"></polygon>
                                <polygon fill="#6DB146" fill-rule="nonzero" points="5.09765625e-05 11.7107396 7.24778535 15.8825645 7.24778535 8.50276355"></polygon>
                            </g>
                        </g>
                        <g id="Ethereum_logo_2014" fill="none" transform="translate(89.500000, 39.000000)" fill-rule="evenodd" stroke-width="1">
                            <g id="Path">
                                <polygon fill="#FF9F94" fill-rule="nonzero" points="7.24779668 0 7.08948613 0.523980815 7.08948613 15.7286906 7.24779668 15.8825755 14.4956443 11.7106954"></polygon>
                                <polygon fill="#FFEA4C" fill-rule="nonzero" points="7.24784766 0 0 11.7106954 7.24784766 15.8826307 7.24784766 8.50271942"></polygon>
                                <polygon fill="#5B9EEF" fill-rule="nonzero" points="7.24779668 17.2189252 7.1585877 17.3248245 7.1585877 22.7410763 7.24779668 22.9948484 14.499949 13.049141"></polygon>
                                <polygon fill="#54D0E2" fill-rule="nonzero" points="7.24784766 22.9947712 7.24784766 17.218848 0 13.0490638"></polygon>
                                <polygon fill="#A161A6" fill-rule="nonzero" points="7.24779668 15.882559 14.4955311 11.7107341 7.24779668 8.50275803"></polygon>
                                <polygon fill="#6DB146" fill-rule="nonzero" points="5.09765625e-05 11.7107396 7.24778535 15.8825645 7.24778535 8.50276355"></polygon>
                            </g>
                        </g>
                        <g id="Ethereum_logo_2014" fill="none" transform="translate(77.000000, 13.500000)" fill-rule="evenodd" stroke-width="1">
                            <g id="Path">
                                <polygon fill="#FF9F94" fill-rule="nonzero" points="7.24779668 0 7.08948613 0.523980815 7.08948613 15.7286906 7.24779668 15.8825755 14.4956443 11.7106954"></polygon>
                                <polygon fill="#FFEA4C" fill-rule="nonzero" points="7.24784766 0 0 11.7106954 7.24784766 15.8826307 7.24784766 8.50271942"></polygon>
                                <polygon fill="#5B9EEF" fill-rule="nonzero" points="7.24779668 17.2189252 7.1585877 17.3248245 7.1585877 22.7410763 7.24779668 22.9948484 14.499949 13.049141"></polygon>
                                <polygon fill="#54D0E2" fill-rule="nonzero" points="7.24784766 22.9947712 7.24784766 17.218848 0 13.0490638"></polygon>
                                <polygon fill="#A161A6" fill-rule="nonzero" points="7.24779668 15.882559 14.4955311 11.7107341 7.24779668 8.50275803"></polygon>
                                <polygon fill="#6DB146" fill-rule="nonzero" points="5.09765625e-05 11.7107396 7.24778535 15.8825645 7.24778535 8.50276355"></polygon>
                            </g>
                        </g>
                        <g id="Ethereum_logo_2014" fill="none" transform="translate(56.000000, 0.000000)" fill-rule="evenodd" stroke-width="1">
                            <g id="Path">
                                <polygon fill="#FF9F94" fill-rule="nonzero" points="7.24779668 0 7.08948613 0.523980815 7.08948613 15.7286906 7.24779668 15.8825755 14.4956443 11.7106954"></polygon>
                                <polygon fill="#FFEA4C" fill-rule="nonzero" points="7.24784766 0 0 11.7106954 7.24784766 15.8826307 7.24784766 8.50271942"></polygon>
                                <polygon fill="#5B9EEF" fill-rule="nonzero" points="7.24779668 17.2189252 7.1585877 17.3248245 7.1585877 22.7410763 7.24779668 22.9948484 14.499949 13.049141"></polygon>
                                <polygon fill="#54D0E2" fill-rule="nonzero" points="7.24784766 22.9947712 7.24784766 17.218848 0 13.0490638"></polygon>
                                <polygon fill="#A161A6" fill-rule="nonzero" points="7.24779668 15.882559 14.4955311 11.7107341 7.24779668 8.50275803"></polygon>
                                <polygon fill="#6DB146" fill-rule="nonzero" points="5.09765625e-05 11.7107396 7.24778535 15.8825645 7.24778535 8.50276355"></polygon>
                            </g>
                        </g>
                        <g id="Ethereum_logo_2014" fill="none" transform="translate(56.000000, 33.500000)" fill-rule="evenodd" stroke-width="1">
                            <g id="Path">
                                <polygon fill="#FF9F94" fill-rule="nonzero" points="7.24779668 0 7.08948613 0.523980815 7.08948613 15.7286906 7.24779668 15.8825755 14.4956443 11.7106954"></polygon>
                                <polygon fill="#FFEA4C" fill-rule="nonzero" points="7.24784766 0 0 11.7106954 7.24784766 15.8826307 7.24784766 8.50271942"></polygon>
                                <polygon fill="#5B9EEF" fill-rule="nonzero" points="7.24779668 17.2189252 7.1585877 17.3248245 7.1585877 22.7410763 7.24779668 22.9948484 14.499949 13.049141"></polygon>
                                <polygon fill="#54D0E2" fill-rule="nonzero" points="7.24784766 22.9947712 7.24784766 17.218848 0 13.0490638"></polygon>
                                <polygon fill="#A161A6" fill-rule="nonzero" points="7.24779668 15.882559 14.4955311 11.7107341 7.24779668 8.50275803"></polygon>
                                <polygon fill="#6DB146" fill-rule="nonzero" points="5.09765625e-05 11.7107396 7.24778535 15.8825645 7.24778535 8.50276355"></polygon>
                            </g>
                        </g>
                        <g id="Ethereum_logo_2014" fill="none" transform="translate(27.000000, 27.000000)" fill-rule="evenodd" stroke-width="1">
                            <g id="Path">
                                <polygon fill="#FF9F94" fill-rule="nonzero" points="7.24779668 0 7.08948613 0.523980815 7.08948613 15.7286906 7.24779668 15.8825755 14.4956443 11.7106954"></polygon>
                                <polygon fill="#FFEA4C" fill-rule="nonzero" points="7.24784766 0 0 11.7106954 7.24784766 15.8826307 7.24784766 8.50271942"></polygon>
                                <polygon fill="#5B9EEF" fill-rule="nonzero" points="7.24779668 17.2189252 7.1585877 17.3248245 7.1585877 22.7410763 7.24779668 22.9948484 14.499949 13.049141"></polygon>
                                <polygon fill="#54D0E2" fill-rule="nonzero" points="7.24784766 22.9947712 7.24784766 17.218848 0 13.0490638"></polygon>
                                <polygon fill="#A161A6" fill-rule="nonzero" points="7.24779668 15.882559 14.4955311 11.7107341 7.24779668 8.50275803"></polygon>
                                <polygon fill="#6DB146" fill-rule="nonzero" points="5.09765625e-05 11.7107396 7.24778535 15.8825645 7.24778535 8.50276355"></polygon>
                            </g>
                        </g>
                        <g id="Ethereum_logo_2014" fill="none" transform="translate(29.000000, 54.000000)" fill-rule="evenodd" stroke-width="1">
                            <g id="Path">
                                <polygon fill="#FF9F94" fill-rule="nonzero" points="7.24779668 0 7.08948613 0.523980815 7.08948613 15.7286906 7.24779668 15.8825755 14.4956443 11.7106954"></polygon>
                                <polygon fill="#FFEA4C" fill-rule="nonzero" points="7.24784766 0 0 11.7106954 7.24784766 15.8826307 7.24784766 8.50271942"></polygon>
                                <polygon fill="#5B9EEF" fill-rule="nonzero" points="7.24779668 17.2189252 7.1585877 17.3248245 7.1585877 22.7410763 7.24779668 22.9948484 14.499949 13.049141"></polygon>
                                <polygon fill="#54D0E2" fill-rule="nonzero" points="7.24784766 22.9947712 7.24784766 17.218848 0 13.0490638"></polygon>
                                <polygon fill="#A161A6" fill-rule="nonzero" points="7.24779668 15.882559 14.4955311 11.7107341 7.24779668 8.50275803"></polygon>
                                <polygon fill="#6DB146" fill-rule="nonzero" points="5.09765625e-05 11.7107396 7.24778535 15.8825645 7.24778535 8.50276355"></polygon>
                            </g>
                        </g>
                    </g>
                </g>
            </g>
        </g>
    </g>
</svg>