<?xml version="1.0" standalone="no"?>
<!DOCTYPE svg PUBLIC "-//W3C//DTD SVG 20010904//EN"
 "http://www.w3.org/TR/2001/REC-SVG-20010904/DTD/svg10.dtd">
<svg version="1.0" xmlns="http://www.w3.org/2000/svg"
 width="300.000000pt" height="300.000000pt" viewBox="0 0 300.000000 300.000000"
 preserveAspectRatio="xMidYMid meet">
<metadata>
Created by potrace 1.15, written by Peter Selinger 2001-2017
</metadata>
<g transform="translate(0.000000,300.000000) scale(0.100000,-0.100000)"
fill="#6850ff" stroke="none">
<path d="M700 1495 l0 -795 195 0 195 0 0 600 0 600 600 0 600 0 0 195 0 195
-795 0 -795 0 0 -795z"/>
<path d="M1500 1295 l0 -195 200 0 200 0 0 -200 c0 -110 4 -200 8 -200 5 0 35
5 68 11 123 22 224 101 281 218 l28 56 3 253 3 252 -395 0 -396 0 0 -195z"/>
</g>
</svg>
