<?xml version="1.0" encoding="UTF-8"?>
<svg width="289px" height="156px" viewBox="0 0 289 156" version="1.1" xmlns="http://www.w3.org/2000/svg" xmlns:xlink="http://www.w3.org/1999/xlink">
    <!-- Generator: Sketch 63.1 (92452) - https://sketch.com -->
    <title>02</title>
    <desc>Created with Sketch.</desc>
    <defs>
        <rect id="path-1" x="0" y="0" width="289" height="156" rx="1"></rect>
        <rect id="path-3" x="0" y="0" width="85.5" height="116"></rect>
    </defs>
    <g id="Landing-Page-Update-+-Mobile" stroke="none" stroke-width="1" fill="none" fill-rule="evenodd">
        <g id="Landing-Copy-6" transform="translate(-455.000000, -3874.000000)">
            <g id="02" transform="translate(455.000000, 3874.000000)">
                <mask id="mask-2" fill="white">
                    <use xlink:href="#path-1"></use>
                </mask>
                <use id="bg" fill="#6C63FF" xlink:href="#path-1"></use>
                <path d="M95.1656874,-5.88016339 C106.44627,-16.0764846 124.155633,-18.1527108 140.273628,-17.3412789 C190.900996,-14.7914766 236.601743,9.97308023 276.132701,37.9862526 C290.443501,48.1277083 304.532718,59.0661576 313.830566,73.0222097 C332.742807,101.451205 327.131293,140.835975 300.837752,164.254883 C291.890984,172.22482 281.044935,178.332217 269.911115,183.749464 C250.11542,193.376917 228.760011,201.10429 206.288056,203.304686 C190.265025,204.872684 174.057821,203.593451 158.115365,201.410382 C113.611742,195.294322 69.9282623,181.774306 33.3124132,158.632613 C17.2462166,148.485382 2.10951698,135.869203 -4.509192,119.444203 C-11.127901,103.019203 -6.89192723,82.2251765 9.50520483,72.5082066 C16.2879427,68.4885863 24.3944223,66.675137 32.3339954,64.968531 C44.0203333,62.4620436 55.8908439,59.9873206 66.4376128,54.8877161 C77.3297056,49.6206276 90.2246773,39.4329694 88.0692803,27.7726055 C85.7556099,15.2719331 83.8994937,4.28439354 95.1656874,-5.88016339 Z" id="Path" fill="#FFFFFF" fill-rule="nonzero" opacity="0.2" style="mix-blend-mode: soft-light;" mask="url(#mask-2)"></path>
                <g id="illustration" mask="url(#mask-2)">
                    <g transform="translate(15.500000, 9.000000)">
                        <path d="M154.25331,144.499735 C119.786655,144.499735 90.1196131,120.152656 83.3953811,86.3481956 C76.6711491,52.5437356 94.7625219,18.6968168 126.605527,5.50688386 C158.448532,-7.68304909 195.174437,3.45758913 214.323122,32.1156222 C233.471806,60.7736554 229.710088,98.9674105 205.338486,123.339089 C191.819567,136.932177 173.424367,144.551792 154.25331,144.499735 L154.25331,144.499735 Z M154.25331,0.756729147 C114.82984,0.756729147 82.7564739,32.8301861 82.7564739,72.2537682 C82.7564739,111.67735 114.82984,143.750807 154.25331,143.750807 C193.67678,143.750807 225.750146,111.67735 225.750146,72.2537682 C225.750146,32.8301861 193.67678,0.756729147 154.25331,0.756729147 Z" id="Shape" stroke="none" fill="#3F3D56" fill-rule="nonzero"></path>
                        <ellipse id="Oval" stroke="none" fill="#3F3D56" fill-rule="nonzero" cx="129" cy="146.75" rx="129" ry="9.75"></ellipse>
                        <ellipse id="Oval" stroke="none" fill="#000000" fill-rule="nonzero" opacity="0.1" cx="92.75" cy="146.5" rx="87.25" ry="6.5"></ellipse>
                        <path d="M233.102809,133.659334 C232.27231,140.977106 236.74625,147.5 236.74625,147.5 C236.74625,147.5 242.566692,142.158438 243.397191,134.840666 C244.22769,127.522894 239.753752,121 239.753752,121 C239.753752,121 233.93331,126.341562 233.102809,133.659334 Z" id="Path" stroke="none" fill="#2F2E41" fill-rule="nonzero"></path>
                        <path d="M236.466705,133.400946 C239.452936,140.028365 237.157052,147.5 237.157052,147.5 C237.157052,147.5 230.019531,144.226469 227.033297,137.599054 C224.047063,130.971638 226.342947,123.5 226.342947,123.5 C226.342947,123.5 233.480471,126.773531 236.466705,133.400946 Z" id="Path" stroke="none" fill="#6058E5" fill-rule="nonzero"></path>
                        <circle id="Oval" stroke="none" fill="#F2F2F2" fill-rule="nonzero" cx="156" cy="118.5" r="28"></circle>
                        <rect id="Rectangle" stroke="none" fill="#6C63FF" fill-rule="nonzero" x="12.5" y="75.5" width="143.5" height="36"></rect>
                        <rect id="Rectangle" stroke="none" fill="#000000" fill-rule="nonzero" opacity="0.1" x="12.5" y="75.5" width="143.5" height="36"></rect>
                        <rect id="Rectangle" stroke="none" fill="#3F3D56" fill-rule="nonzero" x="154" y="25.5" width="4" height="4"></rect>
                        <rect id="Rectangle" stroke="none" fill="#3F3D56" fill-rule="nonzero" x="165.5" y="116.5" width="4" height="4"></rect>
                        <g id="Group-6" stroke="none" stroke-width="1" fill="none" fill-rule="evenodd" transform="translate(38.000000, 28.500000)">
                            <rect id="Rectangle" fill="#F2F2F2" fill-rule="nonzero" x="1.5" y="3" width="87.5" height="116"></rect>
                            <rect id="Rectangle" fill="#E0E2E5" fill-rule="nonzero" x="0" y="3" width="87.5" height="116"></rect>
                            <g id="CODE">
                                <mask id="mask-4" fill="white">
                                    <use xlink:href="#path-3"></use>
                                </mask>
                                <use id="Mask" fill="#F2F2F2" fill-rule="nonzero" xlink:href="#path-3"></use>
                                <g mask="url(#mask-4)" fill="#6C63FF" fill-rule="nonzero">
                                    <g transform="translate(9.407410, 23.567700)">
                                        <rect id="Rectangle" x="1" y="1" width="2.5" height="4"></rect>
                                        <rect id="Rectangle" x="9.5" y="0" width="2.5" height="4"></rect>
                                        <rect id="Rectangle" x="14" y="0" width="2.5" height="4"></rect>
                                        <rect id="Rectangle" x="14" y="12" width="2.5" height="4"></rect>
                                        <rect id="Rectangle" x="19" y="6" width="2.5" height="4"></rect>
                                        <rect id="Rectangle" x="19" y="12.5" width="2.5" height="4"></rect>
                                        <rect id="Rectangle" x="14" y="25" width="2.5" height="4.5"></rect>
                                        <rect id="Rectangle" x="19" y="32" width="2.5" height="4"></rect>
                                        <rect id="Rectangle" x="14" y="56.5" width="2.5" height="4"></rect>
                                        <rect id="Rectangle" x="9.5" y="32" width="2.5" height="4"></rect>
                                        <rect id="Rectangle" x="1" y="7.5" width="2.5" height="4"></rect>
                                        <rect id="Rectangle" x="1" y="70.5" width="2.5" height="4"></rect>
                                        <rect id="Rectangle" x="1" y="83.5" width="2.5" height="4.5"></rect>
                                        <rect id="Rectangle" x="1" y="90.5" width="2.5" height="4"></rect>
                                        <rect id="Rectangle" x="0" y="14.5" width="3.5" height="1"></rect>
                                        <rect id="Rectangle" x="13.5" y="20.5" width="3.5" height="1"></rect>
                                        <rect id="Rectangle" x="0" y="47" width="3.5" height="1"></rect>
                                        <rect id="Rectangle" x="0" y="52.5" width="3.5" height="1"></rect>
                                        <rect id="Rectangle" x="13.5" y="85" width="3.5" height="1"></rect>
                                        <polygon id="Path" points="1 19 1 19.999919 1.9998704 19.999919 1.9998704 22.000081 1 22.000081 1 23 3.5 23 3.5 19"></polygon>
                                        <polygon id="Path" points="9.5 12 9.5 12.999919 10.4998704 12.999919 10.4998704 15.000081 9.5 15.000081 9.5 16 12 16 12 12"></polygon>
                                        <polygon id="Path" points="19 18.5 19 19.500162 19.9998704 19.500162 19.9998704 21.500162 19 21.500162 19 22.5 21.5 22.5 21.5 18.5"></polygon>
                                        <polygon id="Path" points="19 38.5 19 39.499919 19.9998704 39.499919 19.9998704 41.500081 19 41.500081 19 42.5 21.5 42.5 21.5 38.5"></polygon>
                                        <polygon id="Path" points="19 45 19 46.000162 19.9998704 46.000162 19.9998704 48.000162 19 48.000162 19 49 21.5 49 21.5 45"></polygon>
                                        <polygon id="Path" points="19 24.5 19 25.6248178 19.9998704 25.6248178 19.9998704 27.8748178 19 27.8748178 19 29 21.5 29 21.5 24.5"></polygon>
                                        <polygon id="Path" points="14 6 14 7.000162 15.0000648 7.000162 15.0000648 8.999838 14 8.999838 14 10 16.5 10 16.5 6"></polygon>
                                        <rect id="Rectangle" x="14" y="38.5" width="2.5" height="4"></rect>
                                        <rect id="Rectangle" x="14" y="50.5" width="2.5" height="4"></rect>
                                        <polygon id="Path" points="14 44.5 14 45.499838 15.0000648 45.499838 15.0000648 47.499838 14 47.499838 14 48.5 16.5 48.5 16.5 44.5"></polygon>
                                        <polygon id="Path" points="9.5 18.5 9.5 19.500162 10.4998704 19.500162 10.4998704 21.500162 9.5 21.500162 9.5 22.5 12 22.5 12 18.5"></polygon>
                                        <polygon id="Path" points="9.5 25 9.5 26.1251822 10.4998704 26.1251822 10.4998704 28.3748178 9.5 28.3748178 9.5 29.5 12 29.5 12 25"></polygon>
                                        <rect id="Rectangle" x="9.5" y="45" width="2.5" height="4"></rect>
                                        <polygon id="Path" points="9.5 38.5 9.5 39.499919 10.4998704 39.499919 10.4998704 41.500081 9.5 41.500081 9.5 42.5 12 42.5 12 38.5"></polygon>
                                        <rect id="Rectangle" x="9.5" y="58" width="2.5" height="4"></rect>
                                        <polygon id="Path" points="9.5 51.5 9.5 52.499838 10.4998704 52.499838 10.4998704 54.499838 9.5 54.499838 9.5 55.5 12 55.5 12 51.5"></polygon>
                                        <rect id="Rectangle" x="9.5" y="71" width="2.5" height="4"></rect>
                                        <rect id="Rectangle" x="14" y="70" width="2.5" height="4"></rect>
                                        <polygon id="Path" points="9.5 64.5 9.5 65.500162 10.4998704 65.500162 10.4998704 67.500162 9.5 67.500162 9.5 68.5 12 68.5 12 64.5"></polygon>
                                        <polygon id="Path" points="19 64.5 19 65.500162 19.9998704 65.500162 19.9998704 67.500162 19 67.500162 19 68.5 21.5 68.5 21.5 64.5"></polygon>
                                        <rect id="Rectangle" x="45" y="6" width="2.5" height="4"></rect>
                                        <rect id="Rectangle" x="45" y="12.5" width="2.5" height="4"></rect>
                                        <rect id="Rectangle" x="45" y="32" width="2.5" height="4"></rect>
                                        <polygon id="Path" points="45 18.5 45 19.500162 46.0001944 19.500162 46.0001944 21.500162 45 21.500162 45 22.5 47.5 22.5 47.5 18.5"></polygon>
                                        <polygon id="Path" points="45 38.5 45 39.499919 46.0001944 39.499919 46.0001944 41.500081 45 41.500081 45 42.5 47.5 42.5 47.5 38.5"></polygon>
                                        <polygon id="Path" points="45 45 45 46.000162 46.0001944 46.000162 46.0001944 48.000162 45 48.000162 45 49 47.5 49 47.5 45"></polygon>
                                        <polygon id="Path" points="45 24.5 45 25.6248178 46.0001944 25.6248178 46.0001944 27.8748178 45 27.8748178 45 29 47.5 29 47.5 24.5"></polygon>
                                        <polygon id="Path" points="45 64.5 45 65.500162 46.0001944 65.500162 46.0001944 67.500162 45 67.500162 45 68.5 47.5 68.5 47.5 64.5"></polygon>
                                        <rect id="Rectangle" x="9.5" y="84" width="2.5" height="4.5"></rect>
                                        <rect id="Rectangle" x="14" y="76.5" width="2.5" height="4"></rect>
                                        <rect id="Rectangle" x="14" y="89.5" width="2.5" height="4"></rect>
                                        <polygon id="Path" points="9.5 77.5 9.5 78.499838 10.4998704 78.499838 10.4998704 80.499838 9.5 80.499838 9.5 81.5 12 81.5 12 77.5"></polygon>
                                        <rect id="Rectangle" x="37" y="0" width="2.5" height="4"></rect>
                                        <rect id="Rectangle" x="37" y="32" width="2.5" height="4"></rect>
                                        <polygon id="Path" points="37 12 37 12.999919 38.0001944 12.999919 38.0001944 15.000081 37 15.000081 37 16 39.5 16 39.5 12"></polygon>
                                        <polygon id="Path" points="37 18.5 37 19.500162 38.0001944 19.500162 38.0001944 21.500162 37 21.500162 37 22.5 39.5 22.5 39.5 18.5"></polygon>
                                        <polygon id="Path" points="37 25 37 26.1251822 38.0001944 26.1251822 38.0001944 28.3748178 37 28.3748178 37 29.5 39.5 29.5 39.5 25"></polygon>
                                        <rect id="Rectangle" x="37" y="45" width="2.5" height="4"></rect>
                                        <polygon id="Path" points="37 38.5 37 39.499919 38.0001944 39.499919 38.0001944 41.500081 37 41.500081 37 42.5 39.5 42.5 39.5 38.5"></polygon>
                                        <rect id="Rectangle" x="37" y="58" width="2.5" height="4"></rect>
                                        <polygon id="Path" points="37 51.5 37 52.499838 38.0001944 52.499838 38.0001944 54.499838 37 54.499838 37 55.5 39.5 55.5 39.5 51.5"></polygon>
                                        <rect id="Rectangle" x="37" y="71" width="2.5" height="4"></rect>
                                        <polygon id="Path" points="37 64.5 37 65.500162 38.0001944 65.500162 38.0001944 67.500162 37 67.500162 37 68.5 39.5 68.5 39.5 64.5"></polygon>
                                        <rect id="Rectangle" x="37" y="84" width="2.5" height="4.5"></rect>
                                        <polygon id="Path" points="37 77.5 37 78.499838 38.0001944 78.499838 38.0001944 80.499838 37 80.499838 37 81.5 39.5 81.5 39.5 77.5"></polygon>
                                        <rect id="Rectangle" x="49.5" y="0" width="2.5" height="4"></rect>
                                        <rect id="Rectangle" x="49.5" y="32" width="2.5" height="4"></rect>
                                        <polygon id="Path" points="49.5 12 49.5 12.999919 50.5001944 12.999919 50.5001944 15.000081 49.5 15.000081 49.5 16 52 16 52 12"></polygon>
                                        <polygon id="Path" points="49.5 18.5 49.5 19.500162 50.5001944 19.500162 50.5001944 21.500162 49.5 21.500162 49.5 22.5 52 22.5 52 18.5"></polygon>
                                        <polygon id="Path" points="49.5 25 49.5 26.1251822 50.5001944 26.1251822 50.5001944 28.3748178 49.5 28.3748178 49.5 29.5 52 29.5 52 25"></polygon>
                                        <rect id="Rectangle" x="49.5" y="45" width="2.5" height="4"></rect>
                                        <polygon id="Path" points="49.5 38.5 49.5 39.499919 50.5001944 39.499919 50.5001944 41.500081 49.5 41.500081 49.5 42.5 52 42.5 52 38.5"></polygon>
                                        <rect id="Rectangle" x="49.5" y="58" width="2.5" height="4"></rect>
                                        <polygon id="Path" points="49.5 51.5 49.5 52.499838 50.5001944 52.499838 50.5001944 54.499838 49.5 54.499838 49.5 55.5 52 55.5 52 51.5"></polygon>
                                        <rect id="Rectangle" x="49.5" y="71" width="2.5" height="4"></rect>
                                        <polygon id="Path" points="49.5 64.5 49.5 65.500162 50.5001944 65.500162 50.5001944 67.500162 49.5 67.500162 49.5 68.5 52 68.5 52 64.5"></polygon>
                                        <rect id="Rectangle" x="49.5" y="84" width="2.5" height="4.5"></rect>
                                        <polygon id="Path" points="49.5 77.5 49.5 78.499838 50.5001944 78.499838 50.5001944 80.499838 49.5 80.499838 49.5 81.5 52 81.5 52 77.5"></polygon>
                                        <polygon id="Path" points="1 32 1 32.999838 1.9998704 32.999838 1.9998704 34.999838 1 34.999838 1 36 3.5 36 3.5 32"></polygon>
                                        <polygon id="Path" points="1 57.5 1 58.499919 1.9998704 58.499919 1.9998704 60.500081 1 60.500081 1 61.5 3.5 61.5 3.5 57.5"></polygon>
                                        <polygon id="Path" points="1 64 1 65.000162 1.9998704 65.000162 1.9998704 67.000162 1 67.000162 1 68 3.5 68 3.5 64"></polygon>
                                        <polygon id="Path" points="1 77 1 77.999919 1.9998704 77.999919 1.9998704 80.000081 1 80.000081 1 81 3.5 81 3.5 77"></polygon>
                                        <rect id="Rectangle" x="27" y="1" width="2.5" height="4"></rect>
                                        <rect id="Rectangle" x="27" y="7.5" width="2.5" height="4"></rect>
                                        <rect id="Rectangle" x="26" y="14.5" width="3.5" height="1"></rect>
                                        <rect id="Rectangle" x="26" y="47" width="3.5" height="1"></rect>
                                        <rect id="Rectangle" x="26" y="52.5" width="3.5" height="1"></rect>
                                        <polygon id="Path" points="27 19 27 19.999919 27.9998704 19.999919 27.9998704 22.000081 27 22.000081 27 23 29.5 23 29.5 19"></polygon>
                                        <polygon id="Path" points="27 32 27 32.999838 27.9998704 32.999838 27.9998704 34.999838 27 34.999838 27 36 29.5 36 29.5 32"></polygon>
                                        <polygon id="Path" points="27 57.5 27 58.499919 27.9998704 58.499919 27.9998704 60.500081 27 60.500081 27 61.5 29.5 61.5 29.5 57.5"></polygon>
                                        <rect id="Rectangle" x="56" y="45" width="2.5" height="4"></rect>
                                        <rect id="Rectangle" x="56" y="51.5" width="2.5" height="4"></rect>
                                        <rect id="Rectangle" x="55" y="58.5" width="3.5" height="1"></rect>
                                        <rect id="Rectangle" x="55" y="91" width="3.5" height="1"></rect>
                                        <polygon id="Path" points="56 63 56 63.999838 56.9998704 63.999838 56.9998704 65.999838 56 65.999838 56 67 58.5 67 58.5 63"></polygon>
                                        <polygon id="Path" points="56 75.5 56 76.500162 56.9998704 76.500162 56.9998704 78.499838 56 78.499838 56 79.5 58.5 79.5 58.5 75.5"></polygon>
                                        <rect id="Rectangle" x="64" y="1" width="2.5" height="4"></rect>
                                        <rect id="Rectangle" x="72.5" y="0" width="2.5" height="4"></rect>
                                        <rect id="Rectangle" x="77" y="0" width="2.5" height="4"></rect>
                                        <rect id="Rectangle" x="77" y="12" width="2.5" height="4"></rect>
                                        <rect id="Rectangle" x="82" y="6" width="2.5" height="4"></rect>
                                        <rect id="Rectangle" x="82" y="12.5" width="2.5" height="4"></rect>
                                        <rect id="Rectangle" x="77" y="25" width="2.5" height="4.5"></rect>
                                        <rect id="Rectangle" x="82" y="32" width="2.5" height="4"></rect>
                                        <rect id="Rectangle" x="77" y="56.5" width="2.5" height="4"></rect>
                                        <rect id="Rectangle" x="72.5" y="32" width="2.5" height="4"></rect>
                                        <rect id="Rectangle" x="64" y="7.5" width="2.5" height="4"></rect>
                                        <rect id="Rectangle" x="64" y="70.5" width="2.5" height="4"></rect>
                                        <rect id="Rectangle" x="64" y="83.5" width="2.5" height="4.5"></rect>
                                        <rect id="Rectangle" x="64" y="90.5" width="2.5" height="4"></rect>
                                        <rect id="Rectangle" x="63" y="14.5" width="3.5" height="1"></rect>
                                        <rect id="Rectangle" x="76.5" y="20.5" width="3.5" height="1"></rect>
                                        <rect id="Rectangle" x="63" y="47" width="3.5" height="1"></rect>
                                        <rect id="Rectangle" x="63" y="52.5" width="3.5" height="1"></rect>
                                        <rect id="Rectangle" x="76.5" y="85" width="3.5" height="1"></rect>
                                        <polygon id="Path" points="64 19 64 19.999919 65.0001944 19.999919 65.0001944 22.000081 64 22.000081 64 23 66.5 23 66.5 19"></polygon>
                                        <polygon id="Path" points="72.5 12 72.5 12.999919 73.4998704 12.999919 73.4998704 15.000081 72.5 15.000081 72.5 16 75 16 75 12"></polygon>
                                        <polygon id="Path" points="82 18.5 82 19.500162 82.9998704 19.500162 82.9998704 21.500162 82 21.500162 82 22.5 84.5 22.5 84.5 18.5"></polygon>
                                        <polygon id="Path" points="82 38.5 82 39.499919 82.9998704 39.499919 82.9998704 41.500081 82 41.500081 82 42.5 84.5 42.5 84.5 38.5"></polygon>
                                        <polygon id="Path" points="82 45 82 46.000162 82.9998704 46.000162 82.9998704 48.000162 82 48.000162 82 49 84.5 49 84.5 45"></polygon>
                                        <polygon id="Path" points="82 24.5 82 25.6248178 82.9998704 25.6248178 82.9998704 27.8748178 82 27.8748178 82 29 84.5 29 84.5 24.5"></polygon>
                                        <polygon id="Path" points="77 6 77 7.000162 77.9998704 7.000162 77.9998704 8.999838 77 8.999838 77 10 79.5 10 79.5 6"></polygon>
                                        <rect id="Rectangle" x="77" y="38.5" width="2.5" height="4"></rect>
                                        <rect id="Rectangle" x="77" y="50.5" width="2.5" height="4"></rect>
                                        <polygon id="Path" points="77 44.5 77 45.499838 77.9998704 45.499838 77.9998704 47.499838 77 47.499838 77 48.5 79.5 48.5 79.5 44.5"></polygon>
                                        <polygon id="Path" points="72.5 18.5 72.5 19.500162 73.4998704 19.500162 73.4998704 21.500162 72.5 21.500162 72.5 22.5 75 22.5 75 18.5"></polygon>
                                        <polygon id="Path" points="72.5 25 72.5 26.1251822 73.4998704 26.1251822 73.4998704 28.3748178 72.5 28.3748178 72.5 29.5 75 29.5 75 25"></polygon>
                                        <rect id="Rectangle" x="72.5" y="45" width="2.5" height="4"></rect>
                                        <polygon id="Path" points="72.5 38.5 72.5 39.499919 73.4998704 39.499919 73.4998704 41.500081 72.5 41.500081 72.5 42.5 75 42.5 75 38.5"></polygon>
                                        <rect id="Rectangle" x="72.5" y="58" width="2.5" height="4"></rect>
                                        <polygon id="Path" points="72.5 51.5 72.5 52.499838 73.4998704 52.499838 73.4998704 54.499838 72.5 54.499838 72.5 55.5 75 55.5 75 51.5"></polygon>
                                        <rect id="Rectangle" x="72.5" y="71" width="2.5" height="4"></rect>
                                        <rect id="Rectangle" x="77" y="70" width="2.5" height="4"></rect>
                                        <polygon id="Path" points="72.5 64.5 72.5 65.500162 73.4998704 65.500162 73.4998704 67.500162 72.5 67.500162 72.5 68.5 75 68.5 75 64.5"></polygon>
                                        <polygon id="Path" points="82 64.5 82 65.500162 82.9998704 65.500162 82.9998704 67.500162 82 67.500162 82 68.5 84.5 68.5 84.5 64.5"></polygon>
                                        <rect id="Rectangle" x="108" y="6" width="2.5" height="4"></rect>
                                        <rect id="Rectangle" x="108" y="12.5" width="2.5" height="4"></rect>
                                        <rect id="Rectangle" x="108" y="32" width="2.5" height="4"></rect>
                                        <polygon id="Path" points="108 18.5 108 19.500162 108.99987 19.500162 108.99987 21.500162 108 21.500162 108 22.5 110.5 22.5 110.5 18.5"></polygon>
                                        <polygon id="Path" points="108 38.5 108 39.499919 108.99987 39.499919 108.99987 41.500081 108 41.500081 108 42.5 110.5 42.5 110.5 38.5"></polygon>
                                        <polygon id="Path" points="108 45 108 46.000162 108.99987 46.000162 108.99987 48.000162 108 48.000162 108 49 110.5 49 110.5 45"></polygon>
                                        <polygon id="Path" points="108 24.5 108 25.6248178 108.99987 25.6248178 108.99987 27.8748178 108 27.8748178 108 29 110.5 29 110.5 24.5"></polygon>
                                        <polygon id="Path" points="108 64.5 108 65.500162 108.99987 65.500162 108.99987 67.500162 108 67.500162 108 68.5 110.5 68.5 110.5 64.5"></polygon>
                                        <rect id="Rectangle" x="72.5" y="84" width="2.5" height="4.5"></rect>
                                        <rect id="Rectangle" x="77" y="76.5" width="2.5" height="4"></rect>
                                        <rect id="Rectangle" x="77" y="89.5" width="2.5" height="4"></rect>
                                        <polygon id="Path" points="72.5 77.5 72.5 78.499838 73.4998704 78.499838 73.4998704 80.499838 72.5 80.499838 72.5 81.5 75 81.5 75 77.5"></polygon>
                                        <rect id="Rectangle" x="100.5" y="0" width="2.5" height="4"></rect>
                                        <rect id="Rectangle" x="100.5" y="32" width="2.5" height="4"></rect>
                                        <polygon id="Path" points="100.5 12 100.5 12.999919 101.500194 12.999919 101.500194 15.000081 100.5 15.000081 100.5 16 103 16 103 12"></polygon>
                                        <polygon id="Path" points="100.5 18.5 100.5 19.500162 101.500194 19.500162 101.500194 21.500162 100.5 21.500162 100.5 22.5 103 22.5 103 18.5"></polygon>
                                        <polygon id="Path" points="100.5 25 100.5 26.1251822 101.500194 26.1251822 101.500194 28.3748178 100.5 28.3748178 100.5 29.5 103 29.5 103 25"></polygon>
                                        <rect id="Rectangle" x="100.5" y="45" width="2.5" height="4"></rect>
                                        <polygon id="Path" points="100.5 38.5 100.5 39.499919 101.500194 39.499919 101.500194 41.500081 100.5 41.500081 100.5 42.5 103 42.5 103 38.5"></polygon>
                                        <rect id="Rectangle" x="100.5" y="58" width="2.5" height="4"></rect>
                                        <polygon id="Path" points="100.5 51.5 100.5 52.499838 101.500194 52.499838 101.500194 54.499838 100.5 54.499838 100.5 55.5 103 55.5 103 51.5"></polygon>
                                        <rect id="Rectangle" x="100.5" y="71" width="2.5" height="4"></rect>
                                        <polygon id="Path" points="100.5 64.5 100.5 65.500162 101.500194 65.500162 101.500194 67.500162 100.5 67.500162 100.5 68.5 103 68.5 103 64.5"></polygon>
                                        <rect id="Rectangle" x="100.5" y="84" width="2.5" height="4.5"></rect>
                                        <polygon id="Path" points="100.5 77.5 100.5 78.499838 101.500194 78.499838 101.500194 80.499838 100.5 80.499838 100.5 81.5 103 81.5 103 77.5"></polygon>
                                        <rect id="Rectangle" x="112.5" y="0" width="2.5" height="4"></rect>
                                        <rect id="Rectangle" x="112.5" y="32" width="2.5" height="4"></rect>
                                        <polygon id="Path" points="112.5 12 112.5 12.999919 113.500194 12.999919 113.500194 15.000081 112.5 15.000081 112.5 16 115 16 115 12"></polygon>
                                        <polygon id="Path" points="112.5 18.5 112.5 19.500162 113.500194 19.500162 113.500194 21.500162 112.5 21.500162 112.5 22.5 115 22.5 115 18.5"></polygon>
                                        <polygon id="Path" points="112.5 25 112.5 26.1251822 113.500194 26.1251822 113.500194 28.3748178 112.5 28.3748178 112.5 29.5 115 29.5 115 25"></polygon>
                                        <rect id="Rectangle" x="112.5" y="45" width="2.5" height="4"></rect>
                                        <polygon id="Path" points="112.5 38.5 112.5 39.499919 113.500194 39.499919 113.500194 41.500081 112.5 41.500081 112.5 42.5 115 42.5 115 38.5"></polygon>
                                        <rect id="Rectangle" x="112.5" y="58" width="2.5" height="4"></rect>
                                        <polygon id="Path" points="112.5 51.5 112.5 52.499838 113.500194 52.499838 113.500194 54.499838 112.5 54.499838 112.5 55.5 115 55.5 115 51.5"></polygon>
                                        <rect id="Rectangle" x="112.5" y="71" width="2.5" height="4"></rect>
                                        <polygon id="Path" points="112.5 64.5 112.5 65.500162 113.500194 65.500162 113.500194 67.500162 112.5 67.500162 112.5 68.5 115 68.5 115 64.5"></polygon>
                                        <rect id="Rectangle" x="112.5" y="84" width="2.5" height="4.5"></rect>
                                        <polygon id="Path" points="112.5 77.5 112.5 78.499838 113.500194 78.499838 113.500194 80.499838 112.5 80.499838 112.5 81.5 115 81.5 115 77.5"></polygon>
                                        <polygon id="Path" points="64 32 64 32.999838 65.0001944 32.999838 65.0001944 34.999838 64 34.999838 64 36 66.5 36 66.5 32"></polygon>
                                        <polygon id="Path" points="64 57.5 64 58.499919 65.0001944 58.499919 65.0001944 60.500081 64 60.500081 64 61.5 66.5 61.5 66.5 57.5"></polygon>
                                        <polygon id="Path" points="64 64 64 65.000162 65.0001944 65.000162 65.0001944 67.000162 64 67.000162 64 68 66.5 68 66.5 64"></polygon>
                                        <polygon id="Path" points="64 77 64 77.999919 65.0001944 77.999919 65.0001944 80.000081 64 80.000081 64 81 66.5 81 66.5 77"></polygon>
                                        <rect id="Rectangle" x="90" y="1" width="2.5" height="4"></rect>
                                        <rect id="Rectangle" x="90" y="7.5" width="2.5" height="4"></rect>
                                        <rect id="Rectangle" x="89" y="14.5" width="3.5" height="1"></rect>
                                        <rect id="Rectangle" x="89" y="47" width="3.5" height="1"></rect>
                                        <rect id="Rectangle" x="89" y="52.5" width="3.5" height="1"></rect>
                                        <polygon id="Path" points="90 19 90 19.999919 91.0001944 19.999919 91.0001944 22.000081 90 22.000081 90 23 92.5 23 92.5 19"></polygon>
                                        <polygon id="Path" points="90 32 90 32.999838 91.0001944 32.999838 91.0001944 34.999838 90 34.999838 90 36 92.5 36 92.5 32"></polygon>
                                        <polygon id="Path" points="90 57.5 90 58.499919 91.0001944 58.499919 91.0001944 60.500081 90 60.500081 90 61.5 92.5 61.5 92.5 57.5"></polygon>
                                        <rect id="Rectangle" x="119" y="45" width="2.5" height="4"></rect>
                                        <rect id="Rectangle" x="119" y="51.5" width="2.5" height="4"></rect>
                                        <rect id="Rectangle" x="118" y="58.5" width="3.5" height="1"></rect>
                                        <rect id="Rectangle" x="118" y="91" width="3.5" height="1"></rect>
                                        <polygon id="Path" points="119 63 119 63.999838 120.000194 63.999838 120.000194 65.999838 119 65.999838 119 67 121.5 67 121.5 63"></polygon>
                                        <polygon id="Path" points="119 75.5 119 76.500162 120.000194 76.500162 120.000194 78.499838 119 78.499838 119 79.5 121.5 79.5 121.5 75.5"></polygon>
                                        <rect id="Rectangle" x="127" y="1" width="2.5" height="4"></rect>
                                        <rect id="Rectangle" x="135.5" y="0" width="2.5" height="4"></rect>
                                        <rect id="Rectangle" x="140" y="0" width="2.5" height="4"></rect>
                                        <rect id="Rectangle" x="140" y="12" width="2.5" height="4"></rect>
                                        <rect id="Rectangle" x="145" y="6" width="2.5" height="4"></rect>
                                        <rect id="Rectangle" x="145" y="12.5" width="2.5" height="4"></rect>
                                        <rect id="Rectangle" x="140" y="25" width="2.5" height="4.5"></rect>
                                        <rect id="Rectangle" x="145" y="32" width="2.5" height="4"></rect>
                                        <rect id="Rectangle" x="140" y="56.5" width="2.5" height="4"></rect>
                                        <rect id="Rectangle" x="135.5" y="32" width="2.5" height="4"></rect>
                                        <rect id="Rectangle" x="127" y="7.5" width="2.5" height="4"></rect>
                                        <rect id="Rectangle" x="127" y="70.5" width="2.5" height="4"></rect>
                                        <rect id="Rectangle" x="127" y="83.5" width="2.5" height="4.5"></rect>
                                        <rect id="Rectangle" x="127" y="90.5" width="2.5" height="4"></rect>
                                        <rect id="Rectangle" x="126" y="14.5" width="3.5" height="1"></rect>
                                        <rect id="Rectangle" x="139.5" y="20.5" width="3.5" height="1"></rect>
                                        <rect id="Rectangle" x="126" y="47" width="3.5" height="1"></rect>
                                        <rect id="Rectangle" x="126" y="52.5" width="3.5" height="1"></rect>
                                        <rect id="Rectangle" x="139.5" y="85" width="3.5" height="1"></rect>
                                        <polygon id="Path" points="127 19 127 19.999919 128.000065 19.999919 128.000065 22.000081 127 22.000081 127 23 129.5 23 129.5 19"></polygon>
                                        <polygon id="Path" points="135.5 12 135.5 12.999919 136.49987 12.999919 136.49987 15.000081 135.5 15.000081 135.5 16 138 16 138 12"></polygon>
                                        <polygon id="Path" points="145 18.5 145 19.500162 145.99987 19.500162 145.99987 21.500162 145 21.500162 145 22.5 147.5 22.5 147.5 18.5"></polygon>
                                        <polygon id="Path" points="145 38.5 145 39.499919 145.99987 39.499919 145.99987 41.500081 145 41.500081 145 42.5 147.5 42.5 147.5 38.5"></polygon>
                                        <polygon id="Path" points="145 45 145 46.000162 145.99987 46.000162 145.99987 48.000162 145 48.000162 145 49 147.5 49 147.5 45"></polygon>
                                        <polygon id="Path" points="145 24.5 145 25.6248178 145.99987 25.6248178 145.99987 27.8748178 145 27.8748178 145 29 147.5 29 147.5 24.5"></polygon>
                                        <polygon id="Path" points="140 6 140 7.000162 140.99987 7.000162 140.99987 8.999838 140 8.999838 140 10 142.5 10 142.5 6"></polygon>
                                        <rect id="Rectangle" x="140" y="38.5" width="2.5" height="4"></rect>
                                        <rect id="Rectangle" x="140" y="50.5" width="2.5" height="4"></rect>
                                        <polygon id="Path" points="140 44.5 140 45.499838 140.99987 45.499838 140.99987 47.499838 140 47.499838 140 48.5 142.5 48.5 142.5 44.5"></polygon>
                                        <polygon id="Path" points="135.5 18.5 135.5 19.500162 136.49987 19.500162 136.49987 21.500162 135.5 21.500162 135.5 22.5 138 22.5 138 18.5"></polygon>
                                        <polygon id="Path" points="135.5 25 135.5 26.1251822 136.49987 26.1251822 136.49987 28.3748178 135.5 28.3748178 135.5 29.5 138 29.5 138 25"></polygon>
                                        <rect id="Rectangle" x="135.5" y="45" width="2.5" height="4"></rect>
                                        <polygon id="Path" points="135.5 38.5 135.5 39.499919 136.49987 39.499919 136.49987 41.500081 135.5 41.500081 135.5 42.5 138 42.5 138 38.5"></polygon>
                                        <rect id="Rectangle" x="135.5" y="58" width="2.5" height="4"></rect>
                                        <polygon id="Path" points="135.5 51.5 135.5 52.499838 136.49987 52.499838 136.49987 54.499838 135.5 54.499838 135.5 55.5 138 55.5 138 51.5"></polygon>
                                        <rect id="Rectangle" x="135.5" y="71" width="2.5" height="4"></rect>
                                        <rect id="Rectangle" x="140" y="70" width="2.5" height="4"></rect>
                                        <polygon id="Path" points="135.5 64.5 135.5 65.500162 136.49987 65.500162 136.49987 67.500162 135.5 67.500162 135.5 68.5 138 68.5 138 64.5"></polygon>
                                        <polygon id="Path" points="145 64.5 145 65.500162 145.99987 65.500162 145.99987 67.500162 145 67.500162 145 68.5 147.5 68.5 147.5 64.5"></polygon>
                                        <rect id="Rectangle" x="171" y="6" width="2.5" height="4"></rect>
                                        <rect id="Rectangle" x="171" y="12.5" width="2.5" height="4"></rect>
                                        <rect id="Rectangle" x="171" y="32" width="2.5" height="4"></rect>
                                        <polygon id="Path" points="171 18.5 171 19.500162 171.99987 19.500162 171.99987 21.500162 171 21.500162 171 22.5 173.5 22.5 173.5 18.5"></polygon>
                                        <polygon id="Path" points="171 38.5 171 39.499919 171.99987 39.499919 171.99987 41.500081 171 41.500081 171 42.5 173.5 42.5 173.5 38.5"></polygon>
                                        <polygon id="Path" points="171 45 171 46.000162 171.99987 46.000162 171.99987 48.000162 171 48.000162 171 49 173.5 49 173.5 45"></polygon>
                                        <polygon id="Path" points="171 24.5 171 25.6248178 171.99987 25.6248178 171.99987 27.8748178 171 27.8748178 171 29 173.5 29 173.5 24.5"></polygon>
                                        <polygon id="Path" points="171 64.5 171 65.500162 171.99987 65.500162 171.99987 67.500162 171 67.500162 171 68.5 173.5 68.5 173.5 64.5"></polygon>
                                        <rect id="Rectangle" x="135.5" y="84" width="2.5" height="4.5"></rect>
                                        <rect id="Rectangle" x="140" y="76.5" width="2.5" height="4"></rect>
                                        <rect id="Rectangle" x="140" y="89.5" width="2.5" height="4"></rect>
                                        <polygon id="Path" points="135.5 77.5 135.5 78.499838 136.49987 78.499838 136.49987 80.499838 135.5 80.499838 135.5 81.5 138 81.5 138 77.5"></polygon>
                                        <rect id="Rectangle" x="163.5" y="0" width="2.5" height="4"></rect>
                                        <rect id="Rectangle" x="163.5" y="32" width="2.5" height="4"></rect>
                                        <polygon id="Path" points="163.5 12 163.5 12.999919 164.49987 12.999919 164.49987 15.000081 163.5 15.000081 163.5 16 166 16 166 12"></polygon>
                                        <polygon id="Path" points="163.5 18.5 163.5 19.500162 164.49987 19.500162 164.49987 21.500162 163.5 21.500162 163.5 22.5 166 22.5 166 18.5"></polygon>
                                        <polygon id="Path" points="163.5 25 163.5 26.1251822 164.49987 26.1251822 164.49987 28.3748178 163.5 28.3748178 163.5 29.5 166 29.5 166 25"></polygon>
                                        <rect id="Rectangle" x="163.5" y="45" width="2.5" height="4"></rect>
                                        <polygon id="Path" points="163.5 38.5 163.5 39.499919 164.49987 39.499919 164.49987 41.500081 163.5 41.500081 163.5 42.5 166 42.5 166 38.5"></polygon>
                                        <rect id="Rectangle" x="163.5" y="58" width="2.5" height="4"></rect>
                                        <polygon id="Path" points="163.5 51.5 163.5 52.499838 164.49987 52.499838 164.49987 54.499838 163.5 54.499838 163.5 55.5 166 55.5 166 51.5"></polygon>
                                        <rect id="Rectangle" x="163.5" y="71" width="2.5" height="4"></rect>
                                        <polygon id="Path" points="163.5 64.5 163.5 65.500162 164.49987 65.500162 164.49987 67.500162 163.5 67.500162 163.5 68.5 166 68.5 166 64.5"></polygon>
                                        <rect id="Rectangle" x="163.5" y="84" width="2.5" height="4.5"></rect>
                                        <polygon id="Path" points="163.5 77.5 163.5 78.499838 164.49987 78.499838 164.49987 80.499838 163.5 80.499838 163.5 81.5 166 81.5 166 77.5"></polygon>
                                        <rect id="Rectangle" x="175.5" y="0" width="2.5" height="4"></rect>
                                        <rect id="Rectangle" x="175.5" y="32" width="2.5" height="4"></rect>
                                        <polygon id="Path" points="175.5 12 175.5 12.999919 176.49987 12.999919 176.49987 15.000081 175.5 15.000081 175.5 16 178 16 178 12"></polygon>
                                        <polygon id="Path" points="175.5 18.5 175.5 19.500162 176.49987 19.500162 176.49987 21.500162 175.5 21.500162 175.5 22.5 178 22.5 178 18.5"></polygon>
                                        <polygon id="Path" points="175.5 25 175.5 26.1251822 176.49987 26.1251822 176.49987 28.3748178 175.5 28.3748178 175.5 29.5 178 29.5 178 25"></polygon>
                                        <rect id="Rectangle" x="175.5" y="45" width="2.5" height="4"></rect>
                                        <polygon id="Path" points="175.5 38.5 175.5 39.499919 176.49987 39.499919 176.49987 41.500081 175.5 41.500081 175.5 42.5 178 42.5 178 38.5"></polygon>
                                        <rect id="Rectangle" x="175.5" y="58" width="2.5" height="4"></rect>
                                        <polygon id="Path" points="175.5 51.5 175.5 52.499838 176.49987 52.499838 176.49987 54.499838 175.5 54.499838 175.5 55.5 178 55.5 178 51.5"></polygon>
                                        <rect id="Rectangle" x="175.5" y="71" width="2.5" height="4"></rect>
                                        <polygon id="Path" points="175.5 64.5 175.5 65.500162 176.49987 65.500162 176.49987 67.500162 175.5 67.500162 175.5 68.5 178 68.5 178 64.5"></polygon>
                                        <rect id="Rectangle" x="175.5" y="84" width="2.5" height="4.5"></rect>
                                        <polygon id="Path" points="175.5 77.5 175.5 78.499838 176.49987 78.499838 176.49987 80.499838 175.5 80.499838 175.5 81.5 178 81.5 178 77.5"></polygon>
                                        <polygon id="Path" points="127 32 127 32.999838 128.000065 32.999838 128.000065 34.999838 127 34.999838 127 36 129.5 36 129.5 32"></polygon>
                                        <polygon id="Path" points="127 57.5 127 58.499919 128.000065 58.499919 128.000065 60.500081 127 60.500081 127 61.5 129.5 61.5 129.5 57.5"></polygon>
                                        <polygon id="Path" points="127 64 127 65.000162 128.000065 65.000162 128.000065 67.000162 127 67.000162 127 68 129.5 68 129.5 64"></polygon>
                                        <polygon id="Path" points="127 77 127 77.999919 128.000065 77.999919 128.000065 80.000081 127 80.000081 127 81 129.5 81 129.5 77"></polygon>
                                        <rect id="Rectangle" x="153" y="1" width="2.5" height="4"></rect>
                                        <rect id="Rectangle" x="153" y="7.5" width="2.5" height="4"></rect>
                                        <rect id="Rectangle" x="152" y="14.5" width="3.5" height="1"></rect>
                                        <rect id="Rectangle" x="152" y="47" width="3.5" height="1"></rect>
                                        <rect id="Rectangle" x="152" y="52.5" width="3.5" height="1"></rect>
                                        <polygon id="Path" points="153 19 153 19.999919 154.000194 19.999919 154.000194 22.000081 153 22.000081 153 23 155.5 23 155.5 19"></polygon>
                                        <polygon id="Path" points="153 32 153 32.999838 154.000194 32.999838 154.000194 34.999838 153 34.999838 153 36 155.5 36 155.5 32"></polygon>
                                        <polygon id="Path" points="153 57.5 153 58.499919 154.000194 58.499919 154.000194 60.500081 153 60.500081 153 61.5 155.5 61.5 155.5 57.5"></polygon>
                                        <rect id="Rectangle" x="182" y="45" width="2.5" height="4"></rect>
                                        <rect id="Rectangle" x="182" y="51.5" width="2.5" height="4"></rect>
                                        <rect id="Rectangle" x="181" y="58.5" width="3.5" height="1"></rect>
                                        <rect id="Rectangle" x="181" y="91" width="3.5" height="1"></rect>
                                        <polygon id="Path" points="182 63 182 63.999838 183.000194 63.999838 183.000194 65.999838 182 65.999838 182 67 184.5 67 184.5 63"></polygon>
                                        <polygon id="Path" points="182 75.5 182 76.500162 183.000194 76.500162 183.000194 78.499838 182 78.499838 182 79.5 184.5 79.5 184.5 75.5"></polygon>
                                    </g>
                                </g>
                            </g>
                            <rect id="Rectangle" fill="#3F3D56" fill-rule="nonzero" x="30.5" y="10.5" width="27" height="4"></rect>
                            <path d="M22.5,8.3 C22.5,5.66 20.3625,3.5 17.75,3.5 C15.1375,3.5 13,5.66 13,8.3 C13,10.28 14.1875,12.02 15.96875,12.74 L15.96875,19.7 C15.96875,19.88 16.028125,20 16.146875,20.12 L17.334375,21.32 C17.453125,21.44 17.63125,21.5 17.75,21.5 C17.86875,21.5 17.928125,21.5 18.046875,21.44 L20.421875,20.24 C20.6,20.12 20.71875,19.94 20.71875,19.7 L20.71875,17.9 C20.71875,17.6 20.421875,17.3 20.125,17.3 L19.53125,17.3 L19.53125,12.74 C21.3125,12.02 22.5,10.28 22.5,8.3 Z M16,8.25 C16,7.25833333 16.7583333,6.5 17.75,6.5 C18.7416667,6.5 19.5,7.25833333 19.5,8.25 C19.5,9.18333333 18.7416667,10 17.75,10 C16.7583333,10 16,9.18333333 16,8.25 Z" id="Shape-Copy-7" fill="#3F3D56" fill-rule="nonzero" transform="translate(17.750000, 12.500000) rotate(90.000000) translate(-17.750000, -12.500000) "></path>
                        </g>
                        <polygon id="Path" stroke="none" fill="#3F3D56" fill-rule="nonzero" points="156 147.5 12.5 147.5 12.5 75.5 31.0827787 89.9689377 138.105352 89.27981 156 75.5"></polygon>
                        <rect id="Rectangle" stroke="none" fill="#F2F2F2" fill-rule="nonzero" x="20" y="130.5" width="27" height="4"></rect>
                        <path d="M34,123.5 C32.3431458,123.5 31,122.156854 31,120.5 C31,118.843146 32.3431458,117.5 34,117.5 C35.6568542,117.5 37,118.843146 37,120.5 C36.9981057,122.156069 35.656069,123.498106 34,123.5 L34,123.5 Z M34,118 C32.6192881,118 31.5,119.119288 31.5,120.5 C31.5,121.880712 32.6192881,123 34,123 C35.3807119,123 36.5,121.880712 36.5,120.5 C36.4984652,119.119924 35.3800756,118.001535 34,118 L34,118 Z" id="Shape" stroke="none" fill="#FFFFFF" fill-rule="nonzero"></path>
                        <path d="M212,31.4666667 C212,19.66 202.325,10 190.5,10 C178.675,10 169,19.66 169,31.4666667 C169,40.3216667 174.375,48.1033333 182.4375,51.3233333 L182.4375,82.45 C182.4375,83.255 182.70625,83.7916667 183.24375,84.3283333 L188.61875,89.695 C189.15625,90.2316667 189.9625,90.5 190.5,90.5 C191.0375,90.5 191.30625,90.5 191.84375,90.2316667 L202.59375,84.865 C203.4,84.3283333 203.9375,83.5233333 203.9375,82.45 L203.9375,74.4 C203.9375,73.0583333 202.59375,71.7166667 201.25,71.7166667 L198.5625,71.7166667 L198.5625,51.3233333 C206.625,48.1033333 212,40.3216667 212,31.4666667 Z M182.5,32 C182.5,27.4666667 185.858333,24 190.25,24 C194.641667,24 198,27.4666667 198,32 C198,36.2666667 194.641667,40 190.25,40 C185.858333,40 182.5,36.2666667 182.5,32 Z" id="Shape" stroke="#766DFF" stroke-width="5" fill="#3F3D56" fill-rule="nonzero" transform="translate(190.500000, 50.250000) rotate(90.000000) translate(-190.500000, -50.250000) "></path>
                        <path d="M240,64.8 C240,54.46 231.5625,46 221.25,46 C210.9375,46 202.5,54.46 202.5,64.8 C202.5,72.555 207.1875,79.37 214.21875,82.19 L214.21875,109.45 C214.21875,110.155 214.453125,110.625 214.921875,111.095 L219.609375,115.795 C220.078125,116.265 220.78125,116.5 221.25,116.5 C221.71875,116.5 221.953125,116.5 222.421875,116.265 L231.796875,111.565 C232.5,111.095 232.96875,110.39 232.96875,109.45 L232.96875,102.4 C232.96875,101.225 231.796875,100.05 230.625,100.05 L228.28125,100.05 L228.28125,82.19 C235.3125,79.37 240,72.555 240,64.8 Z M214.5,65 C214.5,61.0333333 217.425,58 221.25,58 C225.075,58 228,61.0333333 228,65 C228,68.7333333 225.075,72 221.25,72 C217.425,72 214.5,68.7333333 214.5,65 Z" id="Shape-Copy-6" stroke="#766DFF" stroke-width="3" fill="#3F3D56" fill-rule="nonzero" transform="translate(221.250000, 81.250000) rotate(90.000000) translate(-221.250000, -81.250000) "></path>
                    </g>
                </g>
            </g>
        </g>
    </g>
</svg>