<svg width="240" height="119" viewBox="0 0 240 119" fill="none" xmlns="http://www.w3.org/2000/svg">
<g opacity="0.434105">
<path d="M215.992 22.5L215.5 24.1825V73.0059L215.992 73.5L238.5 60.1038L215.992 22.5Z" fill="#464B4F"/>
<path d="M216 22.5L193.5 60.1037L216 73.5V49.8027V22.5Z" fill="#B5B5B5"/>
<path d="M216.029 77.7065L215.75 78.0419V95.1963L216.029 96L238.75 64.5L216.029 77.7065Z" fill="#7D7D7D"/>
<path d="M216 96V77.7065L193.5 64.5L216 96Z" fill="#B5B5B5"/>
<path d="M216 73.5L238.5 60.2154L216 50V73.5Z" fill="#303236"/>
<path d="M193.5 60.2154L216 73.5V50L193.5 60.2154Z" fill="#4D5257"/>
</g>
<path d="M159.977 39.8424V48.0219C159.977 48.1848 159.953 48.3361 159.918 48.4757C159.756 49.2785 159.046 49.8836 158.208 49.8836H124.78C123.884 49.8836 123.14 49.1971 123.046 48.3244C123.023 48.2197 123.023 48.1266 123.023 48.0103V39.8307C123.023 38.865 123.814 38.0854 124.768 38.0854C125.246 38.0854 125.688 38.2832 126.002 38.5974C126.316 38.9115 126.514 39.3537 126.514 39.8307V46.3814H156.498V39.8307C156.498 38.865 157.289 38.0854 158.243 38.0854C158.72 38.0854 159.162 38.2832 159.476 38.5974C159.779 38.9232 159.977 39.3653 159.977 39.8424Z" fill="#1C82C1"/>
<path d="M151.564 22.2152L142.989 13.64C142.978 13.6168 142.954 13.6051 142.943 13.5935C142.629 13.2793 142.221 13.0815 141.814 13.0234C141.779 13.0234 141.744 13.0117 141.709 13.0117C141.64 13.0001 141.57 13.0001 141.5 13.0001L141.302 13.0117C141.267 13.0117 141.232 13.0234 141.197 13.0234C140.779 13.0815 140.383 13.2793 140.069 13.5935C140.057 13.6051 140.034 13.6284 140.022 13.64L131.447 22.2152C131.052 22.6108 130.854 23.1344 130.854 23.658C130.854 24.1815 131.052 24.7051 131.447 25.1007C132.238 25.8919 133.53 25.8919 134.333 25.1007L139.487 19.9463V38.8303C139.487 39.9473 140.406 40.8665 141.523 40.8665C142.082 40.8665 142.594 40.6338 142.966 40.2731C143.338 39.9007 143.559 39.4004 143.559 38.8303V19.9463L148.714 25.1007C149.505 25.8919 150.797 25.8919 151.599 25.1007C152.356 24.2979 152.356 23.0064 151.564 22.2152Z" fill="#1C82C1"/>
<path d="M182.5 62.75H95.5" stroke="#1C82C1" stroke-width="4" stroke-linecap="round" stroke-linejoin="round" stroke-dasharray="6.5"/>
<path d="M131.02 72.1113V76.7305C131.02 77.5801 130.827 78.2295 130.443 78.6787C130.059 79.1247 129.504 79.3477 128.778 79.3477C128.069 79.3477 127.528 79.1263 127.157 78.6836C126.786 78.2376 126.601 77.5801 126.601 76.7109V72.1113H127.919V76.8086C127.919 77.7168 128.22 78.1709 128.822 78.1709C129.102 78.1709 129.319 78.0553 129.472 77.8242C129.625 77.5931 129.701 77.2643 129.701 76.8379V72.1113H131.02ZM136.042 74.3086C136.042 75.0671 135.85 75.6497 135.466 76.0566C135.085 76.4603 134.534 76.6621 133.811 76.6621H133.479V79.25H132.151V72.1113H133.962C135.349 72.1113 136.042 72.8438 136.042 74.3086ZM133.479 75.5098H133.733C134.058 75.5098 134.301 75.4202 134.46 75.2412C134.62 75.0622 134.7 74.7692 134.7 74.3623C134.7 73.988 134.626 73.7113 134.48 73.5322C134.333 73.3499 134.107 73.2588 133.801 73.2588H133.479V75.5098ZM136.841 79.25V72.1113H138.17V78.0879H140.01V79.25H136.841ZM145.673 75.6709C145.673 76.8525 145.451 77.7607 145.009 78.3955C144.566 79.0303 143.933 79.3477 143.109 79.3477C142.283 79.3477 141.648 79.0319 141.205 78.4004C140.762 77.7656 140.541 76.8525 140.541 75.6611C140.541 74.4795 140.762 73.5745 141.205 72.9463C141.648 72.3148 142.286 71.999 143.119 71.999C143.943 71.999 144.574 72.3164 145.014 72.9512C145.453 73.5827 145.673 74.4893 145.673 75.6709ZM141.898 75.6709C141.898 76.4847 142.001 77.1048 142.206 77.5312C142.411 77.9577 142.712 78.1709 143.109 78.1709C143.91 78.1709 144.311 77.3376 144.311 75.6709C144.311 74.0042 143.913 73.1709 143.119 73.1709C142.715 73.1709 142.411 73.3841 142.206 73.8105C142.001 74.2337 141.898 74.8538 141.898 75.6709ZM149.993 79.25L149.582 77.4482H147.722L147.312 79.25H145.984L147.751 72.082H149.553L151.326 79.25H149.993ZM149.333 76.2715L148.952 74.6113C148.93 74.5104 148.878 74.2581 148.796 73.8545C148.718 73.4476 148.671 73.1758 148.655 73.0391C148.612 73.319 148.559 73.6283 148.493 73.9668C148.428 74.3021 148.259 75.0703 147.986 76.2715H149.333ZM156.392 75.6123C156.392 76.7907 156.151 77.6924 155.67 78.3174C155.191 78.9391 154.501 79.25 153.599 79.25H151.851V72.1113H153.76C154.59 72.1113 155.237 72.4189 155.699 73.0342C156.161 73.6462 156.392 74.5055 156.392 75.6123ZM155.03 75.6514C155.03 74.0563 154.59 73.2588 153.712 73.2588H153.179V78.0879H153.609C154.094 78.0879 154.452 77.8861 154.683 77.4824C154.914 77.0755 155.03 76.4652 155.03 75.6514Z" fill="#1C82C1"/>
<g clip-path="url(#clip0)">
<rect width="85.5" height="116" fill="#F2F0F5" stroke="#E2E3E9"/>
<mask id="mask0" mask-type="alpha" maskUnits="userSpaceOnUse" x="0" y="0" width="82" height="113">
<rect width="81.5" height="112.5" fill="white"/>
</mask>
<g mask="url(#mask0)">
<rect x="10.4075" y="24.5676" width="2.5" height="4" fill="#BBBDCB"/>
<rect x="18.9075" y="23.5676" width="2.5" height="4" fill="#BBBDCB"/>
<rect x="23.4075" y="23.5676" width="2.5" height="4" fill="#BBBDCB"/>
<rect x="23.4075" y="35.5676" width="2.5" height="4" fill="#BBBDCB"/>
<rect x="28.4075" y="29.5676" width="2.5" height="4" fill="#BBBDCB"/>
<rect x="28.4075" y="36.0676" width="2.5" height="4" fill="#BBBDCB"/>
<rect x="23.4075" y="48.5676" width="2.5" height="4.5" fill="#BBBDCB"/>
<rect x="28.4075" y="55.5676" width="2.5" height="4" fill="#BBBDCB"/>
<rect x="23.4075" y="80.0676" width="2.5" height="4" fill="#BBBDCB"/>
<rect x="18.9075" y="55.5676" width="2.5" height="4" fill="#BBBDCB"/>
<rect x="10.4075" y="31.0676" width="2.5" height="4" fill="#BBBDCB"/>
<rect x="10.4075" y="94.0676" width="2.5" height="4" fill="#BBBDCB"/>
<rect x="10.4075" y="107.068" width="2.5" height="4.5" fill="#BBBDCB"/>
<rect x="9.40747" y="38.0676" width="3.5" height="0.5" fill="#BBBDCB"/>
<rect x="22.9075" y="44.0676" width="3.5" height="0.5" fill="#BBBDCB"/>
<rect x="9.40747" y="70.5676" width="3.5" height="0.5" fill="#BBBDCB"/>
<rect x="9.40747" y="76.0676" width="3.5" height="0.5" fill="#BBBDCB"/>
<rect x="22.9075" y="108.568" width="3.5" height="0.5" fill="#BBBDCB"/>
<path d="M10.4075 42.5676V43.5675H11.4073V45.5677H10.4075V46.5676H12.9075V42.5676H10.4075Z" fill="#BBBDCB"/>
<path d="M18.9075 35.5676V36.5675H19.9073V38.5677H18.9075V39.5676H21.4075V35.5676H18.9075Z" fill="#BBBDCB"/>
<path d="M28.4075 42.0676V43.0678H29.4073V45.0678H28.4075V46.0676H30.9075V42.0676H28.4075Z" fill="#BBBDCB"/>
<path d="M28.4075 62.0676V63.0675H29.4073V65.0677H28.4075V66.0676H30.9075V62.0676H28.4075Z" fill="#BBBDCB"/>
<path d="M28.4075 68.5676V69.5678H29.4073V71.5678H28.4075V72.5676H30.9075V68.5676H28.4075Z" fill="#BBBDCB"/>
<path d="M28.4075 48.0676V49.1924H29.4073V51.4424H28.4075V52.5676H30.9075V48.0676H28.4075Z" fill="#BBBDCB"/>
<path d="M23.4075 29.5676V30.5678H24.4075V32.5675H23.4075V33.5676H25.9075V29.5676H23.4075Z" fill="#BBBDCB"/>
<rect x="23.4075" y="62.0676" width="2.5" height="4" fill="#BBBDCB"/>
<rect x="23.4075" y="74.0676" width="2.5" height="4" fill="#BBBDCB"/>
<path d="M23.4075 68.0676V69.0675H24.4075V71.0675H23.4075V72.0676H25.9075V68.0676H23.4075Z" fill="#BBBDCB"/>
<path d="M18.9075 42.0676V43.0678H19.9073V45.0678H18.9075V46.0676H21.4075V42.0676H18.9075Z" fill="#BBBDCB"/>
<path d="M18.9075 48.5676V49.6928H19.9073V51.9424H18.9075V53.0676H21.4075V48.5676H18.9075Z" fill="#BBBDCB"/>
<rect x="18.9075" y="68.5676" width="2.5" height="4" fill="#BBBDCB"/>
<path d="M18.9075 62.0676V63.0675H19.9073V65.0677H18.9075V66.0676H21.4075V62.0676H18.9075Z" fill="#BBBDCB"/>
<rect x="18.9075" y="81.5676" width="2.5" height="4" fill="#BBBDCB"/>
<path d="M18.9075 75.0676V76.0675H19.9073V78.0675H18.9075V79.0676H21.4075V75.0676H18.9075Z" fill="#BBBDCB"/>
<rect x="18.9075" y="94.5676" width="2.5" height="4" fill="#BBBDCB"/>
<rect x="23.4075" y="93.5676" width="2.5" height="4" fill="#BBBDCB"/>
<path d="M18.9075 88.0676V89.0678H19.9073V91.0678H18.9075V92.0676H21.4075V88.0676H18.9075Z" fill="#BBBDCB"/>
<path d="M28.4075 88.0676V89.0678H29.4073V91.0678H28.4075V92.0676H30.9075V88.0676H28.4075Z" fill="#BBBDCB"/>
<rect x="54.4075" y="29.5676" width="2.5" height="4" fill="#BBBDCB"/>
<rect x="54.4075" y="36.0676" width="2.5" height="4" fill="#BBBDCB"/>
<rect x="54.4075" y="55.5676" width="2.5" height="4" fill="#BBBDCB"/>
<path d="M54.4075 42.0676V43.0678H55.4077V45.0678H54.4075V46.0676H56.9075V42.0676H54.4075Z" fill="#BBBDCB"/>
<path d="M54.4075 62.0676V63.0675H55.4077V65.0677H54.4075V66.0676H56.9075V62.0676H54.4075Z" fill="#BBBDCB"/>
<path d="M54.4075 68.5676V69.5678H55.4077V71.5678H54.4075V72.5676H56.9075V68.5676H54.4075Z" fill="#BBBDCB"/>
<path d="M54.4075 48.0676V49.1924H55.4077V51.4424H54.4075V52.5676H56.9075V48.0676H54.4075Z" fill="#BBBDCB"/>
<path d="M54.4075 88.0676V89.0678H55.4077V91.0678H54.4075V92.0676H56.9075V88.0676H54.4075Z" fill="#BBBDCB"/>
<rect x="18.9075" y="107.568" width="2.5" height="4.5" fill="#BBBDCB"/>
<rect x="23.4075" y="100.068" width="2.5" height="4" fill="#BBBDCB"/>
<path d="M18.9075 101.068V102.067H19.9073V104.067H18.9075V105.068H21.4075V101.068H18.9075Z" fill="#BBBDCB"/>
<rect x="46.4075" y="23.5676" width="2.5" height="4" fill="#BBBDCB"/>
<rect x="46.4075" y="55.5676" width="2.5" height="4" fill="#BBBDCB"/>
<path d="M46.4075 35.5676V36.5675H47.4077V38.5677H46.4075V39.5676H48.9075V35.5676H46.4075Z" fill="#BBBDCB"/>
<path d="M46.4075 42.0676V43.0678H47.4077V45.0678H46.4075V46.0676H48.9075V42.0676H46.4075Z" fill="#BBBDCB"/>
<path d="M46.4075 48.5676V49.6928H47.4077V51.9424H46.4075V53.0676H48.9075V48.5676H46.4075Z" fill="#BBBDCB"/>
<rect x="46.4075" y="68.5676" width="2.5" height="4" fill="#BBBDCB"/>
<path d="M46.4075 62.0676V63.0675H47.4077V65.0677H46.4075V66.0676H48.9075V62.0676H46.4075Z" fill="#BBBDCB"/>
<rect x="46.4075" y="81.5676" width="2.5" height="4" fill="#BBBDCB"/>
<path d="M46.4075 75.0676V76.0675H47.4077V78.0675H46.4075V79.0676H48.9075V75.0676H46.4075Z" fill="#BBBDCB"/>
<rect x="46.4075" y="94.5676" width="2.5" height="4" fill="#BBBDCB"/>
<path d="M46.4075 88.0676V89.0678H47.4077V91.0678H46.4075V92.0676H48.9075V88.0676H46.4075Z" fill="#BBBDCB"/>
<rect x="46.4075" y="107.568" width="2.5" height="4.5" fill="#BBBDCB"/>
<path d="M46.4075 101.068V102.067H47.4077V104.067H46.4075V105.068H48.9075V101.068H46.4075Z" fill="#BBBDCB"/>
<rect x="58.9075" y="23.5676" width="2.5" height="4" fill="#BBBDCB"/>
<rect x="58.9075" y="55.5676" width="2.5" height="4" fill="#BBBDCB"/>
<path d="M58.9075 35.5676V36.5675H59.9077V38.5677H58.9075V39.5676H61.4075V35.5676H58.9075Z" fill="#BBBDCB"/>
<path d="M58.9075 42.0676V43.0678H59.9077V45.0678H58.9075V46.0676H61.4075V42.0676H58.9075Z" fill="#BBBDCB"/>
<path d="M58.9075 48.5676V49.6928H59.9077V51.9424H58.9075V53.0676H61.4075V48.5676H58.9075Z" fill="#BBBDCB"/>
<rect x="58.9075" y="68.5676" width="2.5" height="4" fill="#BBBDCB"/>
<path d="M58.9075 62.0676V63.0675H59.9077V65.0677H58.9075V66.0676H61.4075V62.0676H58.9075Z" fill="#BBBDCB"/>
<rect x="58.9075" y="81.5676" width="2.5" height="4" fill="#BBBDCB"/>
<path d="M58.9075 75.0676V76.0675H59.9077V78.0675H58.9075V79.0676H61.4075V75.0676H58.9075Z" fill="#BBBDCB"/>
<rect x="58.9075" y="94.5676" width="2.5" height="4" fill="#BBBDCB"/>
<path d="M58.9075 88.0676V89.0678H59.9077V91.0678H58.9075V92.0676H61.4075V88.0676H58.9075Z" fill="#BBBDCB"/>
<rect x="58.9075" y="107.568" width="2.5" height="4.5" fill="#BBBDCB"/>
<path d="M58.9075 101.068V102.067H59.9077V104.067H58.9075V105.068H61.4075V101.068H58.9075Z" fill="#BBBDCB"/>
<path d="M10.4075 55.5676V56.5675H11.4073V58.5675H10.4075V59.5676H12.9075V55.5676H10.4075Z" fill="#BBBDCB"/>
<path d="M10.4075 81.0676V82.0675H11.4073V84.0677H10.4075V85.0676H12.9075V81.0676H10.4075Z" fill="#BBBDCB"/>
<path d="M10.4075 87.5676V88.5678H11.4073V90.5678H10.4075V91.5676H12.9075V87.5676H10.4075Z" fill="#BBBDCB"/>
<path d="M10.4075 100.568V101.568H11.4073V103.568H10.4075V104.568H12.9075V100.568H10.4075Z" fill="#BBBDCB"/>
<rect x="36.4075" y="24.5676" width="2.5" height="4" fill="#BBBDCB"/>
<rect x="36.4075" y="31.0676" width="2.5" height="4" fill="#BBBDCB"/>
<rect x="35.4075" y="38.0676" width="3.5" height="0.5" fill="#BBBDCB"/>
<rect x="35.4075" y="70.5676" width="3.5" height="0.5" fill="#BBBDCB"/>
<rect x="35.4075" y="76.0676" width="3.5" height="0.5" fill="#BBBDCB"/>
<path d="M36.4075 42.5676V43.5675H37.4073V45.5677H36.4075V46.5676H38.9075V42.5676H36.4075Z" fill="#BBBDCB"/>
<path d="M36.4075 55.5676V56.5675H37.4073V58.5675H36.4075V59.5676H38.9075V55.5676H36.4075Z" fill="#BBBDCB"/>
<path d="M36.4075 81.0676V82.0675H37.4073V84.0677H36.4075V85.0676H38.9075V81.0676H36.4075Z" fill="#BBBDCB"/>
<rect x="65.4075" y="68.5676" width="2.5" height="4" fill="#BBBDCB"/>
<rect x="65.4075" y="75.0676" width="2.5" height="4" fill="#BBBDCB"/>
<rect x="64.4075" y="82.0676" width="3.5" height="0.5" fill="#BBBDCB"/>
<path d="M65.4075 86.5676V87.5675H66.4073V89.5675H65.4075V90.5676H67.9075V86.5676H65.4075Z" fill="#BBBDCB"/>
<path d="M65.4075 99.0676V100.068H66.4073V102.067H65.4075V103.068H67.9075V99.0676H65.4075Z" fill="#BBBDCB"/>
<rect x="73.4075" y="24.5676" width="2.5" height="4" fill="#BBBDCB"/>
<rect x="73.4075" y="31.0676" width="2.5" height="4" fill="#BBBDCB"/>
<rect x="73.4075" y="94.0676" width="2.5" height="4" fill="#BBBDCB"/>
<rect x="73.4075" y="107.068" width="2.5" height="4.5" fill="#BBBDCB"/>
<rect x="72.4075" y="38.0676" width="3.5" height="0.5" fill="#BBBDCB"/>
<rect x="72.4075" y="70.5676" width="3.5" height="0.5" fill="#BBBDCB"/>
<rect x="72.4075" y="76.0676" width="3.5" height="0.5" fill="#BBBDCB"/>
<path d="M73.4075 42.5676V43.5675H74.4077V45.5677H73.4075V46.5676H75.9075V42.5676H73.4075Z" fill="#BBBDCB"/>
<path d="M73.4075 55.5676V56.5675H74.4077V58.5675H73.4075V59.5676H75.9075V55.5676H73.4075Z" fill="#BBBDCB"/>
<path d="M73.4075 81.0676V82.0675H74.4077V84.0677H73.4075V85.0676H75.9075V81.0676H73.4075Z" fill="#BBBDCB"/>
<path d="M73.4075 87.5676V88.5678H74.4077V90.5678H73.4075V91.5676H75.9075V87.5676H73.4075Z" fill="#BBBDCB"/>
<path d="M73.4075 100.568V101.568H74.4077V103.568H73.4075V104.568H75.9075V100.568H73.4075Z" fill="#BBBDCB"/>
</g>
<path fill-rule="evenodd" clip-rule="evenodd" d="M26.75 12.5C26.75 15.1125 24.59 17.25 21.95 17.25C19.97 17.25 18.23 16.0625 17.51 14.2812H12.95V14.875C12.95 15.1719 12.65 15.4688 12.35 15.4688H10.55C10.31 15.4688 10.13 15.35 10.01 15.1719L8.81 12.7969C8.75 12.6781 8.75 12.6188 8.75 12.5C8.75 12.3812 8.81 12.2031 8.93 12.0844L10.13 10.8969C10.25 10.7781 10.37 10.7188 10.55 10.7188H17.51C18.23 8.9375 19.97 7.75 21.95 7.75C24.59 7.75 26.75 9.8875 26.75 12.5ZM23.75 12.5C23.75 11.5083 22.9917 10.75 22 10.75C21.0667 10.75 20.25 11.5083 20.25 12.5C20.25 13.4917 21.0667 14.25 22 14.25C22.9917 14.25 23.75 13.4917 23.75 12.5Z" fill="#2C3A49"/>
<path d="M17.51 14.2812L18.4371 13.9065L18.1844 13.2812H17.51V14.2812ZM12.95 14.2812V13.2812H11.95V14.2812H12.95ZM10.01 15.1719L9.11746 15.6228L9.14568 15.6787L9.18065 15.7306L10.01 15.1719ZM8.81 12.7969L7.91746 13.2478L7.91746 13.2478L8.81 12.7969ZM8.93 12.0844L9.63339 12.7952L9.6334 12.7952L8.93 12.0844ZM10.13 10.8969L9.42661 10.1861L9.4266 10.1861L10.13 10.8969ZM17.51 10.7188V11.7188H18.1844L18.4371 11.0935L17.51 10.7188ZM21.95 18.25C25.1324 18.25 27.75 15.6746 27.75 12.5H25.75C25.75 14.5504 24.0476 16.25 21.95 16.25V18.25ZM16.5829 14.656C17.4564 16.817 19.5645 18.25 21.95 18.25V16.25C20.3755 16.25 19.0036 15.308 18.4371 13.9065L16.5829 14.656ZM12.95 15.2812H17.51V13.2812H12.95V15.2812ZM13.95 14.875V14.2812H11.95V14.875H13.95ZM12.35 16.4688C12.8215 16.4688 13.212 16.2452 13.4659 15.994C13.7191 15.7434 13.95 15.3524 13.95 14.875H11.95C11.95 14.6945 12.0309 14.6003 12.0591 14.5724C12.088 14.5438 12.1785 14.4688 12.35 14.4688V16.4688ZM10.55 16.4688H12.35V14.4688H10.55V16.4688ZM9.18065 15.7306C9.4564 16.1399 9.92688 16.4688 10.55 16.4688V14.4688C10.6018 14.4688 10.6698 14.4834 10.7349 14.521C10.7958 14.5562 10.8276 14.5958 10.8394 14.6131L9.18065 15.7306ZM7.91746 13.2478L9.11746 15.6228L10.9025 14.7209L9.70254 12.3459L7.91746 13.2478ZM7.75 12.5C7.75 12.5395 7.74738 12.672 7.77139 12.8145C7.7996 12.982 7.8545 13.1232 7.91746 13.2478L9.70254 12.3459C9.70255 12.3459 9.70443 12.3496 9.70741 12.3565C9.71044 12.3635 9.71463 12.3738 9.71923 12.3869C9.7292 12.4154 9.73783 12.448 9.74361 12.4824C9.74906 12.5147 9.75004 12.5373 9.75018 12.5409C9.75024 12.5424 9.75014 12.5406 9.75008 12.5331C9.75001 12.5251 9.75 12.5158 9.75 12.5H7.75ZM8.22661 11.3736C7.90546 11.6914 7.75 12.1306 7.75 12.5H9.75C9.75 12.5513 9.74393 12.5883 9.73936 12.6097C9.73447 12.6327 9.72844 12.6513 9.72212 12.6669C9.71149 12.6932 9.68787 12.7413 9.63339 12.7952L8.22661 11.3736ZM9.4266 10.1861L8.2266 11.3736L9.6334 12.7952L10.8334 11.6077L9.4266 10.1861ZM10.55 9.71875C10.3447 9.71875 10.129 9.75375 9.9149 9.8479C9.70487 9.94028 9.54608 10.0678 9.42661 10.1861L10.8334 11.6077C10.8339 11.6072 10.7951 11.6457 10.7201 11.6787C10.641 11.7134 10.5753 11.7188 10.55 11.7188V9.71875ZM17.51 9.71875H10.55V11.7188H17.51V9.71875ZM21.95 6.75C19.5645 6.75 17.4564 8.18296 16.5829 10.344L18.4371 11.0935C19.0036 9.69204 20.3755 8.75 21.95 8.75V6.75ZM27.75 12.5C27.75 9.32537 25.1324 6.75 21.95 6.75V8.75C24.0476 8.75 25.75 10.4496 25.75 12.5H27.75ZM22 11.75C22.4394 11.75 22.75 12.0606 22.75 12.5H24.75C24.75 10.956 23.544 9.75 22 9.75V11.75ZM21.25 12.5C21.25 12.0822 21.5972 11.75 22 11.75V9.75C20.5362 9.75 19.25 10.9345 19.25 12.5H21.25ZM22 13.25C21.5972 13.25 21.25 12.9178 21.25 12.5H19.25C19.25 14.0655 20.5362 15.25 22 15.25V13.25ZM22.75 12.5C22.75 12.9394 22.4394 13.25 22 13.25V15.25C23.544 15.25 24.75 14.044 24.75 12.5H22.75Z" fill="#F2F2F2"/>
<path d="M31.2842 17.5879C30.833 17.5879 30.4771 17.3652 30.2163 16.9199C29.9556 16.4746 29.8252 15.855 29.8252 15.061C29.8252 14.2642 29.9526 13.6401 30.2075 13.189C30.4624 12.7378 30.814 12.5122 31.2622 12.5122C31.4849 12.5122 31.6768 12.5679 31.8379 12.6792C32.002 12.7876 32.1528 12.9722 32.2905 13.2329H32.3608C32.3257 12.7876 32.3081 12.4756 32.3081 12.2969V10.6621H33.4771V17.5H32.6069L32.4092 16.8628H32.3696C32.1206 17.3462 31.7588 17.5879 31.2842 17.5879ZM31.6621 16.5991C31.8789 16.5991 32.0371 16.501 32.1367 16.3047C32.2363 16.1055 32.2905 15.7451 32.2993 15.2236V15.0698C32.2993 14.5015 32.248 14.1016 32.1455 13.8701C32.0459 13.6387 31.8804 13.5229 31.6489 13.5229C31.4321 13.5229 31.2739 13.6562 31.1743 13.9229C31.0776 14.1865 31.0293 14.5718 31.0293 15.0786C31.0293 15.5854 31.0791 15.9663 31.1787 16.2212C31.2783 16.4731 31.4395 16.5991 31.6621 16.5991ZM36.1738 17.5879C35.5615 17.5879 35.0781 17.3711 34.7236 16.9375C34.3721 16.501 34.1963 15.8843 34.1963 15.0874C34.1963 14.2788 34.356 13.6475 34.6753 13.1934C34.9946 12.7393 35.4399 12.5122 36.0112 12.5122C36.5444 12.5122 36.9648 12.707 37.2725 13.0967C37.5801 13.4834 37.7339 14.0269 37.7339 14.7271V15.3511H35.3828C35.3916 15.7876 35.481 16.1128 35.6509 16.3267C35.8208 16.5376 36.0552 16.6431 36.354 16.6431C36.7349 16.6431 37.1245 16.5244 37.5229 16.2871V17.2495C37.1479 17.4751 36.6982 17.5879 36.1738 17.5879ZM36.0024 13.4131C35.8354 13.4131 35.6978 13.5024 35.5894 13.6812C35.481 13.8569 35.418 14.1309 35.4004 14.5029H36.5869C36.5811 14.1455 36.5269 13.8745 36.4243 13.6899C36.3218 13.5054 36.1812 13.4131 36.0024 13.4131ZM40.5977 17.5879C40.3867 17.5879 40.1992 17.541 40.0352 17.4473C39.874 17.3506 39.7231 17.1821 39.5825 16.9419H39.521C39.5679 17.3403 39.5913 17.5806 39.5913 17.6626V19.6621H38.4136V12.6045H39.3188L39.521 13.2417H39.5737C39.8169 12.7554 40.1699 12.5122 40.6328 12.5122C41.0781 12.5122 41.4268 12.7334 41.6787 13.1758C41.9307 13.6152 42.0566 14.2378 42.0566 15.0435C42.0566 15.8374 41.9263 16.46 41.6655 16.9111C41.4048 17.3623 41.0488 17.5879 40.5977 17.5879ZM40.2373 13.5054C40.0088 13.5054 39.8433 13.6123 39.7407 13.8262C39.6411 14.0371 39.5884 14.3887 39.5825 14.8809V15.0347C39.5825 15.5737 39.6338 15.9663 39.7363 16.2124C39.8389 16.4585 40.0088 16.5815 40.2461 16.5815C40.6562 16.5815 40.8613 16.063 40.8613 15.0259C40.8613 14.5161 40.8101 14.1353 40.7075 13.8833C40.6079 13.6313 40.4512 13.5054 40.2373 13.5054ZM46.4102 15.0435C46.4102 15.8462 46.2402 16.4717 45.9004 16.9199C45.5605 17.3652 45.0947 17.5879 44.5029 17.5879C44.1279 17.5879 43.7969 17.4854 43.5098 17.2803C43.2227 17.0752 43.0015 16.7808 42.8462 16.397C42.6909 16.0103 42.6133 15.5591 42.6133 15.0435C42.6133 14.2495 42.7817 13.6299 43.1187 13.1846C43.4556 12.7363 43.9229 12.5122 44.5205 12.5122C45.0977 12.5122 45.5562 12.7407 45.896 13.1978C46.2388 13.6519 46.4102 14.2671 46.4102 15.0435ZM43.8086 15.0435C43.8086 15.5532 43.8643 15.9385 43.9756 16.1992C44.0869 16.46 44.2656 16.5903 44.5117 16.5903C44.9805 16.5903 45.2148 16.0747 45.2148 15.0435C45.2148 14.5308 45.1577 14.1484 45.0435 13.8965C44.9321 13.6416 44.7549 13.5142 44.5117 13.5142C44.2656 13.5142 44.0869 13.6416 43.9756 13.8965C43.8643 14.1484 43.8086 14.5308 43.8086 15.0435ZM49.7661 16.0674C49.7661 16.5449 49.6255 16.9185 49.3442 17.188C49.0659 17.4546 48.6543 17.5879 48.1094 17.5879C47.626 17.5879 47.2261 17.4927 46.9097 17.3022V16.2871C47.0708 16.3984 47.2583 16.4907 47.4722 16.564C47.689 16.6372 47.8794 16.6738 48.0435 16.6738C48.2251 16.6738 48.3628 16.6299 48.4565 16.542C48.5532 16.4512 48.6016 16.3325 48.6016 16.186C48.6016 16.0366 48.5518 15.9062 48.4521 15.7949C48.3525 15.6836 48.1694 15.5474 47.9028 15.3862C47.5483 15.1753 47.2935 14.9512 47.1382 14.7139C46.9858 14.4736 46.9097 14.1909 46.9097 13.8657C46.9097 13.4497 47.0518 13.1201 47.3359 12.877C47.623 12.6338 48.0156 12.5122 48.5137 12.5122C48.9473 12.5122 49.356 12.6265 49.7397 12.855L49.3574 13.6943C49.0439 13.5244 48.7686 13.4395 48.5312 13.4395C48.3818 13.4395 48.269 13.479 48.1929 13.5581C48.1196 13.6372 48.083 13.7339 48.083 13.8481C48.083 13.98 48.1284 14.0972 48.2192 14.1997C48.313 14.3022 48.4858 14.4297 48.7378 14.582C49.0425 14.7666 49.2563 14.9233 49.3794 15.0522C49.5024 15.1812 49.5977 15.3276 49.665 15.4917C49.7324 15.6558 49.7661 15.8477 49.7661 16.0674ZM51.5884 17.5H50.4194V12.6045H51.5884V17.5ZM50.3711 11.3257C50.3711 11.1323 50.4268 10.98 50.5381 10.8687C50.6523 10.7544 50.8105 10.6973 51.0127 10.6973C51.2031 10.6973 51.3555 10.7544 51.4697 10.8687C51.584 10.98 51.6411 11.1323 51.6411 11.3257C51.6411 11.5249 51.5825 11.6802 51.4653 11.7915C51.3481 11.8999 51.1973 11.9541 51.0127 11.9541C50.8193 11.9541 50.6641 11.8999 50.5469 11.7915C50.4297 11.6802 50.3711 11.5249 50.3711 11.3257ZM54.1973 16.5991C54.3613 16.5991 54.5386 16.5581 54.729 16.4761V17.3901C54.5386 17.522 54.2529 17.5879 53.8721 17.5879C53.4473 17.5879 53.1323 17.4619 52.9272 17.21C52.7222 16.9551 52.6196 16.5742 52.6196 16.0674V13.5317H52.145V13.0088L52.7559 12.5869L53.0547 11.5498H53.8018V12.6045H54.6895V13.5317H53.8018V16.1069C53.8018 16.4351 53.9336 16.5991 54.1973 16.5991ZM55.312 16.8979C55.312 16.6694 55.3721 16.4922 55.4922 16.3662C55.6152 16.2402 55.7969 16.1772 56.0371 16.1772C56.2773 16.1772 56.459 16.2402 56.582 16.3662C56.7051 16.4893 56.7666 16.6665 56.7666 16.8979C56.7666 17.1265 56.7021 17.3037 56.5732 17.4297C56.4473 17.5557 56.2686 17.6187 56.0371 17.6187C55.7998 17.6187 55.6196 17.5557 55.4966 17.4297C55.3735 17.3008 55.312 17.1235 55.312 16.8979ZM57.7422 16.8979C57.7422 16.6694 57.8022 16.4922 57.9224 16.3662C58.0454 16.2402 58.2271 16.1772 58.4673 16.1772C58.7075 16.1772 58.8892 16.2402 59.0122 16.3662C59.1353 16.4893 59.1968 16.6665 59.1968 16.8979C59.1968 17.1265 59.1323 17.3037 59.0034 17.4297C58.8774 17.5557 58.6987 17.6187 58.4673 17.6187C58.23 17.6187 58.0498 17.5557 57.9268 17.4297C57.8037 17.3008 57.7422 17.1235 57.7422 16.8979ZM60.1724 16.8979C60.1724 16.6694 60.2324 16.4922 60.3525 16.3662C60.4756 16.2402 60.6572 16.1772 60.8975 16.1772C61.1377 16.1772 61.3193 16.2402 61.4424 16.3662C61.5654 16.4893 61.627 16.6665 61.627 16.8979C61.627 17.1265 61.5625 17.3037 61.4336 17.4297C61.3076 17.5557 61.1289 17.6187 60.8975 17.6187C60.6602 17.6187 60.48 17.5557 60.3569 17.4297C60.2339 17.3008 60.1724 17.1235 60.1724 16.8979ZM62.377 19.6621C62.1309 19.6621 61.9272 19.6255 61.7661 19.5522V18.5811C61.9009 18.6338 62.0269 18.6602 62.144 18.6602C62.4194 18.6602 62.5571 18.4111 62.5571 17.9131V12.6045H63.7261V18.0669C63.7261 18.5767 63.6074 18.9692 63.3701 19.2446C63.1357 19.5229 62.8047 19.6621 62.377 19.6621ZM62.5132 11.3257C62.5132 11.1323 62.5688 10.98 62.6802 10.8687C62.7944 10.7544 62.9512 10.6973 63.1504 10.6973C63.3467 10.6973 63.5005 10.7544 63.6118 10.8687C63.7231 10.9829 63.7788 11.1353 63.7788 11.3257C63.7788 11.522 63.7217 11.6758 63.6074 11.7871C63.4932 11.8984 63.3408 11.9541 63.1504 11.9541C62.96 11.9541 62.8062 11.8999 62.689 11.7915C62.5718 11.6831 62.5132 11.5278 62.5132 11.3257ZM67.2534 16.0674C67.2534 16.5449 67.1128 16.9185 66.8315 17.188C66.5532 17.4546 66.1416 17.5879 65.5967 17.5879C65.1133 17.5879 64.7134 17.4927 64.397 17.3022V16.2871C64.5581 16.3984 64.7456 16.4907 64.9595 16.564C65.1763 16.6372 65.3667 16.6738 65.5308 16.6738C65.7124 16.6738 65.8501 16.6299 65.9438 16.542C66.0405 16.4512 66.0889 16.3325 66.0889 16.186C66.0889 16.0366 66.0391 15.9062 65.9395 15.7949C65.8398 15.6836 65.6567 15.5474 65.3901 15.3862C65.0356 15.1753 64.7808 14.9512 64.6255 14.7139C64.4731 14.4736 64.397 14.1909 64.397 13.8657C64.397 13.4497 64.5391 13.1201 64.8232 12.877C65.1104 12.6338 65.5029 12.5122 66.001 12.5122C66.4346 12.5122 66.8433 12.6265 67.2271 12.855L66.8447 13.6943C66.5312 13.5244 66.2559 13.4395 66.0186 13.4395C65.8691 13.4395 65.7563 13.479 65.6802 13.5581C65.6069 13.6372 65.5703 13.7339 65.5703 13.8481C65.5703 13.98 65.6157 14.0972 65.7065 14.1997C65.8003 14.3022 65.9731 14.4297 66.2251 14.582C66.5298 14.7666 66.7437 14.9233 66.8667 15.0522C66.9897 15.1812 67.085 15.3276 67.1523 15.4917C67.2197 15.6558 67.2534 15.8477 67.2534 16.0674ZM71.5234 15.0435C71.5234 15.8462 71.3535 16.4717 71.0137 16.9199C70.6738 17.3652 70.208 17.5879 69.6162 17.5879C69.2412 17.5879 68.9102 17.4854 68.623 17.2803C68.3359 17.0752 68.1147 16.7808 67.9595 16.397C67.8042 16.0103 67.7266 15.5591 67.7266 15.0435C67.7266 14.2495 67.895 13.6299 68.2319 13.1846C68.5688 12.7363 69.0361 12.5122 69.6338 12.5122C70.2109 12.5122 70.6694 12.7407 71.0093 13.1978C71.3521 13.6519 71.5234 14.2671 71.5234 15.0435ZM68.9219 15.0435C68.9219 15.5532 68.9775 15.9385 69.0889 16.1992C69.2002 16.46 69.3789 16.5903 69.625 16.5903C70.0938 16.5903 70.3281 16.0747 70.3281 15.0435C70.3281 14.5308 70.271 14.1484 70.1567 13.8965C70.0454 13.6416 69.8682 13.5142 69.625 13.5142C69.3789 13.5142 69.2002 13.6416 69.0889 13.8965C68.9775 14.1484 68.9219 14.5308 68.9219 15.0435ZM74.6904 17.5V14.582C74.6904 14.2275 74.6479 13.9595 74.563 13.7778C74.478 13.5962 74.3403 13.5054 74.1499 13.5054C73.8979 13.5054 73.7134 13.6313 73.5962 13.8833C73.479 14.1323 73.4204 14.5542 73.4204 15.1489V17.5H72.2515V12.6045H73.1787L73.3193 13.2329H73.394C73.4995 13.0073 73.6504 12.8315 73.8467 12.7056C74.043 12.5767 74.2729 12.5122 74.5366 12.5122C74.9819 12.5122 75.3145 12.6646 75.5342 12.9692C75.7568 13.2739 75.8682 13.7192 75.8682 14.3052V17.5H74.6904Z" fill="#2C3A49"/>
</g>
<defs>
<clipPath id="clip0">
<rect width="89" height="119" fill="white"/>
</clipPath>
</defs>
</svg>
