<svg width="399" height="120" viewBox="0 0 399 120" fill="none" xmlns="http://www.w3.org/2000/svg">
<path d="M376.834 49.1326V83.3078C376.834 86.8285 379.782 89.7422 383.343 89.7422H391.755C395.378 89.7422 398.325 86.8285 398.325 83.2471V49.1326H376.834Z" fill="#F2F0F5"/>
<path opacity="0.50193" d="M391.328 58.9762H390.605C390.605 59.9215 390.414 61.2449 389.121 61.5474C388.55 61.6986 388.207 61.9255 388.169 62.0011V64.5345C388.702 64.6857 389.121 65.2151 389.121 65.8201C389.121 66.5763 388.512 67.1813 387.751 67.1813C386.99 67.1813 386.381 66.5763 386.381 65.8201C386.381 65.2151 386.799 64.7236 387.332 64.5345V63.7026C387.104 63.6648 386.647 63.5514 386.419 63.4758C384.859 62.7952 384.744 61.018 384.782 60.3752C384.212 60.224 383.831 59.6946 383.831 59.0896C383.831 58.3334 384.44 57.7284 385.201 57.7284C385.962 57.7284 386.571 58.3334 386.571 59.0896C386.571 59.6946 386.152 60.224 385.582 60.3752C385.582 60.8668 385.62 62.2658 386.761 62.7574C386.837 62.7952 387.104 62.8708 387.37 62.9086V56.216H386.343L387.751 53.6448L389.159 56.216H388.131V61.0936C388.398 60.9424 388.702 60.8668 388.892 60.829C389.653 60.6399 389.806 59.8459 389.806 59.014H389.121V56.8588H391.328V58.9762Z" fill="#BBBDCB"/>
<path fill-rule="evenodd" clip-rule="evenodd" d="M380.333 35.0947V45.6231H395.326V35.0947H380.333ZM385.535 42.254H382.781V37.9825H385.535V42.254ZM389.696 42.254H392.45V37.9825H389.696V42.254Z" fill="#E5E8EC"/>
<path d="M397.325 48.6313H378.333V47.0481C378.333 46.5863 378.705 46.1245 379.2 46.1245H396.521C396.954 46.1245 397.325 46.5203 397.325 47.0481V48.6313Z" fill="#E5E8EC"/>
<path d="M182.42 62.7192H95.458" stroke="#1C82C1" stroke-width="2" stroke-linecap="round" stroke-linejoin="round" stroke-dasharray="6.5"/>
<path d="M369.837 62.1677L307.365 62.7192" stroke="#1C82C1" stroke-width="2" stroke-linecap="round" stroke-linejoin="round" stroke-dasharray="6.5"/>
<path d="M262.822 88.7395C262.822 88.7395 265.728 108.292 282.876 114.81H213.406C230.554 108.292 233.46 88.7395 233.46 88.7395L262.822 88.7395Z" fill="#F2F0F5"/>
<rect opacity="0.4" x="212.906" y="115.311" width="70.469" height="4.01082" fill="#BBBDCB"/>
<rect x="213.406" y="115.311" width="69.4695" height="3.00812" fill="#F5F5F5"/>
<path opacity="0.4" d="M304.745 18.55H192.036C190.59 18.55 189.417 19.7297 189.417 21.1849V92.6064C189.417 94.3472 190.82 95.7584 192.551 95.7584H304.231C305.062 95.7584 305.859 95.4263 306.447 94.8352C307.035 94.2441 307.365 93.4423 307.365 92.6064V21.1849C307.365 19.7297 306.192 18.55 304.745 18.55Z" fill="#BBBDCB"/>
<path d="M193.543 19.5527H303.238C304.689 19.5527 305.865 20.7304 305.865 22.1831V83.2246H190.916V22.1855C190.915 21.4875 191.192 20.8178 191.685 20.324C192.177 19.8302 192.846 19.5527 193.543 19.5527V19.5527Z" fill="white"/>
<path d="M302.723 94.2545H194.059C192.323 94.2545 190.916 92.8421 190.916 91.0999V83.7261H305.865V91.0999C305.865 92.8421 304.458 94.2545 302.723 94.2545Z" fill="#F2F0F5"/>
<rect x="196.414" y="25.0676" width="103.954" height="51.6394" fill="#F2F0F5"/>
<path opacity="0.2" d="M200.46 28.5117H300.368V25.0676H196.414V76.707H200.46V28.5117Z" fill="white"/>
<g clip-path="url(#clip0)">
<rect width="85.4624" height="116.314" fill="#F2F0F5" stroke="#E2E3E9"/>
<mask id="mask0" mask-type="alpha" maskUnits="userSpaceOnUse" x="1" y="2" width="81" height="111">
<rect x="1.49927" y="2.00537" width="79.9648" height="110.799" fill="white"/>
</mask>
<g mask="url(#mask0)">
<rect x="10.4028" y="24.6343" width="2.4989" height="4.01082" fill="#BBBDCB"/>
<rect x="18.8992" y="23.6316" width="2.4989" height="4.01082" fill="#BBBDCB"/>
<rect x="23.3972" y="23.6316" width="2.4989" height="4.01082" fill="#BBBDCB"/>
<rect x="23.3972" y="35.6641" width="2.4989" height="4.01082" fill="#BBBDCB"/>
<rect x="28.395" y="29.6479" width="2.4989" height="4.01082" fill="#BBBDCB"/>
<rect x="28.395" y="36.1655" width="2.4989" height="4.01082" fill="#BBBDCB"/>
<rect x="23.3972" y="48.6992" width="2.4989" height="4.51218" fill="#BBBDCB"/>
<rect x="28.395" y="55.7183" width="2.4989" height="4.01082" fill="#BBBDCB"/>
<rect x="23.3972" y="80.2844" width="2.4989" height="4.01082" fill="#BBBDCB"/>
<rect x="18.8992" y="55.7183" width="2.4989" height="4.01082" fill="#BBBDCB"/>
<rect x="10.4028" y="31.1519" width="2.4989" height="4.01082" fill="#BBBDCB"/>
<rect x="10.4028" y="94.3223" width="2.4989" height="4.01082" fill="#BBBDCB"/>
<rect x="10.4028" y="107.358" width="2.4989" height="4.51218" fill="#BBBDCB"/>
<rect x="9.40332" y="38.1709" width="3.49846" height="0.501353" fill="#BBBDCB"/>
<rect x="22.8975" y="44.187" width="3.49846" height="0.501353" fill="#BBBDCB"/>
<rect x="9.40332" y="70.7588" width="3.49846" height="0.501353" fill="#BBBDCB"/>
<rect x="9.40332" y="76.2737" width="3.49846" height="0.501353" fill="#BBBDCB"/>
<rect x="22.8975" y="108.862" width="3.49846" height="0.501353" fill="#BBBDCB"/>
<path d="M10.4028 42.6831V43.6857H11.4023V45.6913H10.4028V46.6939H12.9017V42.6831H10.4028Z" fill="#BBBDCB"/>
<path d="M18.8992 35.6641V36.6667H19.8986V38.6723H18.8992V39.6749H21.3981V35.6641H18.8992Z" fill="#BBBDCB"/>
<path d="M28.395 42.1816V43.1845H29.3945V45.1899H28.395V46.1925H30.8939V42.1816H28.395Z" fill="#BBBDCB"/>
<path d="M28.395 62.2358V63.2385H29.3945V65.244H28.395V66.2467H30.8939V62.2358H28.395Z" fill="#BBBDCB"/>
<path d="M28.395 68.7534V69.7563H29.3945V71.7617H28.395V72.7642H30.8939V68.7534H28.395Z" fill="#BBBDCB"/>
<path d="M28.395 48.198V49.3259H29.3945V51.5819H28.395V52.7102H30.8939V48.198H28.395Z" fill="#BBBDCB"/>
<path d="M23.3972 29.6479V30.6508H24.3968V32.6559H23.3972V33.6588H25.8961V29.6479H23.3972Z" fill="#BBBDCB"/>
<rect x="23.3972" y="62.2358" width="2.4989" height="4.01082" fill="#BBBDCB"/>
<rect x="23.3972" y="74.2683" width="2.4989" height="4.01082" fill="#BBBDCB"/>
<path d="M23.3972 68.252V69.2545H24.3968V71.2599H23.3972V72.2628H25.8961V68.252H23.3972Z" fill="#BBBDCB"/>
<path d="M18.8992 42.1816V43.1845H19.8986V45.1899H18.8992V46.1925H21.3981V42.1816H18.8992Z" fill="#BBBDCB"/>
<path d="M18.8992 48.6992V49.8274H19.8986V52.0832H18.8992V53.2114H21.3981V48.6992H18.8992Z" fill="#BBBDCB"/>
<rect x="18.8992" y="68.7534" width="2.4989" height="4.01082" fill="#BBBDCB"/>
<path d="M18.8992 62.2358V63.2385H19.8986V65.244H18.8992V66.2467H21.3981V62.2358H18.8992Z" fill="#BBBDCB"/>
<rect x="18.8992" y="81.7886" width="2.4989" height="4.01082" fill="#BBBDCB"/>
<path d="M18.8992 75.271V76.2735H19.8986V78.279H18.8992V79.2818H21.3981V75.271H18.8992Z" fill="#BBBDCB"/>
<rect x="18.8992" y="94.8237" width="2.4989" height="4.01082" fill="#BBBDCB"/>
<rect x="23.3972" y="93.821" width="2.4989" height="4.01082" fill="#BBBDCB"/>
<path d="M18.8992 88.3062V89.309H19.8986V91.3144H18.8992V92.317H21.3981V88.3062H18.8992Z" fill="#BBBDCB"/>
<path d="M28.395 88.3062V89.309H29.3945V91.3144H28.395V92.317H30.8939V88.3062H28.395Z" fill="#BBBDCB"/>
<rect x="54.3835" y="29.6479" width="2.4989" height="4.01082" fill="#BBBDCB"/>
<rect x="54.3835" y="36.1655" width="2.4989" height="4.01082" fill="#BBBDCB"/>
<rect x="54.3835" y="55.7183" width="2.4989" height="4.01082" fill="#BBBDCB"/>
<path d="M54.3835 42.1816V43.1845H55.3833V45.1899H54.3835V46.1925H56.8824V42.1816H54.3835Z" fill="#BBBDCB"/>
<path d="M54.3835 62.2358V63.2385H55.3833V65.244H54.3835V66.2467H56.8824V62.2358H54.3835Z" fill="#BBBDCB"/>
<path d="M54.3835 68.7534V69.7563H55.3833V71.7617H54.3835V72.7642H56.8824V68.7534H54.3835Z" fill="#BBBDCB"/>
<path d="M54.3835 48.198V49.3259H55.3833V51.5819H54.3835V52.7102H56.8824V48.198H54.3835Z" fill="#BBBDCB"/>
<path d="M54.3835 88.3062V89.309H55.3833V91.3144H54.3835V92.317H56.8824V88.3062H54.3835Z" fill="#BBBDCB"/>
<rect x="18.8992" y="107.859" width="2.4989" height="4.51218" fill="#BBBDCB"/>
<rect x="23.3972" y="100.339" width="2.4989" height="4.01082" fill="#BBBDCB"/>
<path d="M18.8992 101.341V102.344H19.8986V104.349H18.8992V105.352H21.3981V101.341H18.8992Z" fill="#BBBDCB"/>
<rect x="46.387" y="23.6316" width="2.4989" height="4.01082" fill="#BBBDCB"/>
<rect x="46.387" y="55.7183" width="2.4989" height="4.01082" fill="#BBBDCB"/>
<path d="M46.387 35.6641V36.6667H47.3867V38.6723H46.387V39.6749H48.8859V35.6641H46.387Z" fill="#BBBDCB"/>
<path d="M46.387 42.1816V43.1845H47.3867V45.1899H46.387V46.1925H48.8859V42.1816H46.387Z" fill="#BBBDCB"/>
<path d="M46.387 48.6992V49.8274H47.3867V52.0832H46.387V53.2114H48.8859V48.6992H46.387Z" fill="#BBBDCB"/>
<rect x="46.387" y="68.7534" width="2.4989" height="4.01082" fill="#BBBDCB"/>
<path d="M46.387 62.2358V63.2385H47.3867V65.244H46.387V66.2467H48.8859V62.2358H46.387Z" fill="#BBBDCB"/>
<rect x="46.387" y="81.7886" width="2.4989" height="4.01082" fill="#BBBDCB"/>
<path d="M46.387 75.271V76.2735H47.3867V78.279H46.387V79.2818H48.8859V75.271H46.387Z" fill="#BBBDCB"/>
<rect x="46.387" y="94.8237" width="2.4989" height="4.01082" fill="#BBBDCB"/>
<path d="M46.387 88.3062V89.309H47.3867V91.3144H46.387V92.317H48.8859V88.3062H46.387Z" fill="#BBBDCB"/>
<rect x="46.387" y="107.859" width="2.4989" height="4.51218" fill="#BBBDCB"/>
<path d="M46.387 101.341V102.344H47.3867V104.349H46.387V105.352H48.8859V101.341H46.387Z" fill="#BBBDCB"/>
<rect x="58.8816" y="23.6316" width="2.4989" height="4.01082" fill="#BBBDCB"/>
<rect x="58.8816" y="55.7183" width="2.4989" height="4.01082" fill="#BBBDCB"/>
<path d="M58.8816 35.6641V36.6667H59.8813V38.6723H58.8816V39.6749H61.3805V35.6641H58.8816Z" fill="#BBBDCB"/>
<path d="M58.8816 42.1816V43.1845H59.8813V45.1899H58.8816V46.1925H61.3805V42.1816H58.8816Z" fill="#BBBDCB"/>
<path d="M58.8816 48.6992V49.8274H59.8813V52.0832H58.8816V53.2114H61.3805V48.6992H58.8816Z" fill="#BBBDCB"/>
<rect x="58.8816" y="68.7534" width="2.4989" height="4.01082" fill="#BBBDCB"/>
<path d="M58.8816 62.2358V63.2385H59.8813V65.244H58.8816V66.2467H61.3805V62.2358H58.8816Z" fill="#BBBDCB"/>
<rect x="58.8816" y="81.7886" width="2.4989" height="4.01082" fill="#BBBDCB"/>
<path d="M58.8816 75.271V76.2735H59.8813V78.279H58.8816V79.2818H61.3805V75.271H58.8816Z" fill="#BBBDCB"/>
<rect x="58.8816" y="94.8237" width="2.4989" height="4.01082" fill="#BBBDCB"/>
<path d="M58.8816 88.3062V89.309H59.8813V91.3144H58.8816V92.317H61.3805V88.3062H58.8816Z" fill="#BBBDCB"/>
<rect x="58.8816" y="107.859" width="2.4989" height="4.51218" fill="#BBBDCB"/>
<path d="M58.8816 101.341V102.344H59.8813V104.349H58.8816V105.352H61.3805V101.341H58.8816Z" fill="#BBBDCB"/>
<path d="M10.4028 55.7183V56.7208H11.4023V58.7262H10.4028V59.7291H12.9017V55.7183H10.4028Z" fill="#BBBDCB"/>
<path d="M10.4028 81.2871V82.2897H11.4023V84.2953H10.4028V85.2979H12.9017V81.2871H10.4028Z" fill="#BBBDCB"/>
<path d="M10.4028 87.8047V88.8076H11.4023V90.813H10.4028V91.8155H12.9017V87.8047H10.4028Z" fill="#BBBDCB"/>
<path d="M10.4028 100.84V101.842H11.4023V103.848H10.4028V104.851H12.9017V100.84H10.4028Z" fill="#BBBDCB"/>
<rect x="36.3914" y="24.6343" width="2.4989" height="4.01082" fill="#BBBDCB"/>
<rect x="36.3914" y="31.1519" width="2.4989" height="4.01082" fill="#BBBDCB"/>
<rect x="35.3918" y="38.1709" width="3.49846" height="0.501353" fill="#BBBDCB"/>
<rect x="35.3918" y="70.7588" width="3.49846" height="0.501353" fill="#BBBDCB"/>
<rect x="35.3918" y="76.2737" width="3.49846" height="0.501353" fill="#BBBDCB"/>
<path d="M36.3914 42.6831V43.6857H37.3908V45.6913H36.3914V46.6939H38.8903V42.6831H36.3914Z" fill="#BBBDCB"/>
<path d="M36.3914 55.7183V56.7208H37.3908V58.7262H36.3914V59.7291H38.8903V55.7183H36.3914Z" fill="#BBBDCB"/>
<path d="M36.3914 81.2871V82.2897H37.3908V84.2953H36.3914V85.2979H38.8903V81.2871H36.3914Z" fill="#BBBDCB"/>
<rect x="65.3787" y="68.7534" width="2.4989" height="4.01082" fill="#BBBDCB"/>
<rect x="65.3787" y="75.271" width="2.4989" height="4.01082" fill="#BBBDCB"/>
<rect x="64.3792" y="82.2898" width="3.49846" height="0.501353" fill="#BBBDCB"/>
<path d="M65.3787 86.802V87.8045H66.3781V89.81H65.3787V90.8128H67.8776V86.802H65.3787Z" fill="#BBBDCB"/>
<path d="M65.3787 99.3359V100.339H66.3781V102.344H65.3787V103.347H67.8776V99.3359H65.3787Z" fill="#BBBDCB"/>
<rect x="73.3752" y="24.6343" width="2.4989" height="4.01082" fill="#BBBDCB"/>
<rect x="73.3752" y="31.1519" width="2.4989" height="4.01082" fill="#BBBDCB"/>
<rect x="73.3752" y="94.3223" width="2.4989" height="4.01082" fill="#BBBDCB"/>
<rect x="73.3752" y="107.358" width="2.4989" height="4.51218" fill="#BBBDCB"/>
<rect x="72.3757" y="38.1709" width="3.49846" height="0.501353" fill="#BBBDCB"/>
<rect x="72.3757" y="70.7588" width="3.49846" height="0.501353" fill="#BBBDCB"/>
<rect x="72.3757" y="76.2737" width="3.49846" height="0.501353" fill="#BBBDCB"/>
<path d="M73.3752 42.6831V43.6857H74.375V45.6913H73.3752V46.6939H75.8741V42.6831H73.3752Z" fill="#BBBDCB"/>
<path d="M73.3752 55.7183V56.7208H74.375V58.7262H73.3752V59.7291H75.8741V55.7183H73.3752Z" fill="#BBBDCB"/>
<path d="M73.3752 81.2871V82.2897H74.375V84.2953H73.3752V85.2979H75.8741V81.2871H73.3752Z" fill="#BBBDCB"/>
<path d="M73.3752 87.8047V88.8076H74.375V90.813H73.3752V91.8155H75.8741V87.8047H73.3752Z" fill="#BBBDCB"/>
<path d="M73.3752 100.84V101.842H74.375V103.848H73.3752V104.851H75.8741V100.84H73.3752Z" fill="#BBBDCB"/>
</g>
<path fill-rule="evenodd" clip-rule="evenodd" d="M26.7666 12.5338C26.7666 15.1452 24.6008 17.2817 21.9536 17.2817C19.9683 17.2817 18.2235 16.0947 17.5016 14.3143H12.9293V14.9078C12.9293 15.2045 12.6284 15.5012 12.3276 15.5012H10.5228C10.2821 15.5012 10.1016 15.3825 9.9813 15.2045L8.77805 12.8305C8.71789 12.7118 8.71789 12.6525 8.71789 12.5338C8.71789 12.4151 8.77805 12.2371 8.89838 12.1184L10.1016 10.9314C10.222 10.8127 10.3423 10.7533 10.5228 10.7533H17.5016C18.2235 8.97287 19.9683 7.78589 21.9536 7.78589C24.6008 7.78589 26.7666 9.92245 26.7666 12.5338ZM23.7585 12.5338C23.7585 11.5426 22.9981 10.7846 22.0037 10.7846C21.0679 10.7846 20.249 11.5426 20.249 12.5338C20.249 13.525 21.0679 14.283 22.0037 14.283C22.9981 14.283 23.7585 13.525 23.7585 12.5338Z" fill="#2C3A49"/>
<path d="M17.5016 14.3143L18.4283 13.9385L18.1752 13.3143H17.5016V14.3143ZM12.9293 14.3143V13.3143H11.9293V14.3143H12.9293ZM9.9813 15.2045L9.08933 15.6566L9.11767 15.7125L9.15276 15.7644L9.9813 15.2045ZM8.77805 12.8305L7.88608 13.2826L7.88609 13.2826L8.77805 12.8305ZM8.89838 12.1184L9.60065 12.8303L9.60066 12.8303L8.89838 12.1184ZM10.1016 10.9314L9.39935 10.2195L9.39935 10.2195L10.1016 10.9314ZM17.5016 10.7533V11.7533H18.1752L18.4283 11.1291L17.5016 10.7533ZM21.9536 18.2817C25.1402 18.2817 27.7666 15.7102 27.7666 12.5338H25.7666C25.7666 14.5801 24.0613 16.2817 21.9536 16.2817V18.2817ZM16.5749 14.69C17.4512 16.8511 19.5646 18.2817 21.9536 18.2817V16.2817C20.3719 16.2817 18.9959 15.3384 18.4283 13.9385L16.5749 14.69ZM12.9293 15.3143H17.5016V13.3143H12.9293V15.3143ZM13.9293 14.9078V14.3143H11.9293V14.9078H13.9293ZM12.3276 16.5012C12.7985 16.5012 13.189 16.2787 13.4435 16.0277C13.6972 15.7775 13.9293 15.3862 13.9293 14.9078H11.9293C11.9293 14.7261 12.0109 14.6315 12.039 14.6039C12.0679 14.5754 12.1576 14.5012 12.3276 14.5012V16.5012ZM10.5228 16.5012H12.3276V14.5012H10.5228V16.5012ZM9.15276 15.7644C9.42947 16.1739 9.90042 16.5012 10.5228 16.5012V14.5012C10.5737 14.5012 10.6409 14.5156 10.7057 14.5529C10.7662 14.5878 10.798 14.6271 10.8098 14.6446L9.15276 15.7644ZM7.88609 13.2826L9.08933 15.6566L10.8733 14.7524L9.67002 12.3784L7.88609 13.2826ZM7.71789 12.5338C7.71789 12.5732 7.71526 12.706 7.73939 12.8488C7.76774 13.0166 7.82291 13.158 7.88608 13.2826L9.67002 12.3785C9.67005 12.3785 9.67195 12.3822 9.67495 12.3891C9.67801 12.3962 9.68223 12.4065 9.68686 12.4197C9.69691 12.4483 9.7056 12.4811 9.71144 12.5156C9.71692 12.5481 9.71792 12.5708 9.71807 12.5746C9.71813 12.5761 9.71803 12.5743 9.71797 12.5669C9.7179 12.5589 9.71789 12.5496 9.71789 12.5338H7.71789ZM8.1961 11.4065C7.87424 11.724 7.71789 12.1634 7.71789 12.5338H9.71789C9.71789 12.5853 9.71176 12.6226 9.70715 12.6442C9.70221 12.6674 9.69611 12.6861 9.68973 12.7019C9.67895 12.7284 9.65517 12.7765 9.60065 12.8303L8.1961 11.4065ZM9.39935 10.2195L8.1961 11.4065L9.60066 12.8303L10.8039 11.6433L9.39935 10.2195ZM10.5228 9.75333C10.046 9.75333 9.68157 9.94107 9.39935 10.2195L10.8039 11.6433C10.8045 11.6427 10.7658 11.681 10.6912 11.7137C10.6126 11.7482 10.5475 11.7533 10.5228 11.7533V9.75333ZM17.5016 9.75333H10.5228V11.7533H17.5016V9.75333ZM21.9536 6.78589C19.5646 6.78589 17.4512 8.2165 16.5749 10.3776L18.4283 11.1291C18.9959 9.72923 20.3719 8.78589 21.9536 8.78589V6.78589ZM27.7666 12.5338C27.7666 9.35737 25.1402 6.78589 21.9536 6.78589V8.78589C24.0613 8.78589 25.7666 10.4875 25.7666 12.5338H27.7666ZM22.0037 11.7846C22.4488 11.7846 22.7585 12.0978 22.7585 12.5338H24.7585C24.7585 10.9873 23.5474 9.78457 22.0037 9.78457V11.7846ZM21.249 12.5338C21.249 12.1193 21.5954 11.7846 22.0037 11.7846V9.78457C20.5404 9.78457 19.249 10.9658 19.249 12.5338H21.249ZM22.0037 13.283C21.5954 13.283 21.249 12.9483 21.249 12.5338H19.249C19.249 14.1018 20.5404 15.283 22.0037 15.283V13.283ZM22.7585 12.5338C22.7585 12.9698 22.4488 13.283 22.0037 13.283V15.283C23.5474 15.283 24.7585 14.0803 24.7585 12.5338H22.7585Z" fill="#F2F2F2"/>
<path d="M32.6116 12.2341C32.6116 12.7117 32.4709 13.0852 32.1897 13.3547C31.9114 13.6213 31.4998 13.7546 30.9548 13.7546C30.4714 13.7546 30.0715 13.6594 29.7551 13.469V12.4539C29.9163 12.5652 30.1038 12.6575 30.3176 12.7307C30.5344 12.804 30.7249 12.8406 30.8889 12.8406C31.0706 12.8406 31.2083 12.7966 31.302 12.7087C31.3987 12.6179 31.447 12.4993 31.447 12.3528C31.447 12.2034 31.3972 12.073 31.2976 11.9617C31.198 11.8503 31.0149 11.7141 30.7483 11.553C30.3938 11.342 30.1389 11.1179 29.9836 10.8806C29.8313 10.6404 29.7551 10.3577 29.7551 10.0325C29.7551 9.61646 29.8972 9.28687 30.1814 9.0437C30.4685 8.80054 30.8611 8.67896 31.3591 8.67896C31.7927 8.67896 32.2014 8.79321 32.5852 9.02173L32.2029 9.86108C31.8894 9.69116 31.614 9.6062 31.3767 9.6062C31.2273 9.6062 31.1145 9.64575 31.0383 9.72485C30.9651 9.80396 30.9285 9.90063 30.9285 10.0149C30.9285 10.1467 30.9739 10.2639 31.0647 10.3665C31.1584 10.469 31.3313 10.5964 31.5833 10.7488C31.8879 10.9333 32.1018 11.0901 32.2249 11.219C32.3479 11.3479 32.4431 11.4944 32.5105 11.6584C32.5779 11.8225 32.6116 12.0144 32.6116 12.2341ZM34.4338 13.6667H33.2649V8.77124H34.4338V13.6667ZM33.2166 7.49243C33.2166 7.29907 33.2722 7.14673 33.3835 7.0354C33.4978 6.92114 33.656 6.86401 33.8582 6.86401C34.0486 6.86401 34.2009 6.92114 34.3152 7.0354C34.4294 7.14673 34.4866 7.29907 34.4866 7.49243C34.4866 7.69165 34.428 7.84692 34.3108 7.95825C34.1936 8.06665 34.0427 8.12085 33.8582 8.12085C33.6648 8.12085 33.5095 8.06665 33.3923 7.95825C33.2751 7.84692 33.2166 7.69165 33.2166 7.49243ZM38.8665 8.78003V9.46558L38.282 9.59741C38.3962 9.80249 38.4534 10.0603 38.4534 10.3708C38.4534 10.8894 38.3127 11.2952 38.0315 11.5881C37.7502 11.8811 37.3577 12.0276 36.8538 12.0276C36.7073 12.0276 36.5989 12.0159 36.5286 11.9924C36.4729 12.0422 36.4202 12.0979 36.3704 12.1594C36.3206 12.2209 36.2957 12.2971 36.2957 12.3879C36.2957 12.593 36.4729 12.6956 36.8274 12.6956H37.5349C37.9509 12.6956 38.2703 12.8083 38.4929 13.0339C38.7185 13.2566 38.8313 13.5935 38.8313 14.0447C38.8313 14.613 38.6409 15.0525 38.26 15.363C37.8792 15.6736 37.3313 15.8289 36.6165 15.8289C36.0745 15.8289 35.657 15.7102 35.364 15.4729C35.071 15.2385 34.9246 14.9031 34.9246 14.4666C34.9246 14.1941 35.0081 13.9539 35.175 13.7458C35.342 13.5408 35.5735 13.3914 35.8694 13.2976C35.72 13.239 35.5969 13.1482 35.5002 13.0251C35.4065 12.9021 35.3596 12.7585 35.3596 12.5945C35.3596 12.4949 35.3743 12.4055 35.4036 12.3264C35.4329 12.2444 35.4739 12.1682 35.5266 12.0979C35.5823 12.0247 35.6936 11.9177 35.8606 11.7771C35.6584 11.6541 35.4988 11.4651 35.3816 11.2102C35.2644 10.9553 35.2058 10.6726 35.2058 10.3621C35.2058 9.82593 35.3464 9.41138 35.6277 9.11841C35.9089 8.82544 36.3118 8.67896 36.8362 8.67896C36.9358 8.67896 37.05 8.69067 37.179 8.71411C37.3079 8.73462 37.406 8.75659 37.4734 8.78003H38.8665ZM35.988 14.3787C35.988 14.572 36.0481 14.72 36.1682 14.8225C36.2913 14.928 36.4656 14.9807 36.6912 14.9807C37.0457 14.9807 37.3108 14.9133 37.4866 14.7786C37.6653 14.6438 37.7546 14.4592 37.7546 14.2249C37.7546 14.0403 37.7063 13.9099 37.6096 13.8337C37.5159 13.7576 37.3386 13.7195 37.0779 13.7195H36.511C36.3528 13.7195 36.2253 13.7781 36.1287 13.8953C36.0349 14.0154 35.988 14.1765 35.988 14.3787ZM36.3484 10.3708C36.3484 10.948 36.511 11.2366 36.8362 11.2366C37.1526 11.2366 37.3108 10.9451 37.3108 10.3621C37.3108 9.7644 37.1526 9.46558 36.8362 9.46558C36.511 9.46558 36.3484 9.76733 36.3484 10.3708ZM41.8005 13.6667V10.7488C41.8005 10.3943 41.7581 10.1262 41.6731 9.94458C41.5881 9.76294 41.4504 9.67212 41.26 9.67212C41.0081 9.67212 40.8235 9.7981 40.7063 10.05C40.5891 10.2991 40.5305 10.7209 40.5305 11.3157V13.6667H39.3616V8.77124H40.2888L40.4294 9.39966H40.5042C40.6096 9.17407 40.7605 8.99829 40.9568 8.87231C41.1531 8.74341 41.3831 8.67896 41.6467 8.67896C42.092 8.67896 42.4246 8.8313 42.6443 9.13599C42.8669 9.44067 42.9783 9.88599 42.9783 10.4719V13.6667H41.8005ZM45.0071 13.6667H43.8381V8.77124H45.0071V13.6667ZM43.7898 7.49243C43.7898 7.29907 43.8455 7.14673 43.9568 7.0354C44.071 6.92114 44.2292 6.86401 44.4314 6.86401C44.6218 6.86401 44.7742 6.92114 44.8884 7.0354C45.0027 7.14673 45.0598 7.29907 45.0598 7.49243C45.0598 7.69165 45.0012 7.84692 44.884 7.95825C44.7668 8.06665 44.616 8.12085 44.4314 8.12085C44.238 8.12085 44.0828 8.06665 43.9656 7.95825C43.8484 7.84692 43.7898 7.69165 43.7898 7.49243ZM48.3542 13.6667V10.7488C48.3542 10.3943 48.3118 10.1262 48.2268 9.94458C48.1418 9.76294 48.0042 9.67212 47.8137 9.67212C47.5618 9.67212 47.3772 9.7981 47.26 10.05C47.1428 10.2991 47.0842 10.7209 47.0842 11.3157V13.6667H45.9153V8.77124H46.8425L46.9832 9.39966H47.0579C47.1633 9.17407 47.3142 8.99829 47.5105 8.87231C47.7068 8.74341 47.9368 8.67896 48.2004 8.67896C48.6458 8.67896 48.9783 8.8313 49.198 9.13599C49.4207 9.44067 49.532 9.88599 49.532 10.4719V13.6667H48.3542ZM53.9075 8.78003V9.46558L53.323 9.59741C53.4373 9.80249 53.4944 10.0603 53.4944 10.3708C53.4944 10.8894 53.3538 11.2952 53.0725 11.5881C52.7913 11.8811 52.3987 12.0276 51.8948 12.0276C51.7483 12.0276 51.6399 12.0159 51.5696 11.9924C51.5139 12.0422 51.4612 12.0979 51.4114 12.1594C51.3616 12.2209 51.3367 12.2971 51.3367 12.3879C51.3367 12.593 51.5139 12.6956 51.8684 12.6956H52.5759C52.9919 12.6956 53.3113 12.8083 53.5339 13.0339C53.7595 13.2566 53.8723 13.5935 53.8723 14.0447C53.8723 14.613 53.6819 15.0525 53.301 15.363C52.9202 15.6736 52.3723 15.8289 51.6575 15.8289C51.1155 15.8289 50.698 15.7102 50.405 15.4729C50.1121 15.2385 49.9656 14.9031 49.9656 14.4666C49.9656 14.1941 50.0491 13.9539 50.2161 13.7458C50.3831 13.5408 50.6145 13.3914 50.9104 13.2976C50.761 13.239 50.6379 13.1482 50.5413 13.0251C50.4475 12.9021 50.4006 12.7585 50.4006 12.5945C50.4006 12.4949 50.4153 12.4055 50.4446 12.3264C50.4739 12.2444 50.5149 12.1682 50.5676 12.0979C50.6233 12.0247 50.7346 11.9177 50.9016 11.7771C50.6995 11.6541 50.5398 11.4651 50.4226 11.2102C50.3054 10.9553 50.2468 10.6726 50.2468 10.3621C50.2468 9.82593 50.3875 9.41138 50.6687 9.11841C50.95 8.82544 51.3528 8.67896 51.8772 8.67896C51.9768 8.67896 52.0911 8.69067 52.22 8.71411C52.3489 8.73462 52.447 8.75659 52.5144 8.78003H53.9075ZM51.0291 14.3787C51.0291 14.572 51.0891 14.72 51.2092 14.8225C51.3323 14.928 51.5066 14.9807 51.7322 14.9807C52.0867 14.9807 52.3518 14.9133 52.5276 14.7786C52.7063 14.6438 52.7957 14.4592 52.7957 14.2249C52.7957 14.0403 52.7473 13.9099 52.6506 13.8337C52.5569 13.7576 52.3796 13.7195 52.1189 13.7195H51.552C51.3938 13.7195 51.2664 13.7781 51.1697 13.8953C51.0759 14.0154 51.0291 14.1765 51.0291 14.3787ZM51.3894 10.3708C51.3894 10.948 51.552 11.2366 51.8772 11.2366C52.1936 11.2366 52.3518 10.9451 52.3518 10.3621C52.3518 9.7644 52.1936 9.46558 51.8772 9.46558C51.552 9.46558 51.3894 9.76733 51.3894 10.3708ZM54.3938 13.0647C54.3938 12.8362 54.4539 12.6589 54.574 12.533C54.697 12.407 54.8787 12.344 55.1189 12.344C55.3591 12.344 55.5408 12.407 55.6638 12.533C55.7869 12.656 55.8484 12.8333 55.8484 13.0647C55.8484 13.2932 55.7839 13.4705 55.655 13.5964C55.5291 13.7224 55.3503 13.7854 55.1189 13.7854C54.8816 13.7854 54.7014 13.7224 54.5784 13.5964C54.4553 13.4675 54.3938 13.2903 54.3938 13.0647ZM56.824 13.0647C56.824 12.8362 56.884 12.6589 57.0042 12.533C57.1272 12.407 57.3088 12.344 57.5491 12.344C57.7893 12.344 57.9709 12.407 58.094 12.533C58.217 12.656 58.2786 12.8333 58.2786 13.0647C58.2786 13.2932 58.2141 13.4705 58.0852 13.5964C57.9592 13.7224 57.7805 13.7854 57.5491 13.7854C57.3118 13.7854 57.1316 13.7224 57.0085 13.5964C56.8855 13.4675 56.824 13.2903 56.824 13.0647ZM59.2542 13.0647C59.2542 12.8362 59.3142 12.6589 59.4343 12.533C59.5574 12.407 59.739 12.344 59.9792 12.344C60.2195 12.344 60.4011 12.407 60.5242 12.533C60.6472 12.656 60.7087 12.8333 60.7087 13.0647C60.7087 13.2932 60.6443 13.4705 60.5154 13.5964C60.3894 13.7224 60.2107 13.7854 59.9792 13.7854C59.7419 13.7854 59.5618 13.7224 59.4387 13.5964C59.3157 13.4675 59.2542 13.2903 59.2542 13.0647ZM61.4587 15.8289C61.2126 15.8289 61.009 15.7922 60.8479 15.719V14.7478C60.9827 14.8005 61.1086 14.8269 61.2258 14.8269C61.5012 14.8269 61.6389 14.5779 61.6389 14.0798V8.77124H62.8079V14.2336C62.8079 14.7434 62.6892 15.136 62.4519 15.4114C62.2175 15.6897 61.8865 15.8289 61.4587 15.8289ZM61.595 7.49243C61.595 7.29907 61.6506 7.14673 61.762 7.0354C61.8762 6.92114 62.033 6.86401 62.2322 6.86401C62.4285 6.86401 62.5823 6.92114 62.6936 7.0354C62.8049 7.14966 62.8606 7.302 62.8606 7.49243C62.8606 7.68872 62.8035 7.84253 62.6892 7.95386C62.575 8.06519 62.4226 8.12085 62.2322 8.12085C62.0417 8.12085 61.8879 8.06665 61.7708 7.95825C61.6536 7.84985 61.595 7.69458 61.595 7.49243ZM66.3352 12.2341C66.3352 12.7117 66.1946 13.0852 65.9133 13.3547C65.635 13.6213 65.2234 13.7546 64.6785 13.7546C64.1951 13.7546 63.7952 13.6594 63.4788 13.469V12.4539C63.6399 12.5652 63.8274 12.6575 64.0413 12.7307C64.2581 12.804 64.4485 12.8406 64.6125 12.8406C64.7942 12.8406 64.9319 12.7966 65.0256 12.7087C65.1223 12.6179 65.1707 12.4993 65.1707 12.3528C65.1707 12.2034 65.1208 12.073 65.0212 11.9617C64.9216 11.8503 64.7385 11.7141 64.4719 11.553C64.1174 11.342 63.8625 11.1179 63.7073 10.8806C63.5549 10.6404 63.4788 10.3577 63.4788 10.0325C63.4788 9.61646 63.6208 9.28687 63.905 9.0437C64.1921 8.80054 64.5847 8.67896 65.0828 8.67896C65.5164 8.67896 65.925 8.79321 66.3088 9.02173L65.9265 9.86108C65.613 9.69116 65.3376 9.6062 65.1003 9.6062C64.9509 9.6062 64.8381 9.64575 64.762 9.72485C64.6887 9.80396 64.6521 9.90063 64.6521 10.0149C64.6521 10.1467 64.6975 10.2639 64.7883 10.3665C64.8821 10.469 65.0549 10.5964 65.3069 10.7488C65.6116 10.9333 65.8254 11.0901 65.9485 11.219C66.0715 11.3479 66.1667 11.4944 66.2341 11.6584C66.3015 11.8225 66.3352 12.0144 66.3352 12.2341ZM70.6052 11.2102C70.6052 12.0129 70.4353 12.6384 70.0955 13.0867C69.7556 13.532 69.2898 13.7546 68.698 13.7546C68.323 13.7546 67.9919 13.6521 67.7048 13.447C67.4177 13.2419 67.1965 12.9475 67.0413 12.5637C66.886 12.177 66.8083 11.7258 66.8083 11.2102C66.8083 10.4163 66.9768 9.79663 67.3137 9.35132C67.6506 8.90308 68.1179 8.67896 68.7156 8.67896C69.2927 8.67896 69.7512 8.90747 70.0911 9.3645C70.4338 9.8186 70.6052 10.4338 70.6052 11.2102ZM68.0037 11.2102C68.0037 11.72 68.0593 12.1052 68.1707 12.366C68.282 12.6267 68.4607 12.7571 68.7068 12.7571C69.1755 12.7571 69.4099 12.2415 69.4099 11.2102C69.4099 10.6975 69.3528 10.3152 69.2385 10.0632C69.1272 9.80835 68.95 9.68091 68.7068 9.68091C68.4607 9.68091 68.282 9.80835 68.1707 10.0632C68.0593 10.3152 68.0037 10.6975 68.0037 11.2102ZM73.7722 13.6667V10.7488C73.7722 10.3943 73.7297 10.1262 73.6448 9.94458C73.5598 9.76294 73.4221 9.67212 73.2317 9.67212C72.9797 9.67212 72.7952 9.7981 72.678 10.05C72.5608 10.2991 72.5022 10.7209 72.5022 11.3157V13.6667H71.3333V8.77124H72.2605L72.4011 9.39966H72.4758C72.5813 9.17407 72.7322 8.99829 72.9285 8.87231C73.1248 8.74341 73.3547 8.67896 73.6184 8.67896C74.0637 8.67896 74.3962 8.8313 74.616 9.13599C74.8386 9.44067 74.95 9.88599 74.95 10.4719V13.6667H73.7722Z" fill="#2C3A49"/>
<path d="M124.829 73.1289C124.829 73.7962 124.659 74.3073 124.321 74.6621C123.986 75.0169 123.5 75.1943 122.866 75.1943C122.244 75.1943 121.715 75.0723 121.279 74.8281V73.5146C121.813 73.863 122.303 74.0371 122.749 74.0371C123.002 74.0371 123.193 73.9671 123.32 73.8271C123.45 73.6872 123.515 73.4967 123.515 73.2559C123.515 73.0182 123.439 72.8018 123.286 72.6064C123.133 72.4079 122.88 72.1882 122.529 71.9473C122.223 71.7357 121.99 71.5339 121.831 71.3418C121.674 71.1465 121.552 70.9284 121.464 70.6875C121.38 70.4466 121.337 70.1667 121.337 69.8477C121.337 69.2357 121.507 68.7507 121.845 68.3926C122.187 68.0345 122.644 67.8555 123.217 67.8555C123.764 67.8555 124.29 68.0085 124.794 68.3145L124.355 69.3789C124.199 69.2878 124.034 69.2064 123.862 69.1348C123.693 69.0632 123.51 69.0273 123.315 69.0273C123.1 69.0273 122.934 69.099 122.817 69.2422C122.703 69.3822 122.646 69.5742 122.646 69.8184C122.646 70.0592 122.714 70.2692 122.851 70.4482C122.991 70.6273 123.234 70.8307 123.579 71.0586C124.044 71.3711 124.368 71.6901 124.55 72.0156C124.736 72.3411 124.829 72.7122 124.829 73.1289ZM128.982 75.0967L128.572 73.2949H126.712L126.302 75.0967H124.973L126.741 67.9287H128.543L130.315 75.0967H128.982ZM128.323 72.1182L127.942 70.458C127.919 70.3571 127.867 70.1048 127.786 69.7012C127.708 69.2943 127.661 69.0225 127.644 68.8857C127.602 69.1657 127.548 69.4749 127.483 69.8135C127.418 70.1488 127.249 70.917 126.975 72.1182H128.323ZM133.776 67.958H135.113L133.434 75.0967H131.744L130.074 67.958H131.412L132.345 72.3184C132.43 72.6895 132.513 73.2217 132.594 73.915C132.662 73.3258 132.749 72.7936 132.853 72.3184L133.776 67.958ZM138.857 75.0967H135.639V67.958H138.857V69.1055H136.967V70.8047H138.72V71.957H136.967V73.9346H138.857V75.0967ZM144.352 75.0967H143.028V69.125H141.661V67.958H145.719V69.125H144.352V75.0967ZM151.157 71.5176C151.157 72.6992 150.935 73.6074 150.493 74.2422C150.05 74.877 149.417 75.1943 148.593 75.1943C147.766 75.1943 147.132 74.8786 146.689 74.2471C146.246 73.6123 146.025 72.6992 146.025 71.5078C146.025 70.3262 146.246 69.4212 146.689 68.793C147.132 68.1615 147.77 67.8457 148.603 67.8457C149.427 67.8457 150.058 68.1631 150.498 68.7979C150.937 69.4294 151.157 70.3359 151.157 71.5176ZM147.382 71.5176C147.382 72.3314 147.485 72.9515 147.69 73.3779C147.895 73.8044 148.196 74.0176 148.593 74.0176C149.394 74.0176 149.794 73.1842 149.794 71.5176C149.794 69.8509 149.397 69.0176 148.603 69.0176C148.199 69.0176 147.895 69.2308 147.69 69.6572C147.485 70.0804 147.382 70.7005 147.382 71.5176ZM158.356 70.1553C158.356 70.9137 158.164 71.4964 157.779 71.9033C157.399 72.307 156.847 72.5088 156.124 72.5088H155.792V75.0967H154.464V67.958H156.276C157.662 67.958 158.356 68.6904 158.356 70.1553ZM155.792 71.3564H156.046C156.372 71.3564 156.614 71.2669 156.774 71.0879C156.933 70.9089 157.013 70.6159 157.013 70.209C157.013 69.8346 156.94 69.5579 156.793 69.3789C156.647 69.1966 156.42 69.1055 156.114 69.1055H155.792V71.3564ZM161.523 69.0176C161.142 69.0176 160.841 69.2406 160.62 69.6865C160.402 70.1325 160.292 70.7526 160.292 71.5469C160.292 73.2005 160.724 74.0273 161.586 74.0273C161.964 74.0273 162.36 73.9069 162.773 73.666V74.8477C162.425 75.0788 161.979 75.1943 161.435 75.1943C160.631 75.1943 160.013 74.8753 159.58 74.2373C159.15 73.596 158.935 72.696 158.935 71.5371C158.935 70.3783 159.156 69.4749 159.599 68.8271C160.045 68.1794 160.664 67.8555 161.455 67.8555C161.715 67.8555 161.964 67.8913 162.202 67.9629C162.443 68.0345 162.7 68.1598 162.973 68.3389L162.534 69.418C162.387 69.3171 162.231 69.2259 162.065 69.1445C161.899 69.0599 161.718 69.0176 161.523 69.0176Z" fill="#1C82C1"/>
<path d="M326.401 70.5149C326.401 71.6965 326.18 72.6047 325.737 73.2395C325.294 73.8743 324.661 74.1917 323.837 74.1917C323.011 74.1917 322.376 73.8759 321.933 73.2444C321.49 72.6096 321.269 71.6965 321.269 70.5051C321.269 69.3235 321.49 68.4185 321.933 67.7903C322.376 67.1588 323.014 66.843 323.847 66.843C324.671 66.843 325.302 67.1604 325.742 67.7952C326.181 68.4267 326.401 69.3333 326.401 70.5149ZM322.626 70.5149C322.626 71.3287 322.729 71.9488 322.934 72.3752C323.139 72.8017 323.44 73.0149 323.837 73.0149C324.638 73.0149 325.039 72.1816 325.039 70.5149C325.039 68.8482 324.641 68.0149 323.847 68.0149C323.444 68.0149 323.139 68.2281 322.934 68.6545C322.729 69.0777 322.626 69.6978 322.626 70.5149ZM328.67 71.3157V74.094H327.342V66.9553H329.08C329.816 66.9553 330.358 67.1295 330.706 67.4778C331.057 67.8261 331.233 68.3583 331.233 69.0745C331.233 69.9762 330.929 70.606 330.32 70.9641L331.692 74.094H330.271L329.143 71.3157H328.67ZM328.67 70.1731H329.012C329.324 70.1731 329.549 70.0852 329.685 69.9094C329.822 69.7304 329.89 69.4651 329.89 69.1135C329.89 68.7489 329.817 68.4902 329.671 68.3372C329.528 68.1809 329.305 68.1028 329.002 68.1028H328.67V70.1731ZM338.994 66.9553V71.5745C338.994 72.4241 338.802 73.0735 338.417 73.5227C338.033 73.9687 337.478 74.1917 336.752 74.1917C336.043 74.1917 335.502 73.9703 335.131 73.5276C334.76 73.0816 334.575 72.4241 334.575 71.5549V66.9553H335.893V71.6526C335.893 72.5608 336.194 73.0149 336.796 73.0149C337.076 73.0149 337.293 72.8993 337.446 72.6682C337.599 72.4371 337.675 72.1083 337.675 71.6819V66.9553H338.994ZM343.377 72.1262C343.377 72.7935 343.208 73.3046 342.869 73.6594C342.534 74.0142 342.049 74.1917 341.414 74.1917C340.792 74.1917 340.263 74.0696 339.827 73.8254V72.512C340.361 72.8603 340.851 73.0344 341.297 73.0344C341.551 73.0344 341.741 72.9644 341.868 72.8245C341.998 72.6845 342.063 72.4941 342.063 72.2532C342.063 72.0155 341.987 71.7991 341.834 71.6038C341.681 71.4052 341.429 71.1855 341.077 70.9446C340.771 70.733 340.538 70.5312 340.379 70.3391C340.222 70.1438 340.1 69.9257 340.013 69.6848C339.928 69.4439 339.886 69.164 339.886 68.845C339.886 68.233 340.055 67.748 340.393 67.3899C340.735 67.0318 341.193 66.8528 341.765 66.8528C342.312 66.8528 342.838 67.0058 343.343 67.3118L342.903 68.3762C342.747 68.2851 342.583 68.2037 342.41 68.1321C342.241 68.0605 342.058 68.0247 341.863 68.0247C341.648 68.0247 341.482 68.0963 341.365 68.2395C341.251 68.3795 341.194 68.5715 341.194 68.8157C341.194 69.0566 341.263 69.2665 341.399 69.4456C341.539 69.6246 341.782 69.828 342.127 70.0559C342.592 70.3684 342.916 70.6874 343.098 71.0129C343.284 71.3385 343.377 71.7096 343.377 72.1262ZM344.152 66.9553H345.973C346.715 66.9553 347.255 67.1002 347.594 67.3899C347.932 67.6764 348.102 68.1337 348.102 68.762C348.102 69.1754 348.012 69.5221 347.833 69.802C347.654 70.0787 347.41 70.2463 347.101 70.3049V70.3538C347.504 70.4547 347.796 70.6435 347.975 70.9202C348.154 71.1969 348.243 71.5647 348.243 72.0237C348.243 72.6715 348.069 73.1793 347.721 73.5471C347.376 73.9117 346.902 74.094 346.3 74.094H344.152V66.9553ZM345.402 69.8264H346.012C346.292 69.8264 346.489 69.7515 346.603 69.6018C346.717 69.4521 346.774 69.2291 346.774 68.9329C346.774 68.6366 346.708 68.425 346.578 68.2981C346.448 68.1679 346.243 68.1028 345.963 68.1028H345.402V69.8264ZM345.402 70.9348V72.9319H346.07C346.347 72.9319 346.552 72.8472 346.686 72.678C346.822 72.5087 346.891 72.2467 346.891 71.8918C346.891 71.2538 346.611 70.9348 346.051 70.9348H345.402ZM355.931 74.094H354.514L353.343 71.0422L352.81 71.5745V74.094H351.482V66.9553H352.81V70.4954L353.274 69.426L354.49 66.9553H355.911L354.261 70.0461L355.931 74.094ZM359.674 74.094H356.456V66.9553H359.674V68.1028H357.784V69.802H359.537V70.9543H357.784V72.9319H359.674V74.094ZM362.329 69.7727L363.281 66.9553H364.672L362.978 71.2327V74.094H361.669V71.2864L359.98 66.9553H361.381L362.329 69.7727Z" fill="#1C82C1"/>
</g>
<path d="M159.906 39.0058V47.2075C159.906 47.3708 159.883 47.5225 159.848 47.6625C159.685 48.4675 158.976 49.0742 158.139 49.0742H124.725C123.83 49.0742 123.086 48.3858 122.992 47.5108C122.969 47.4058 122.969 47.3125 122.969 47.1958V38.9941C122.969 38.0258 123.76 37.2441 124.714 37.2441C125.191 37.2441 125.633 37.4425 125.947 37.7575C126.261 38.0725 126.458 38.5158 126.458 38.9941V45.5625H156.429V38.9941C156.429 38.0258 157.22 37.2441 158.174 37.2441C158.65 37.2441 159.092 37.4425 159.406 37.7575C159.709 38.0841 159.906 38.5275 159.906 39.0058Z" fill="#1C82C1"/>
<path d="M151.498 30.7926L142.927 39.3909C142.915 39.4142 142.892 39.4259 142.88 39.4376C142.566 39.7526 142.159 39.9509 141.752 40.0093C141.717 40.0093 141.682 40.0209 141.647 40.0209C141.577 40.0326 141.508 40.0326 141.438 40.0326L141.24 40.0209C141.205 40.0209 141.17 40.0093 141.136 40.0093C140.717 39.9509 140.321 39.7526 140.007 39.4376C139.996 39.4259 139.973 39.4026 139.961 39.3909L131.39 30.7926C130.994 30.3959 130.796 29.8709 130.796 29.3459C130.796 28.8209 130.994 28.2959 131.39 27.8992C132.18 27.1059 133.471 27.1059 134.274 27.8992L139.426 33.0676V14.1325C139.426 13.0125 140.345 12.0908 141.461 12.0908C142.019 12.0908 142.531 12.3242 142.903 12.6858C143.275 13.0592 143.496 13.5608 143.496 14.1325V33.0676L148.649 27.8992C149.439 27.1059 150.73 27.1059 151.533 27.8992C152.289 28.7042 152.289 29.9992 151.498 30.7926Z" fill="#1C82C1"/>
<defs>
<clipPath id="clip0">
<rect width="365" height="120" fill="white"/>
</clipPath>
</defs>
</svg>
