<?xml version="1.0" encoding="UTF-8"?>
<svg width="346px" height="312px" viewBox="0 0 346 312" version="1.1" xmlns="http://www.w3.org/2000/svg" xmlns:xlink="http://www.w3.org/1999/xlink">
    <!-- Generator: Sketch 63.1 (92452) - https://sketch.com -->
    <title>Group 2</title>
    <desc>Created with Sketch.</desc>
    <g id="Page-1" stroke="none" stroke-width="1" fill="none" fill-rule="evenodd">
        <g id="Group-2" transform="translate(0.540710, 0.400000)" fill-rule="nonzero">
            <path d="M297.25929,191.2 L50.05929,191.2 C41.25929,191.2 34.05929,184 34.05929,175.2 L34.05929,16 C34.05929,7.2 41.25929,1.42108547e-14 50.05929,1.42108547e-14 L297.25929,1.42108547e-14 C306.05929,1.42108547e-14 313.25929,7.2 313.25929,16 L313.25929,174.8 C313.25929,184 306.05929,191.2 297.25929,191.2 Z" id="Path" fill="#FFFFFF"></path>
            <rect id="Rectangle" fill="#1FCFC1" x="50.05929" y="19.2" width="247.6" height="152.8"></rect>
            <path d="M335.25929,311.2 L9.65929003,311.2 C3.25929003,311.2 -1.54070997,304.8 0.459290029,298.8 L32.05929,198 C33.25929,194 37.25929,191.2 41.25929,191.2 L304.05929,191.2 C308.45929,191.2 312.05929,194 313.25929,198 L344.85929,298.8 C346.45929,304.8 342.05929,311.2 335.25929,311.2 Z" id="Path" fill="#E6E9EE"></path>
            <g id="Group" transform="translate(21.459290, 197.600000)" fill="#ACB3BA">
                <path d="M301.4,62.8 L283.4,5.6 C282.6,2.4 279.8,0.4 276.6,0.4 L25,0.4 C21.8,0.4 19,2.4 18.2,5.6 L0.2,62.8 C-0.6,65.6 1.4,68 4.2,68 L297.4,68 C300.6,68.4 302.6,65.6 301.4,62.8 Z" id="Path"></path>
                <path d="M186.2,101.6 L115.8,101.6 C114.6,101.6 113.4,100.4 113.8,98.8 L118.2,79.6 C118.6,78.8 119.4,78 120.2,78 L181.8,78 C183,78 183.8,78.8 183.8,79.6 L188.2,98.8 C188.6,100.4 187.8,101.6 186.2,101.6 Z" id="Path"></path>
            </g>
        </g>
    </g>
</svg>