<svg fill="none" height="26" viewBox="0 0 112 26" width="112" xmlns="http://www.w3.org/2000/svg" xmlns:xlink="http://www.w3.org/1999/xlink"><clipPath id="a"><path d="m0 0h112v26h-112z"/></clipPath><g clip-path="url(#a)"><path d="m46.4216 15.3911 7.5427 10.0516h5.7361l-9.1352-11.9709c-.4956-.6627-.7085-1.1523-.7085-1.6407s.3188-.9424.9202-1.6052l8.7466-9.73747h-5.7721l-7.4357 8.30663c-1.133 1.29104-1.6646 2.19904-1.6646 3.07154 0 1.1167.6375 2.0237 1.7705 3.5245zm39.8352-2.3733c0-7.25877 5.1346-13.0178 12.7832-13.0178 7.648 0 12.96 5.44488 12.96 13.0178 0 7.5728-5.453 12.9134-12.924 12.9134-8.0022 0-12.8181-5.5137-12.8181-12.9134zm20.7852-.0345c0-5.09516-3.151-8.86495-7.9671-8.86495-4.816 0-7.8614 3.69985-7.8614 8.86495 0 5.1652 3.2572 8.8995 7.8614 8.8995 4.8511 0 7.9671-3.8387 7.9671-8.8995zm-34.7015 12.4594h-8.9583v-4.1183h9.8436c2.8326 0 4.2843-.7326 4.2843-2.6875 0-1.745-1.133-2.3034-4.2134-3.1415l-2.9384-.8025c-5.4883-1.5009-7.3298-3.2459-7.3298-7.36424 0-4.11835 2.4789-6.84023 8.4628-6.84023h8.9584v4.18828h-9.0293c-2.5139 0-3.7539.55837-3.7539 2.33781 0 1.67509 1.133 2.47767 4.0366 3.21028l3.0454.7682c5.0986 1.291 7.5066 3.106 7.5066 7.1544 0 4.6767-2.6208 7.2942-9.9146 7.2942zm-44.1555.5584c-6.4795 0-10.3752-3.4201-10.3752-10.1205v-15.356648h4.7449v15.075848c0 3.6299 1.1691 6.2818 5.6303 6.2818s5.6302-2.4776 5.6302-6.3173v-15.07587h4.745v15.35667c0 6.6315-3.8946 10.156-10.3752 10.156zm-23.4051-25.477148h-4.7799v20.172148c0 3.3502 1.41685 4.7466 4.28434 4.7466h9.24216v-4.0828h-6.94005c-1.38081 0-1.80542-.4185-1.80542-1.745v-19.090948z" fill="#243542"/></g></svg>