<?xml version="1.0" encoding="iso-8859-1"?>
<!-- Generator: Adobe Illustrator 19.0.0, SVG Export Plug-In . SVG Version: 6.00 Build 0)  -->
<svg version="1.1" id="Layer_1" xmlns="http://www.w3.org/2000/svg" xmlns:xlink="http://www.w3.org/1999/xlink" x="0px" y="0px"
	 viewBox="0 0 512 512" style="enable-background:new 0 0 512 512;" xml:space="preserve">
<g>
	<path style="fill:#F2F2F2;" d="M379.965,10.199h-247.93c-10.52,0-19.048,8.529-19.048,19.048v33.717h286.026V29.247
		C399.013,18.728,390.486,10.199,379.965,10.199z"/>
	<path style="fill:#F2F2F2;" d="M132.035,501.801h247.929c10.521,0,19.048-8.529,19.048-19.048v-59.756H112.987v59.756
		C112.987,493.272,121.515,501.801,132.035,501.801z"/>
</g>
<rect x="112.987" y="62.964" style="fill:#1FCFC1;" width="286.026" height="360.032"/>
<path style="fill:#847C7C;" d="M256,476.029L256,476.029c7.248,0,13.123-5.876,13.123-13.123v-1.016
	c0-7.248-5.876-13.123-13.123-13.123l0,0c-7.248,0-13.123,5.876-13.123,13.123v1.016C242.877,470.154,248.752,476.029,256,476.029z"
	/>
<g>
	<path style="fill:#4D4D4D;" d="M102.788,482.752c0,16.128,13.12,29.248,29.248,29.248h247.929c16.127,0,29.247-13.12,29.247-29.248
		V29.248C409.212,13.12,396.092,0,379.965,0H132.036c-16.128,0-29.248,13.12-29.248,29.248V482.752z M123.186,73.163h265.628
		v339.633H123.186V73.163z M123.186,29.248c0-4.879,3.971-8.85,8.85-8.85h247.929c4.879,0,8.849,3.971,8.849,8.85v23.517H123.186
		V29.248z M388.814,482.752c0,4.879-3.97,8.85-8.849,8.85H132.036c-4.879,0-8.85-3.971-8.85-8.85v-49.557h265.628V482.752z"/>
	<path style="fill:#4D4D4D;" d="M256,486.229c12.86,0,23.323-10.462,23.323-23.323v-1.016c0-12.86-10.462-23.323-23.323-23.323
		c-12.86,0-23.323,10.462-23.323,23.323v1.016C232.677,475.767,243.14,486.229,256,486.229z M253.076,461.89
		c0-1.612,1.312-2.924,2.924-2.924c1.613,0,2.924,1.312,2.924,2.924v1.016c0,1.612-1.312,2.924-2.924,2.924
		c-1.613,0-2.924-1.312-2.924-2.924V461.89z"/>
	<path style="fill:#4D4D4D;" d="M270.279,25.227h-28.558c-5.633,0-10.199,4.567-10.199,10.199s4.566,10.199,10.199,10.199h28.558
		c5.633,0,10.199-4.567,10.199-10.199S275.912,25.227,270.279,25.227z"/>
	<path style="fill:#4D4D4D;" d="M144.693,253.689c-5.633,0-10.199,4.567-10.199,10.199v128.51c0,5.632,4.566,10.199,10.199,10.199
		c5.633,0,10.199-4.567,10.199-10.199v-128.51C154.892,258.256,150.326,253.689,144.693,253.689z"/>
	<path style="fill:#4D4D4D;" d="M144.693,213.912c-5.633,0-10.199,4.567-10.199,10.199v9.179c0,5.632,4.566,10.199,10.199,10.199
		c5.633,0,10.199-4.567,10.199-10.199v-9.179C154.892,218.479,150.326,213.912,144.693,213.912z"/>
</g>
<g>
</g>
<g>
</g>
<g>
</g>
<g>
</g>
<g>
</g>
<g>
</g>
<g>
</g>
<g>
</g>
<g>
</g>
<g>
</g>
<g>
</g>
<g>
</g>
<g>
</g>
<g>
</g>
<g>
</g>
</svg>
