<?xml version="1.0" encoding="UTF-8"?>
<svg width="289px" height="156px" viewBox="0 0 289 156" version="1.1" xmlns="http://www.w3.org/2000/svg" xmlns:xlink="http://www.w3.org/1999/xlink">
    <!-- Generator: Sketch 63.1 (92452) - https://sketch.com -->
    <title>01</title>
    <desc>Created with Sketch.</desc>
    <defs>
        <rect id="path-1" x="0" y="0" width="289" height="156" rx="1"></rect>
        <linearGradient x1="50.0191515%" y1="99.9884545%" x2="50.0191515%" y2="-0.00658305107%" id="linearGradient-3">
            <stop stop-color="#808080" stop-opacity="0.25" offset="0%"></stop>
            <stop stop-color="#808080" stop-opacity="0.12" offset="54%"></stop>
            <stop stop-color="#808080" stop-opacity="0.1" offset="100%"></stop>
        </linearGradient>
    </defs>
    <g id="Landing-Page-Update-+-Mobile" stroke="none" stroke-width="1" fill="none" fill-rule="evenodd">
        <g id="Landing-Copy-6" transform="translate(-136.000000, -3874.000000)">
            <g id="01" transform="translate(136.000000, 3874.000000)">
                <mask id="mask-2" fill="white">
                    <use xlink:href="#path-1"></use>
                </mask>
                <use id="bg" fill="#5B9EEF" xlink:href="#path-1"></use>
                <path d="M87.5691446,-19.7768762 C99.4434417,-30.5025774 118.084877,-32.6865987 135.051187,-31.8330382 C188.343154,-29.1508535 236.449203,-3.10055218 278.060738,26.3670287 C293.124738,37.0350159 307.955493,48.5413757 317.742701,63.2220084 C337.650323,93.1270011 331.743466,134.556579 304.066055,159.191367 C294.648404,167.575093 283.23151,173.999578 271.5117,179.698082 C250.674126,189.82538 228.194749,197.953948 204.540059,200.268586 C187.67371,201.917993 170.613495,200.572344 153.831963,198.275932 C106.986044,191.842334 61.003434,177.620376 22.460435,153.277196 C5.54864908,142.603133 -10.384719,129.331938 -17.351781,112.054173 C-24.3188431,94.776408 -19.8599234,72.9027816 -2.59978439,62.6813189 C4.53993965,58.453005 13.0730761,56.5454037 21.4305215,54.7501929 C33.7319298,52.1135719 46.2272041,49.5103643 57.3290661,44.1459949 C68.7944269,38.6054457 82.3680814,27.8888572 80.0992424,15.6231019 C77.6637999,2.47341039 75.7099933,-9.08458829 87.5691446,-19.7768762 Z" id="Path" fill="#FFFFFF" fill-rule="nonzero" opacity="0.191378348" style="mix-blend-mode: soft-light;" mask="url(#mask-2)"></path>
                <g id="illustration" mask="url(#mask-2)">
                    <g transform="translate(-53.000000, -15.500000)">
                        <g id="checklist" transform="translate(246.000000, 49.500000)">
                            <path d="M8.07442629,13.5 C7.70557392,12.4109181 3.08010485,8.70885277 5.91447258,8.08660551 L8.23883443,11.18575 L18.9252185,0.5 L20,1.57473795 L8.07442629,13.5 Z" id="Path" fill="#102A43" fill-rule="nonzero"></path>
                            <path d="M8.07442629,40 C7.70557392,38.9109211 3.08010485,35.2088549 5.91447258,34.5866074 L8.23883443,37.6857527 L18.9252185,27 L20,28.0747382 L8.07442629,40 Z" id="Path" fill="#102A43" fill-rule="nonzero"></path>
                            <path d="M8.07442629,67 C7.70557392,65.9109211 3.08010485,62.2088549 5.91447258,61.5866074 L8.23883443,64.6857527 L18.9252185,54 L20,55.0747349 L8.07442629,67 Z" id="Path" fill="#102A43" fill-rule="nonzero"></path>
                            <path d="M8.07442629,94 C7.70557392,92.9109211 3.08010485,89.2088549 5.91447258,88.5866074 L8.23883443,91.6857527 L18.9252185,81 L20,82.0747349 L8.07442629,94 Z" id="Path-Copy" fill="#102A43" fill-rule="nonzero"></path>
                            <circle id="Oval" fill="#FFFFFF" fill-rule="nonzero" cx="30.75" cy="8.75" r="3.25"></circle>
                            <rect id="Rectangle" fill="#FFFFFF" fill-rule="nonzero" x="43.5" y="8.5" width="53.5" height="1"></rect>
                            <circle id="Oval" fill="#FFFFFF" fill-rule="nonzero" cx="30.75" cy="35.25" r="3.25"></circle>
                            <rect id="Rectangle" fill="#FFFFFF" fill-rule="nonzero" x="43.5" y="35" width="53.5" height="1"></rect>
                            <circle id="Oval" fill="#FFFFFF" fill-rule="nonzero" cx="30.75" cy="62.75" r="3.25"></circle>
                            <circle id="Oval-Copy" fill="#FFFFFF" fill-rule="nonzero" cx="30.75" cy="89.75" r="3.25"></circle>
                            <rect id="Rectangle" fill="#FFFFFF" fill-rule="nonzero" x="43.5" y="62.5" width="53.5" height="1"></rect>
                            <rect id="Rectangle-Copy-6" fill="#FFFFFF" fill-rule="nonzero" x="43.5" y="89.5" width="53.5" height="1"></rect>
                            <polygon id="Path" fill="#FFFFFF" fill-rule="nonzero" points="16.5 72 0 72 0 55 11.22 55 11.22 55.6666667 0.66 55.6666667 0.66 71.3333333 15.84 71.3333333 15.84 63.6666667 16.5 63.6666667"></polygon>
                            <polygon id="Path-Copy-2" fill="#FFFFFF" fill-rule="nonzero" points="16.5 99 0 99 0 82 11.22 82 11.22 82.6666667 0.66 82.6666667 0.66 98.3333333 15.84 98.3333333 15.84 90.6666667 16.5 90.6666667"></polygon>
                            <polygon id="Path" fill="#FFFFFF" fill-rule="nonzero" points="16.5 45 0 45 0 28 11.22 28 11.22 28.6666667 0.66 28.6666667 0.66 44.3333333 15.84 44.3333333 15.84 36.6666667 16.5 36.6666667"></polygon>
                            <polygon id="Path" fill="#FFFFFF" fill-rule="nonzero" points="16.5 17 0 17 0 0 11.22 0 11.22 0.666666667 0.66 0.666666667 0.66 16.3333333 15.84 16.3333333 15.84 8.66666667 16.5 8.66666667"></polygon>
                        </g>
                        <g id="learn">
                            <path d="M171.5,174.840546 L148.119734,183.847756 L113.945528,197 C112.656595,194.616489 110.754662,191.355698 108.400552,187.484525 C100.308011,174.128046 86.9152279,153.354139 74.995511,135.098351 C61.5607735,114.528678 50,97.1594536 50,97.1594536 L58.3699068,94.7434512 L126.736965,75 L171.5,174.840546 Z" id="Path" fill="#000000" fill-rule="nonzero" opacity="0.1"></path>
                            <path d="M171.5,173.340546 L148.119734,182.347756 L113.945528,195.5 C112.656595,193.116489 110.754662,189.855698 108.400552,185.984525 C100.308011,172.628046 86.9152279,151.854139 74.995511,133.598351 C61.5607735,113.028678 50,95.6594536 50,95.6594536 L58.3699068,93.2434512 L126.736965,73.5 L171.5,173.340546 Z" id="Path" fill="#FFFFFF" fill-rule="nonzero"></path>
                            <path d="M171.5,173.760423 L148.249954,182.805513 C135.264344,185.525319 122.013123,186.750555 108.751993,186.457575 C100.704524,173.044926 87.3863341,152.183655 75.5330057,133.851093 L59,93.3264818 L126.986279,73.5 L171.5,173.760423 Z" id="Path" fill="#000000" fill-rule="nonzero" opacity="0.1"></path>
                            <path d="M188.5,167.7169 C188.5,167.7169 152.526481,189.119849 98.820122,184.290371 L56,79.2979679 L76.5190331,75.7524804 L147.450392,63.5 L187.69669,165.68759 L188.5,167.7169 Z" id="Path" fill="#FFFFFF" fill-rule="nonzero"></path>
                            <path d="M187.5,165.259439 C179.003042,165.675623 169.177132,165.636317 159.286395,164.459439 C148.585322,163.206261 137.833313,160.612044 128.595475,155.862916 C120.881071,151.892978 114.284931,147.580843 108.531541,142.40397 C93.5727278,128.965832 84.3140534,109.74273 76,75.7011442 L147.142922,63.5 L187.5,165.259439 Z" id="Path" fill="#000000" fill-rule="nonzero" opacity="0.1"></path>
                            <path d="M214,159.930591 C214,159.930591 187.354585,165.181519 160.25936,161.947488 C149.542764,160.676726 138.763567,158.067584 129.523924,153.278328 C121.79833,149.274846 115.192623,144.926276 109.430888,139.70566 C90.882043,122.917614 81.0952088,97.2179149 71,45.2938896 C71,45.2938896 115.285367,56.0405703 159.039773,32.5 C159.039773,32.5 173.797698,125.130372 214,159.930591 Z" id="Path" fill="#FFFFFF" fill-rule="nonzero"></path>
                            <path d="M160.5,162 C149.852659,160.737604 139.143121,158.145639 129.963188,153.387912 C122.287519,149.410785 115.724501,145.090843 110,139.904596 C125.685362,138.62367 127.940608,130 127.940608,130 C139.569291,148.558379 160.5,162 160.5,162 Z" id="Path" fill="#000000" fill-rule="nonzero" opacity="0.1"></path>
                            <path d="M94.5,64.7830146 C94.5,64.7830146 118.248843,67.4944727 140.476926,55 L142,59.8926651 C142,59.8926651 120.734833,70.5 94.5,70.5 L94.5,64.7830146 Z" id="Path" fill="#6C63FF" fill-rule="nonzero" opacity="0.3"></path>
                            <path d="M94.5,88.7041007 C94.5,88.7041007 117.978736,86.7865797 144.116095,74 L145,76.0456664 C145,76.0456664 135.380624,88.2986952 94.5,91.5 L94.5,88.7041007 Z" id="Path" fill="#000000" fill-rule="nonzero" opacity="0.3"></path>
                            <path d="M97.5,98.1900359 C97.5,98.1900359 120.978736,96.2740455 147.116095,83.5 L148,85.5440335 C148,85.5440335 138.382925,97.7989224 97.5,101 L97.5,98.1900359 Z" id="Path" fill="#000000" fill-rule="nonzero" opacity="0.3"></path>
                            <path d="M100,109.190036 C100,109.190036 123.478736,107.274045 149.616095,94.5 L150.5,96.5440335 C150.5,96.5440335 140.869114,108.791938 100,112 L100,109.190036 Z" id="Path" fill="#000000" fill-rule="nonzero" opacity="0.3"></path>
                            <path d="M102.5,117.688082 C102.5,117.688082 125.978736,115.772346 152.116095,103 L153,105.043762 C153,105.043762 143.382925,117.292365 102.5,120.5 L102.5,117.688082 Z" id="Path" fill="#000000" fill-rule="nonzero" opacity="0.3"></path>
                            <path d="M106.5,126.690036 C106.5,126.690036 129.978736,124.774045 156.116095,112 L157,114.044034 C157,114.044034 147.380624,126.294266 106.5,129.5 L106.5,126.690036 Z" id="Path" fill="#000000" fill-rule="nonzero" opacity="0.1"></path>
                            <polygon id="Rectangle" fill="#6C63FF" fill-rule="nonzero" opacity="0.3" transform="translate(152.708680, 72.025447) rotate(-18.800000) translate(-152.708680, -72.025447) " points="149.211279 68.5249224 156.208486 68.5225168 156.20608 75.5259712 149.208873 75.5283768"></polygon>
                            <polygon id="Rectangle" fill="#6C63FF" fill-rule="nonzero" opacity="0.3" transform="translate(156.476515, 81.889771) rotate(-18.800000) translate(-156.476515, -81.889771) " points="152.979115 78.3892468 159.976322 78.3868412 159.973916 85.3902956 152.976709 85.3927013"></polygon>
                            <polygon id="Rectangle" fill="#6C63FF" fill-rule="nonzero" opacity="0.3" transform="translate(162.516813, 100.869713) rotate(-18.800000) translate(-162.516813, -100.869713) " points="159.019412 97.3691889 166.016619 97.3667833 166.014213 104.370238 159.017006 104.372643"></polygon>
                            <polygon id="Rectangle" fill="#6C63FF" fill-rule="nonzero" opacity="0.3" transform="translate(165.982478, 111.056492) rotate(-18.800000) translate(-165.982478, -111.056492) " points="162.485078 107.555968 169.482285 107.553562 169.479879 114.557017 162.482672 114.559422"></polygon>
                            <polygon id="Rectangle" fill="#6C63FF" fill-rule="nonzero" opacity="0.3" transform="translate(159.548609, 92.137128) rotate(-18.800000) translate(-159.548609, -92.137128) " points="156.051208 88.6366036 163.048415 88.6341979 163.046009 95.6376524 156.048803 95.640058"></polygon>
                            <path d="M231.007742,117.042598 L230.760256,116.810538 C231.398632,116.680584 232,116.622569 232,116.622569 C232,116.622569 229.809632,108.672196 226.115843,106.019751 C224.288609,104.708613 222.766685,102.524929 221.691161,100.652205 C219.730616,97.2658645 217.528326,94.0263517 215.101553,90.9590618 L214.435422,90.1166843 L214.148616,89.7500296 C214.548757,89.1420326 215.039103,88.5642034 214.983592,87.8587412 C214.98251,87.8541635 214.98251,87.8493953 214.983592,87.8448176 C214.985907,87.8077243 214.985907,87.7705221 214.983592,87.7334288 C214.976868,87.6462215 214.961369,87.5599202 214.937333,87.4758423 L214.911891,87.5152925 C214.599642,86.6056176 213.399218,86.2041539 212.508731,85.7029044 C210.427071,84.5263606 209.536584,81.9551366 209.092497,79.5649193 C208.745553,77.7084399 208.458747,75.6199006 207.010837,74.4247919 C206.085655,73.6566736 204.827408,73.4037282 203.895287,72.6402511 C203.011739,71.9162241 202.519079,70.8185806 201.96397,69.8091199 C201.038788,68.1266855 199.817548,66.5602809 198.205419,65.5554615 C196.593289,64.550642 194.546324,64.1631019 192.776914,64.8360757 C192.099218,65.0959828 191.483972,65.4997671 190.813216,65.7805596 C189.147888,66.4767394 187.2397,66.3839154 185.590564,67.1195454 C183.55979,68.0245791 182.239092,70.0249357 181.03173,71.9231859 C180.407232,72.9047994 179.426539,74.3412503 178.869117,75.7869837 C178.869117,75.7359305 178.869117,75.6871979 178.869117,75.6361447 C178.601746,76.2731473 178.455821,76.9548098 178.438908,77.6457837 C178.427953,77.9397152 178.459901,78.2336742 178.533739,78.5183291 C178.783538,79.4465688 179.528309,79.9594212 180.411858,80.3167935 C180.463015,80.6120724 180.530972,80.904172 180.615398,81.1916594 C181.426957,83.8714029 183.490173,85.9856103 186.14336,86.8562423 C186.219687,86.8840895 186.298328,86.9026543 186.374655,86.9258603 C186.438943,87.1095585 186.531842,87.2818733 186.649897,87.4363921 C187.38773,88.3646318 188.868021,88.1000835 189.83021,87.4247891 C189.86953,87.3992625 189.906537,87.3667741 189.943545,87.3389269 C189.950024,87.4703384 189.963924,87.6012756 189.985178,87.7311082 C190.005994,87.842497 190.022185,87.9631681 190.045315,88.0629539 C190.912673,92.7528851 193.133109,95.2846589 193.133109,95.2846589 C193.133109,95.2846589 193.338962,95.5956192 193.67434,96.1107922 C193.498556,98.6982604 194.67585,101.055989 196.035867,102.87766 C194.863199,103.557595 192.33514,104.889619 190.771582,104.778231 C190.771582,104.778231 185.026203,105.523143 184.360072,105.149526 C184.267554,105.098473 184.179661,105.168091 184.096395,105.325892 C182.514334,104.358202 177.455902,101.568842 177.02338,105.149526 C176.63249,108.398365 181.242209,108.813753 183.437203,108.829997 C183.337746,109.781443 183.282235,110.542599 183.282235,110.542599 L192.721403,109.895152 L197.636432,109.168804 C197.092888,109.890511 196.479955,110.533317 195.880899,110.846598 C195.880899,110.846598 191.437713,114.45513 190.669812,114.487618 C190.561103,114.487618 190.526409,114.596686 190.5426,114.770731 C188.673732,114.770731 182.861277,115.042241 184.473407,118.29108 C185.937507,121.235921 190.059192,119.198435 191.923434,118.072944 C192.362895,118.929245 192.737594,119.599898 192.737594,119.599898 L200.354154,114.158093 L202.00329,112.765733 C202.562228,112.73872 203.114444,112.631663 203.643175,112.447811 C203.643175,112.468697 203.659366,112.489582 203.666305,112.508147 C203.725205,112.678835 203.769315,112.854304 203.798143,113.032602 C204.260734,115.698971 202.706429,121.918177 202.706429,121.918177 C202.706429,121.918177 199.287882,130.664516 200.930079,131.857304 C202.572277,133.050092 201.357976,138.083471 201.357976,138.083471 C201.644612,138.567268 201.974403,139.023978 202.343295,139.447984 L202.343295,139.447984 C202.517198,139.649464 202.710066,139.833644 202.91922,139.997966 C202.842907,140.206548 202.779565,140.419679 202.729558,140.636131 C202.478635,141.70845 202.573389,142.833002 203.000174,143.84784 C204.128896,146.59543 203.441948,150.577578 203.441948,150.577578 L201.226138,165.596497 C200.162178,165.434055 198.788283,165.29946 198.27712,165.596497 C197.493029,166.039731 197.749767,168.274468 199.570062,169.235196 C199.01739,169.659747 198.377391,169.955437 197.696569,170.10078 C196.0775,170.472076 194.939527,170.708777 194.190129,170.852654 C194.141557,170.852654 190.304365,170.003315 189.319047,170.5649 C188.333728,171.126485 188.807884,174.240729 191.611185,175.004206 C194.354349,175.749118 204.584548,176.842121 207.531252,176.396566 L207.718601,176.364077 C210.223531,175.867469 208.023911,172.565256 207.746357,172.163793 C207.727853,172.029198 207.711663,171.887641 207.693159,171.734482 C207.653839,171.391033 207.619144,170.996531 207.593702,170.574182 C210.387751,170.831769 213.144793,170.957081 214.409979,170.766792 C214.470116,170.766792 214.525627,170.748227 214.576512,170.736624 C216.794636,170.29571 214.851754,167.376396 214.601955,167.023665 C214.591161,166.933935 214.579596,166.838791 214.56726,166.738231 L214.56726,166.712705 C214.56726,166.645407 214.55107,166.573469 214.544131,166.503851 C214.537192,166.434233 214.544131,166.3855 214.525627,166.322844 C214.507124,166.260188 214.525627,166.211455 214.509436,166.15344 C214.500185,166.038958 214.490933,165.920607 214.481681,165.798389 C214.481681,165.749656 214.481681,165.698603 214.481681,165.64755 C214.481681,165.554726 214.470116,165.461902 214.46549,165.366757 C214.46549,165.315704 214.46549,165.264651 214.46549,165.211277 C214.46549,165.072041 214.46549,164.928164 214.451613,164.784287 C214.451613,164.744837 214.451613,164.705386 214.451613,164.665936 C214.451613,164.549906 214.451613,164.433876 214.451613,164.313205 C214.451613,164.257511 214.451613,164.201816 214.451613,164.143801 C214.451613,164.02081 214.451613,163.897818 214.451613,163.772506 C214.451613,163.730735 214.451613,163.691285 214.451613,163.649514 C214.451613,163.494034 214.46549,163.333912 214.474742,163.173791 L214.48862,163.002067 C214.48862,162.883716 214.507124,162.770007 214.518688,162.649336 C214.518688,162.591321 214.518688,162.533306 214.537192,162.475291 C214.555696,162.312849 214.576512,162.150407 214.599642,161.985644 C214.599642,161.936912 214.615832,161.888179 214.622771,161.839446 C214.643588,161.716455 214.664404,161.591142 214.687534,161.46583 C214.687534,161.405494 214.710664,161.342838 214.724541,161.280182 C214.752297,161.145587 214.782365,161.010992 214.814747,160.876398 C214.814747,160.839268 214.830937,160.802138 214.840189,160.765009 C214.881822,160.602567 214.928081,160.442446 214.976653,160.282324 C214.992844,160.22663 215.011348,160.170935 215.029851,160.115241 C215.069172,159.99457 215.110805,159.883181 215.154751,159.757869 L215.210262,159.60935 C215.272712,159.45155 215.339787,159.29607 215.409176,159.145231 C215.42768,159.10578 215.448496,159.06633 215.469313,159.02688 C215.527137,158.906209 215.589586,158.79482 215.654349,158.669508 L215.73299,158.532592 C215.820882,158.384074 215.911087,158.235556 216.010544,158.093999 C218.554794,154.455299 219.225551,147.437807 219.163101,145.910853 C219.100652,144.383899 219.466098,141.216281 219.921751,140.747519 C220.227061,140.434239 222.00341,137.9628 223.065056,136.083115 C223.257031,135.739666 223.423564,135.417103 223.555402,135.129349 C224.309426,134.867121 224.809024,134.665229 224.809024,134.665229 L224.809024,134.665229 L224.809024,134.665229 C224.543276,133.690949 224.415581,132.683981 224.429699,131.673976 C224.448203,129.699146 224.989434,127.097754 227.223749,124.986009 C230.522022,121.867124 230.9823,118.776085 231.026246,117.587939 C231.026246,117.504397 231.026246,117.430138 231.026246,117.367482 C231.019307,117.149345 231.007742,117.042598 231.007742,117.042598 Z" id="Path" fill="url(#linearGradient-3)" fill-rule="nonzero"></path>
                            <path d="M221.744764,135.542382 C220.839641,137.123554 219.823757,138.641636 218.704382,140.085762 C218.264696,140.543073 217.911544,143.632206 217.972351,145.116179 C218.033159,146.600152 217.390001,153.441518 214.931969,156.985675 C212.473936,160.529832 213.736864,166.655507 213.736864,166.655507 L209.814771,168 L205.102178,168 L201.855985,167.051081 L201,164.741662 C201,164.741662 202.141313,164.570171 204.975885,163.911643 C206.591634,163.590007 207.79113,162.256561 207.911024,160.648732 L209.901305,147.059749 C209.901305,147.059749 210.488332,143.629919 209.520088,141.256478 C208.967399,139.902821 209.084777,138.375528 209.838158,137.117817 L209.901305,137.021782 C209.901305,137.021782 212.972091,134.650626 216.101347,133.166653 C218.872772,131.858745 221.683957,131.236803 222.481472,133.557654 C222.584378,133.857192 222.247597,134.627761 221.744764,135.542382 Z" id="Path" fill="#A5636D" fill-rule="nonzero"></path>
                            <path d="M221.744764,135.543057 C220.839641,137.124531 219.823757,138.642902 218.704382,140.087303 C218.264696,140.544701 217.911544,143.634423 217.972351,145.118679 C218.033159,146.602934 217.390001,153.445604 214.931969,156.990437 C213.201289,159.490115 213.315888,163.26822 213.528715,165.283057 C213.619927,166.126956 213.732187,166.655251 213.732187,166.655251 L209.810093,168 L205.102178,168 L201.855985,167.057761 L201,164.747902 C201,164.747902 201.285328,164.704449 201.935502,164.580952 C202.585676,164.457455 203.572631,164.247052 204.989917,163.917725 C206.600139,163.59064 207.792753,162.258222 207.911024,160.654192 L209.901305,147.062619 C209.901305,147.062619 210.488332,143.632136 209.520088,141.258242 C208.967399,139.904327 209.084777,138.376743 209.838158,137.118792 L209.901305,137.022739 C209.901305,137.022739 212.972091,134.651131 216.101347,133.166876 C218.872772,131.858718 221.683957,131.236657 222.481472,133.557951 C222.584378,133.857546 222.247597,134.628262 221.744764,135.543057 Z" id="Path" fill="#000000" fill-rule="nonzero" opacity="0.05"></path>
                            <path d="M214.5,166.627085 L210.496878,168 L205.686926,168 L202.373669,167.028686 L201.5,164.670447 C201.5,164.670447 201.791223,164.626084 202.454829,164.5 C202.357824,165.386815 202.953245,166.204787 203.841719,166.40527 L205.722732,166.468312 C205.987697,166.468312 206.25505,166.482322 206.517628,166.482322 C209.163473,166.483717 211.791323,166.056895 214.294712,165.219146 C214.390195,166.08072 214.5,166.627085 214.5,166.627085 Z" id="Path" fill="#000000" fill-rule="nonzero" opacity="0.1"></path>
                            <path d="M205.923962,168.112159 L204.149584,168.042126 C204.149584,168.042126 202.494398,167.637488 202.899199,165.471637 C202.899199,165.471637 199.705768,164.636423 198.88942,165.188909 C198.073071,165.741396 198.466628,168.78915 200.773993,169.536174 C203.022888,170.265041 211.447246,171.336294 213.869306,170.897936 L214.02448,170.86681 C216.219401,170.348043 214.02448,166.716677 214.02448,166.716677 L214.02448,166.716677 C211.420071,167.744807 208.675176,168.217672 205.923962,168.112159 L205.923962,168.112159 Z" id="Path" fill="#BEBED0" fill-rule="nonzero"></path>
                            <path d="M216.957168,136.412817 C216.832009,136.657399 216.697405,136.911211 216.543909,137.176559 C215.374979,139.253199 213.499968,141.867458 213.171723,142.206643 C212.67109,142.72811 212.272,146.244554 212.33576,147.942784 C212.39952,149.641014 211.672186,157.421491 208.871476,161.459402 C207.43806,163.536042 207.114538,166.36258 207.138153,168.637654 C207.14521,169.408568 207.19171,170.178656 207.27748,170.945032 C207.381385,171.884135 207.513628,172.470209 207.513628,172.470209 L203.045716,174 L197.668637,174 L193.968205,172.924762 L193,170.285122 C193,170.285122 193.323522,170.23436 194.050857,170.09361 C194.778191,169.95286 195.911699,169.717507 197.531671,169.343712 C199.36821,168.972524 200.73011,167.456297 200.868436,165.628834 L203.133091,150.153251 C203.133091,150.153251 203.801388,146.242246 202.700941,143.542614 C202.285545,142.540583 202.193267,141.438491 202.436456,140.383814 C202.568125,139.791389 202.808117,139.227039 203.144898,138.717888 C203.144898,138.717888 204.009198,138.053363 205.312733,137.174252 C205.888933,136.786612 206.55723,136.35744 207.275119,135.923653 C210.43005,134.015452 214.579162,132.068025 216.567524,133.487062 C217.006104,133.810339 217.327202,134.262355 217.483777,134.776886 C217.564067,135.044542 217.339727,135.651383 216.957168,136.412817 Z" id="Path" fill="#A5636D" fill-rule="nonzero"></path>
                            <path d="M207,172.737744 L202.686696,174.5 L197.507084,174.5 L193.934701,173.26137 L193,170.220614 C193,170.220614 193.312327,170.162138 194.014493,170 C193.923414,170.731647 194.150785,171.468136 194.620909,171.964265 C194.980374,172.320484 195.434978,172.519714 195.906693,172.527761 L197.54128,172.588895 C197.82625,172.588895 198.113499,172.607501 198.398469,172.607501 C201.251169,172.606676 204.084205,172.057061 206.783423,170.980803 C206.883732,172.062611 207,172.737744 207,172.737744 Z" id="Path" fill="#000000" fill-rule="nonzero" opacity="0.1"></path>
                            <path d="M198.277264,173.370629 L196.591347,173.310885 C196.103659,173.302075 195.633774,173.115679 195.26098,172.783148 C194.832437,172.379878 194.462759,171.682867 194.702932,170.510396 C194.702932,170.510396 190.93552,169.606771 189.963056,170.204209 C188.990593,170.801647 189.466229,174.104979 192.190539,174.914009 C194.858338,175.703125 204.804306,176.86315 207.66754,176.390178 L207.848846,176.355328 C210.438942,175.79274 207.848846,171.85463 207.848846,171.85463 L207.848846,171.85463 C204.772232,172.971826 201.528486,173.485588 198.277264,173.370629 L198.277264,173.370629 Z" id="Path" fill="#BEBED0" fill-rule="nonzero"></path>
                            <path d="M222.240161,135.293418 C220.641971,135.879388 218.294849,136.656595 217.006965,136.688468 C216.873688,136.693854 216.740217,136.687292 216.608001,136.668854 L216.608001,136.668854 C215.707415,136.538911 212.923999,136.74731 210.371562,136.987583 C209.347321,137.083201 208.362742,137.183723 207.548482,137.271987 C206.335258,137.404381 205.5,137.5 205.5,137.5 L205.5,136.668854 C206.069282,136.256959 206.729556,135.800932 207.438826,135.340001 C210.555879,133.312398 214.655176,131.243114 216.619666,132.750945 C219.384418,131.348539 222.188832,130.681661 222.984427,133.170196 C223.077752,133.486472 222.741782,134.312715 222.240161,135.293418 Z" id="Path" fill="#000000" fill-rule="nonzero" opacity="0.1"></path>
                            <path d="M229.99825,117.49575 C229.953793,118.666282 229.509221,121.704586 226.322343,124.775213 C222.26036,128.68853 223.982491,134.308007 223.982491,134.308007 C223.982491,134.308007 219.138997,136.185014 217.049509,136.235806 C216.915848,136.240878 216.781992,136.234699 216.649395,136.217337 C215.395234,136.044181 210.416029,136.499003 207.55439,136.785287 C206.337667,136.909959 205.5,137 205.5,137 L205.5,120.37706 L227.9462,115 L229.979531,116.997062 C229.997156,117.162685 230.00341,117.329294 229.99825,117.49575 Z" id="Path" fill="#5C5C8E" fill-rule="nonzero"></path>
                            <g id="Group"></g>
                            <g id="Group" opacity="0.1" transform="translate(205.500000, 115.000000)" fill="#000000" fill-rule="nonzero">
                                <path d="M0.506179245,21.5826804 L0.140990566,21.6212371 L0.140990566,21.7936082 C0.140990566,21.7936082 0.968443396,21.7051546 2.17033019,21.5826804 C4.19966981,21.3808247 7.29915094,21.0973196 9.34929245,21.0134021 C7.93014151,20.8863918 3.24278302,21.3105155 0.506179245,21.5826804 Z" id="Path"></path>
                                <path d="M24.3220283,2.14329897 L22.3134906,0.179175258 L20.9752358,0.508041237 L22.6578774,2.15237113 C22.6692277,2.31623708 22.6692277,2.48067014 22.6578774,2.64453608 C22.6139623,3.79216495 22.1748113,6.77917526 19.0267925,9.7956701 C15.0143396,13.637732 16.7154717,19.1604124 16.7154717,19.1604124 C16.7154717,19.1604124 12.7561792,20.6845361 10.4887736,20.9997938 C10.7049789,20.9991143 10.9210494,21.0104728 11.1359434,21.0338144 C11.2668516,21.051695 11.3990815,21.0585242 11.5311792,21.0542268 C13.5951887,21.0043299 18.3796226,19.1604124 18.3796226,19.1604124 C18.3796226,19.1604124 16.6692453,13.637732 20.6909434,9.7956701 C23.8389623,6.77917526 24.2781132,3.79216495 24.3220283,2.64453608 C24.3338014,2.47765675 24.3338014,2.3101783 24.3220283,2.14329897 Z" id="Path"></path>
                            </g>
                            <path d="M185,105.971351 C185,105.971351 178.499446,100.773198 178.021991,105.454636 C177.544537,110.136073 185,109.466927 185,109.466927 L185,105.971351 Z" id="Path" fill="#A5636D" fill-rule="nonzero"></path>
                            <path d="M196.870784,103 C196.870784,103 193.076471,105.418876 190.977386,105.269735 C190.977386,105.269735 185.241176,106.010778 184.573725,105.640256 C183.906275,105.269735 183.5,111 183.5,111 L192.931373,110.359161 L198.977124,109.468978 C198.977124,109.468978 202,107.693271 202,106.162249 C202,104.631226 196.870784,103 196.870784,103 Z" id="Path" fill="#F7CDDD" fill-rule="nonzero"></path>
                            <path d="M196.870784,103 C196.870784,103 193.076471,105.418876 190.977386,105.269735 C190.977386,105.269735 185.241176,106.010778 184.573725,105.640256 C183.906275,105.269735 183.5,111 183.5,111 L192.931373,110.359161 L198.977124,109.468978 C198.977124,109.468978 202,107.693271 202,106.162249 C202,104.631226 196.870784,103 196.870784,103 Z" id="Path" fill="#000000" fill-rule="nonzero" opacity="0.05"></path>
                            <path d="M191.275457,115.008465 C191.275457,115.008465 182.897409,114.635596 184.773978,118.839306 C186.650546,123.043015 193,117.940335 193,117.940335 L191.275457,115.008465 Z" id="Path" fill="#A5636D" fill-rule="nonzero"></path>
                            <path d="M199.5,106.5 C199.5,106.5 192.624446,101.48337 193.593613,95.3738236 C194.56278,89.2642769 199.5,100.050383 199.5,100.050383 L199.5,106.5 Z" id="Path" fill="#5C5C8E" fill-rule="nonzero"></path>
                            <path d="M198,79.2480485 C197.997691,81.3877756 197.16548,83.4431351 195.678577,84.9813962 C195.316658,85.3593972 194.917452,85.6998176 194.48705,85.9974614 C193.665298,86.5706523 192.748841,86.9942335 191.779866,87.2487058 C191.394798,87.3449087 191.003536,87.4143345 190.608883,87.4564854 C190.325838,87.4838849 190.040511,87.5 189.750619,87.5 C188.824909,87.5051715 187.905223,87.3506866 187.032021,87.0432094 C183.066618,85.658673 180.774196,81.5149514 181.707485,77.4187187 C182.640774,73.3224859 186.501792,70.5815987 190.675348,71.0525468 C194.848904,71.523495 198.002454,75.0559128 198,79.2571817 L198,79.2480485 Z" id="Path" fill="#A5636D" fill-rule="nonzero"></path>
                            <path d="M229.990371,117.520031 C229.241602,117.659903 228.317195,117.911673 228.317195,118.303315 C228.317195,118.963046 217.876019,122.518132 217.876019,122.518132 C217.876019,122.518132 218.266581,123.436626 217.224312,125.017182 C216.182043,126.597738 207.695987,135.680107 207.695987,135.680107 L207.723719,135.950527 L207.832337,136.997237 L208.350005,142 C208.350005,142 205.086849,140.815749 204.042269,140.946296 C203.70486,140.990589 203.348964,140.771456 203,140.456743 C203.128856,139.858201 203.363721,139.288023 203.693305,138.773614 C203.693305,138.773614 204.539138,138.102228 205.814819,137.214039 L205.814819,120.429373 L227.984408,115 L229.992683,117.016491 C230.003158,117.184199 230.002385,117.352429 229.990371,117.520031 Z" id="Path" fill="#000000" fill-rule="nonzero" opacity="0.1"></path>
                            <path d="M231.5,116.870476 C231.5,116.870476 228.818364,117.131698 228.818364,117.791751 C228.818364,118.451804 218.096568,122.008624 218.096568,122.008624 C218.096568,122.008624 218.497627,122.927566 217.427346,124.508894 C216.357065,126.090221 207.642935,135.179355 207.642935,135.179355 L208.314531,141.5 C208.314531,141.5 204.963673,140.315171 203.891019,140.445782 C203.416393,140.50409 202.882439,140.070275 202.44341,139.564157 C202.080591,139.141968 201.757323,138.688428 201.477547,138.209066 C201.477547,138.209066 202.685469,133.20153 201.076488,132.0167 C199.467506,130.831871 202.818364,122.139235 202.818364,122.139235 C202.818364,122.139235 204.332421,115.958531 203.886272,113.306659 C203.858626,113.12927 203.815756,112.954498 203.758123,112.784214 C203.758123,112.765555 203.746258,112.744564 203.739138,112.725906 C202.789887,110.192983 192.5,88.9360246 192.5,88.9360246 C192.506466,88.3330987 192.549258,87.7310783 192.628149,87.1331248 C192.649507,86.9675286 192.677985,86.7949353 192.708835,86.6200098 C192.761,86.3055049 192.830717,85.9940562 192.917671,85.6870732 C192.972157,85.4902773 193.037112,85.2964266 193.112267,85.1063203 C193.430267,84.3039949 193.916758,83.6859244 194.642935,83.6719304 C194.642935,83.6719304 195.447426,82.7973024 197.334064,82.5594036 C198.715225,82.3821457 200.687295,82.5594036 203.357065,83.6719304 C209.652976,86.3028113 211.129062,86.4380871 211.129062,86.4380871 L214.292442,90.5196844 L214.94268,91.3569949 C217.326219,94.4123043 219.484162,97.6313877 221.399963,100.989564 C222.453633,102.855437 223.946331,105.022182 225.73567,106.325961 C229.354691,108.968504 231.5,116.870476 231.5,116.870476 Z" id="Path" fill="#F7CDDD" fill-rule="nonzero"></path>
                            <path d="M208,101.5 C208,101.5 216.28809,103.771785 219.5,109.5 L208,101.5 Z" id="Path" fill="#000000" fill-rule="nonzero" opacity="0.1"></path>
                            <path d="M210.5,111.5 C210.5,111.5 211.796979,122.160621 211.436808,122.962339 C211.076637,123.764057 210.5,111.5 210.5,111.5 Z" id="Path" fill="#000000" fill-rule="nonzero" opacity="0.1"></path>
                            <path d="M210.284859,117.28897 C209.629745,118.116442 206.968643,124.512634 206.968643,124.512634 L207.736131,135.253628 L208.412763,141.5 C208.412763,141.5 205.039165,140.329093 203.958466,140.45817 C203.48028,140.515793 202.939931,140.087075 202.5,139.586905 C203.200542,135.928974 204.699653,128.274287 204.969828,128.126771 C205.326076,127.930852 207.150354,121.781287 207.245991,120.059501 C207.341628,118.337716 209.876011,114.5 209.876011,114.5 C209.876011,114.5 210.944755,116.461499 210.284859,117.28897 Z" id="Path" fill="#000000" fill-rule="nonzero" opacity="0.1"></path>
                            <path d="M206.961182,106.610165 C206.802542,107.096371 206.557783,109.928347 206.557783,109.928347 C206.381012,112.421591 204.518124,113.237311 203.373648,113.5 C203.347246,113.324745 203.306307,113.152075 203.251269,112.983838 C202.482997,110.774022 192.5,89.431664 192.5,89.431664 C192.510521,88.3488682 192.644369,87.2709562 192.898867,86.2194802 C195.072237,85.5696697 198.512461,86.5697327 198.512461,86.5697327 C199.507362,86.4360837 202.752686,92.9964047 202.752686,92.9964047 C202.752686,92.9964047 204.914724,98.0197625 205.152684,98.7041374 C205.390644,99.3885123 205.152684,100.510703 205.247868,100.902432 C205.343052,101.294162 206.353817,101.630589 206.496593,102.169793 C206.639369,102.708998 206.546451,103.782798 206.641635,103.974054 C206.736819,104.165311 207.122088,106.121655 206.961182,106.610165 Z" id="Path" fill="#000000" fill-rule="nonzero" opacity="0.1"></path>
                            <path d="M206.961107,106.215158 C206.800748,106.706068 206.553336,109.54964 206.553336,109.54964 C206.406721,111.633692 205.078027,112.559937 203.969254,112.955907 C203.469473,113.136479 202.946147,113.241807 202.416056,113.268514 L200.855986,114.639357 L193.651256,120 C193.651256,120 190.966377,114.982068 191.694868,114.95428 C192.423359,114.926493 196.624782,111.360449 196.624782,111.360449 C197.90995,110.665766 199.197409,108.350153 199.795321,107.159928 C199.760902,107.018055 199.734893,106.874231 199.717432,106.729224 C199.458566,104.508552 194.024665,96.0056225 194.024665,96.0056225 C194.024665,96.0056225 191.923953,93.5070765 191.106119,88.878167 C191.08321,88.7716488 191.067174,88.662815 191.046557,88.5516656 C191.023363,88.4076275 191.009588,88.2622004 191.005321,88.1163305 C190.906815,86.3356244 192.189692,85.6872529 193.710818,85.5344224 L193.710818,85.5344224 C194.505264,85.4706739 195.304238,85.4955234 196.093304,85.608522 C196.879506,85.7086158 197.657949,85.8633565 198.423101,86.0716446 C199.073703,85.9836513 200.6773,88.7183897 201.728801,90.6565575 L201.728801,90.6565575 C202.294641,91.7078456 202.702413,92.5275724 202.702413,92.5275724 C202.702413,92.5275724 204.887886,97.5779234 205.128426,98.2633448 C205.368965,98.9487661 205.128426,100.081101 205.224641,100.472439 C205.320857,100.863778 206.342577,101.206488 206.486901,101.748342 C206.631225,102.290195 206.5373,103.36927 206.633515,103.561466 C206.729731,103.753662 207.123758,105.724248 206.961107,106.215158 Z" id="Path" fill="#F7CDDD" fill-rule="nonzero"></path>
                            <path d="M215,94.3316098 C213.603578,95.7432248 211.348356,95.7478304 209.537661,95.0224492 C207.726967,94.2970679 206.19323,92.99829 204.515195,91.9873617 C203.425986,91.3287616 202.27161,90.7899069 201.198692,90.1105816 L201.198692,90.1105816 C201.040431,90.0092585 200.886825,89.9079354 200.733218,89.8020067 C199.495057,88.9361548 198.422139,87.8239035 197.139758,87.0386494 C196.282027,86.4741766 195.283238,86.1553885 194.253818,86.1175303 C193.779865,86.113312 193.310613,86.2107281 192.878342,86.4030773 C192.798209,86.435295 192.720441,86.4729987 192.645605,86.5159143 C192.223391,86.7554629 191.832561,87.0454905 191.48192,87.3794635 C191.11885,87.7018552 190.772072,88.044972 190.390383,88.3466385 C190.36711,88.2407098 190.350818,88.1324783 190.329872,88.0219441 C190.306308,87.878703 190.292313,87.7340808 190.287979,87.5890181 C189.999385,87.6166517 189.708464,87.6327712 189.412888,87.6327712 C188.469028,87.6381201 187.531311,87.4823155 186.640989,87.1722117 C186.640989,87.1376697 186.640989,87.1031278 186.620043,87.0685858 C186.305848,85.4289938 185.737969,83.6926843 184.404386,82.7715652 C183.631699,82.2373162 182.398193,82.0185504 181.327602,81.6201664 C180.308404,78.1097543 181.721558,74.3520562 184.812055,72.3547097 C187.902551,70.3573633 191.94808,70.5871872 194.787224,72.9213927 C197.626368,75.2555983 198.595564,79.1486361 197.176996,82.5205603 C198.531526,82.3455477 200.465571,82.5205603 203.083863,83.6189948 C209.258377,86.2165506 210.706001,86.3501129 210.706001,86.3501129 L213.808386,90.3800089 C213.473245,90.8866244 213.093883,91.3863315 213.058973,91.9781506 C213.000789,93.0627683 214.069052,93.8203887 215,94.3316098 Z" id="Path" fill="#000000" fill-rule="nonzero" opacity="0.1"></path>
                            <path d="M184.627553,82.0485983 C185.951913,82.9854941 186.515863,84.7492004 186.830197,86.4145327 C186.92727,86.9345099 187.019721,87.4825939 187.334054,87.8948281 C188.027436,88.8176704 189.451181,88.5576818 190.368757,87.8948281 C191.286332,87.2319743 192.009761,86.2271535 193.033655,85.7587056 C194.392684,85.1356699 195.992085,85.5900644 197.265597,86.398137 C198.539109,87.2062096 199.604606,88.3375113 200.834204,89.2088244 C202.02451,90.0590573 203.351181,90.6656974 204.590023,91.4316097 C206.256452,92.4598528 207.779581,93.7879026 209.577752,94.5186814 C211.375923,95.2494601 213.622481,95.2471178 215,93.8160095 C214.075491,93.2960323 213.014616,92.5277778 213.086265,91.4128718 C213.157915,90.2979658 214.43836,89.4664708 214.352843,88.3234579 C214.267326,87.180445 212.940655,86.7330773 211.98841,86.1709398 C210.000715,84.99982 209.152478,82.4233566 208.727203,80.0459835 C208.396691,78.1862453 208.123961,76.1086789 206.753376,74.9141368 C205.868158,74.1458822 204.673229,73.8952626 203.781078,73.1340347 C202.937463,72.4102827 202.468274,71.3164569 201.932059,70.3069517 C201.046841,68.6275659 199.88427,67.0652922 198.347273,66.0604714 C196.810276,65.0556507 194.854939,64.6551278 193.167709,65.3437462 C192.520552,65.6037347 191.931178,66.0065999 191.293266,66.280642 C189.70311,66.9833138 187.884137,66.8825975 186.31016,67.6157185 C184.371001,68.5198229 183.111357,70.515411 181.958032,72.4102827 C180.982674,74.0334547 179.048138,76.8956714 179.59591,79.0036869 C180.141371,81.1468361 183.189941,81.0320663 184.627553,82.0485983 Z" id="Path" fill="#4C3E42" fill-rule="nonzero"></path>
                            <g id="Group" opacity="0.1" transform="translate(179.500000, 75.500000)" fill="#000000" fill-rule="nonzero">
                                <path d="M34.8245779,12.3101235 C34.8174982,12.2229675 34.8028413,12.1366215 34.7807792,12.0520988 C34.4303896,12.612716 33.9947078,13.1569136 33.9532143,13.8137037 C33.9442514,13.9656264 33.9566713,14.1180729 33.9900974,14.2664198 C34.3796753,13.6354321 34.8799026,13.0419753 34.8245779,12.3101235 Z" id="Path"></path>
                                <path d="M30.4539286,16.9311111 C28.660487,16.1992593 27.1436688,14.8692593 25.4816234,13.8395062 C24.2437338,13.0724691 22.9205519,12.4649383 21.7333766,11.6134568 C20.507013,10.7314815 19.4443182,9.59851852 18.1741558,8.79864198 C16.9039935,7.99876543 15.3111039,7.53432099 13.9533442,8.15592593 C12.9321429,8.62506173 12.2129221,9.62197531 11.2954545,10.2975309 C10.377987,10.9730864 8.97181818,11.2358025 8.26873377,10.2975309 C7.95522727,9.88469136 7.86301948,9.33580247 7.7662013,8.81506173 C7.455,7.14728395 6.89022727,5.38098765 5.57165584,4.44271605 C4.13551948,3.42234568 1.09496753,3.53728395 0.544025974,1.39333333 C0.452087752,1.00978551 0.427890941,0.612660358 0.472564935,0.220493827 C0.11987013,1.17753086 -0.0622402597,2.13925926 0.152142857,2.97666667 C0.70538961,5.13 3.74594156,5.01506173 5.17977273,6.02604938 C6.50064935,6.96432099 7.06311688,8.73296296 7.37662338,10.4007407 C7.47344156,10.9214815 7.56564935,11.4703704 7.87685065,11.8832099 C8.56840909,12.8074074 9.98840909,12.547037 10.9058766,11.8714815 C11.8233442,11.1959259 12.5402597,10.201358 13.5637662,9.73222222 C14.9192208,9.11061728 16.5144156,9.56567901 17.7845779,10.3749383 C19.0547403,11.1841975 20.1174351,12.3171605 21.3437987,13.1897531 C22.530974,14.0435802 23.8541558,14.6487654 25.0897403,15.4158025 C26.7517857,16.4479012 28.2709091,17.7779012 30.0643506,18.5097531 C31.8577922,19.2416049 34.0984416,19.2369136 35.4723377,17.8060494 C35.1169516,17.6117851 34.7797589,17.3848741 34.4649675,17.1281481 C33.2155519,17.5949383 31.7240909,17.4495062 30.4539286,16.9311111 Z" id="Path"></path>
                            </g>
                            <path d="M169.720834,109.144641 L188.135951,102.113916 C188.570904,101.947144 189.052888,101.964053 189.475632,102.160916 C189.898375,102.357779 190.227163,102.718429 190.389501,103.163348 L190.389501,103.163348 C190.551896,103.608296 190.534721,104.100964 190.341757,104.532968 C190.148792,104.964972 189.795843,105.300926 189.360556,105.466922 L170.945439,112.5 L167,112.095286 L169.720834,109.144641 Z" id="Path" fill="#5C5C8E" fill-rule="nonzero"></path>
                            <path d="M189.834746,101.799333 L189.834746,101.799333 C190.17306,102.660293 189.712541,103.618625 188.805801,103.940547 L170.390684,110.469066 L167.42585,110.187213 L167,110.624195 L170.945439,111 L189.360556,104.469296 C189.795843,104.315157 190.148792,104.003201 190.341757,103.602055 C190.534721,103.200908 190.551896,102.743432 190.389501,102.330267 L190.389501,102.330267 C190.254541,101.98578 190.00269,101.693691 189.673613,101.5 C189.736995,101.594815 189.790938,101.695025 189.834746,101.799333 Z" id="Path" fill="#FFFFFF" fill-rule="nonzero" opacity="0.1"></path>
                            <polygon id="Path" fill="#EFC8C4" fill-rule="nonzero" points="169.601458 108 171 111.5 167.308163 111.153927 166.5 111.07784 167.604665 109.98317"></polygon>
                            <path d="M167.303348,110 C167.36697,110.0507 167.420569,110.114872 167.460942,110.188679 C167.513019,110.277509 167.513019,110.391255 167.460942,110.480084 C167.41667,110.526652 167.366114,110.565538 167.311035,110.595388 C167.184663,110.686137 167.103801,110.835469 167.09194,111 L166.5,110.93501 L167.303348,110 Z" id="Path" fill="#727A9C" fill-rule="nonzero"></path>
                            <path d="M153.297683,72.9595112 L150.209516,71.3470809 C150.120563,71.3006205 150.052498,71.2182323 150.020298,71.1180454 C149.988099,71.0178585 149.994403,70.908082 150.037824,70.8128715 L150.365184,70.0924239 C150.408116,69.9967355 150.485062,69.9234389 150.578834,69.8889052 C150.672606,69.8543714 150.775392,69.8614775 150.864235,69.9086363 L152.945142,70.9942086 L155.117618,66.2255319 C155.208062,66.0274017 155.430759,65.9442945 155.616669,66.0392937 L156.289702,66.392166 C156.379093,66.4381234 156.447565,66.5204895 156.479826,66.6208676 C156.512087,66.7212458 156.505449,66.8312734 156.461394,66.9263754 L153.796734,72.7757235 C153.753331,72.8709437 153.676366,72.943804 153.582772,72.9782719 C153.489179,73.0127399 153.386627,73.0059913 153.297683,72.9595112 L153.297683,72.9595112 Z" id="Path" fill="#3ACC6C" fill-rule="nonzero"></path>
                            <path d="M159.799463,92.4649946 L156.709629,90.8524295 C156.620628,90.8059651 156.552526,90.7235701 156.520309,90.6233748 C156.488092,90.5231796 156.4944,90.4133939 156.537845,90.3181754 L156.865381,89.5976676 C156.956743,89.3990492 157.181012,89.3168714 157.366992,89.4138645 L159.446732,90.4995277 L161.618091,85.7255507 C161.708583,85.527404 161.931401,85.4442898 162.117412,85.539297 L162.788517,85.8921988 C162.877923,85.9382223 162.94653,86.0204293 162.979191,86.1206682 C163.011851,86.2209072 163.005879,86.3309334 162.962592,86.4264529 L160.296494,92.2762901 C160.204244,92.4738268 159.980943,92.5556498 159.794883,92.4600931 L159.799463,92.4649946 Z" id="Path" fill="#3ACC6C" fill-rule="nonzero"></path>
                            <path d="M155.798935,82.4595464 L152.710694,80.8485191 C152.525599,80.7517879 152.447959,80.5136087 152.536709,80.3147745 L152.866365,79.5949538 C152.909299,79.4993487 152.986246,79.4261159 153.08002,79.3916122 C153.173794,79.3571085 153.276583,79.3642084 153.365428,79.4113261 L155.446385,80.4959539 L157.618914,75.7240813 C157.662317,75.628944 157.739285,75.5561471 157.832881,75.5217092 C157.926476,75.4872712 158.02903,75.4940139 158.117977,75.5404536 L158.791026,75.8905705 C158.975551,75.9891799 159.051984,76.2278753 158.962722,76.4267634 L156.295709,82.2759187 C156.252305,82.371056 156.175337,82.4438529 156.081742,82.4782908 C155.988146,82.5127288 155.885592,82.5059861 155.796645,82.4595464 L155.798935,82.4595464 Z" id="Path" fill="#3ACC6C" fill-rule="nonzero"></path>
                            <path d="M162.797683,100.960094 L159.709516,99.3475615 C159.620563,99.3010981 159.552498,99.2187047 159.520298,99.1185115 C159.488099,99.0183183 159.494403,98.9085348 159.537824,98.8133182 L159.865184,98.0928249 C159.908586,97.9975988 159.985552,97.9247338 160.079145,97.8902637 C160.172739,97.8557935 160.27529,97.8625426 160.364235,97.9090257 L162.445142,98.9946668 L164.617618,94.2256878 C164.708988,94.0272267 164.93239,93.9442319 165.118959,94.0394378 L165.789702,94.3923325 C165.879093,94.4382928 165.947565,94.5206641 165.979826,94.6210486 C166.012087,94.7214331 166.005449,94.8314677 165.961394,94.9265758 L163.299023,100.776295 C163.206824,100.973827 162.983643,101.055649 162.797683,100.960094 L162.797683,100.960094 Z" id="Path" fill="#3ACC6C" fill-rule="nonzero"></path>
                        </g>
                        <g id="warning" transform="translate(179.000000, 32.000000)">
                            <path d="M5,22.5003886 C5,23.6048643 3.99216321,24.5 2.74970855,24.5 C1.50696244,24.5 0.5,23.6048643 0.5,22.5003886 C0.5,21.3948766 1.50696244,20.5 2.74970855,20.5 C3.99216321,20.5002591 5,21.3951357 5,22.5003886 L5,22.5003886 Z" id="Path" fill="#102A43" fill-rule="nonzero"></path>
                            <path d="M5.98931765,2.78858525 C5.93548054,2.19256483 5.69730065,1.6313168 5.33425249,1.17085436 C4.77925106,0.467256872 3.93138703,-0.00135535131 3.00008957,0 C2.09641533,-0.00108369205 1.27166461,0.439819287 0.716381319,1.10837273 C0.324582447,1.5799732 0.066953548,2.16512725 0.0105796095,2.78858525 C-0.00435948418,2.95321076 -0.00266826603,3.13169089 0.0105796095,3.2916982 L1.24826943,16.954529 C1.2857581,17.3669078 1.47348331,17.7312028 1.7545074,18.0023188 C2.07583884,18.312282 2.518938,18.5005419 3.00008957,18.5 C3.43304141,18.5005419 3.83526946,18.3478694 4.14532613,18.0916947 C4.48159667,17.8140589 4.70991112,17.4136332 4.75162783,16.9542574 L5.98931765,3.29142654 C6.0028474,3.13141924 6.00425675,2.95321076 5.98931765,2.78858525 Z" id="Path" fill="#102A43" fill-rule="nonzero"></path>
                        </g>
                    </g>
                </g>
            </g>
        </g>
    </g>
</svg>