<svg fill="none" height="44" viewBox="0 0 44 44" width="44" xmlns="http://www.w3.org/2000/svg"><rect fill="#5c5f60" height="44" rx="22" width="44"/><path d="m32.6736 11.906c-1.9631-.9286-4.0682-1.6126-6.2692-2.00445-.0401-.00757-.0802.01133-.1008.04913-.2707.49632-.5706 1.14392-.7806 1.65292-2.3674-.3654-4.7226-.3654-7.0414 0-.21-.5203-.5208-1.1566-.7928-1.65292-.0206-.03654-.0607-.05543-.1007-.04913-2.1999.39055-4.305 1.07465-6.2693 2.00445-.017.0075-.0315.0201-.0412.0365-3.99298 6.1493-5.08682 12.1474-4.55022 18.0711.00243.029.01821.0567.04006.0744 2.63444 1.9943 5.18636 3.205 7.69086 4.0075.0401.0126.0826-.0025.1081-.0365.5924-.834 1.1205-1.7134 1.5733-2.6381.0267-.0542.0012-.1185-.0534-.1399-.8376-.3275-1.6353-.7269-2.4025-1.1804-.0607-.0366-.0656-.126-.0098-.1689.1615-.1247.323-.2545.4772-.3855.0279-.0239.0667-.029.0995-.0139 5.0406 2.3723 10.4977 2.3723 15.4789 0 .0328-.0163.0716-.0113.1007.0127.1542.131.3157.262.4784.3867.0558.0429.0522.1323-.0085.1689-.7673.4623-1.5649.8529-2.4038 1.1792-.0546.0214-.0789.0869-.0522.1411.4625.9234.9906 1.8028 1.5721 2.6368.0243.0353.068.0504.1081.0378 2.5167-.8025 5.0686-2.0132 7.703-4.0075.0231-.0177.0377-.0441.0401-.0731.6422-6.8485-1.0757-12.7975-4.5539-18.0712-.0085-.0176-.023-.0302-.04-.0377zm-15.7811 14.5007c-1.5176 0-2.768-1.4362-2.768-3.2s1.2261-3.2 2.768-3.2c1.5539 0 2.7922 1.4488 2.7679 3.2 0 1.7638-1.2262 3.2-2.7679 3.2zm10.2342 0c-1.5175 0-2.768-1.4362-2.768-3.2s1.2262-3.2 2.768-3.2c1.554 0 2.7923 1.4488 2.768 3.2 0 1.7638-1.214 3.2-2.768 3.2z" fill="#fff"/></svg>