<svg fill="none" height="44" viewBox="0 0 44 44" width="44" xmlns="http://www.w3.org/2000/svg"><rect fill="#5c5f60" height="44" rx="22" width="44"/><path d="m32.3135 9.8999h-20.6272c-.4738 0-.9281.1882-1.2632.5232-.335.3351-.5232.7894-.5232 1.2632v20.6272c0 .4738.1882.9281.5232 1.2632.3351.335.7894.5232 1.2632.5232h20.6272c.4738 0 .9281-.1882 1.2632-.5232.335-.3351.5232-.7894.5232-1.2632v-20.6272c0-.4738-.1882-.9281-.5232-1.2632-.3351-.335-.7894-.5232-1.2632-.5232zm-15.2007 20.6154h-3.6384v-11.5572h3.6384zm-1.8217-13.1588c-.4127-.0023-.8155-.1268-1.1575-.3578-.342-.2311-.6079-.5582-.7641-.9402-.1563-.382-.1959-.8017-.1138-1.2062.082-.4045.2821-.7756.5748-1.0665.2928-.2909.6652-.4886 1.0702-.568.405-.0795.8245-.0372 1.2054.1215.381.1587.7065.4267.9353.7702s.3507.7471.3504 1.1598c.0039.2763-.0479.5506-.1522.8064-.1044.2559-.2592.4882-.4552.683-.1961.1947-.4293.348-.6858.4508-.2566.1027-.5312.1527-.8075.147zm15.2326 13.1689h-3.6367v-6.3139c0-1.862-.7916-2.4368-1.8134-2.4368-1.0789 0-2.1376.8134-2.1376 2.4839v6.2668h-3.6384v-11.5589h3.4989v1.6016h.047c.3513-.7109 1.5814-1.9259 3.4586-1.9259 2.0301 0 4.2233 1.2049 4.2233 4.7341z" fill="#fff"/></svg>