<svg fill="none" height="44" viewBox="0 0 44 44" width="44" xmlns="http://www.w3.org/2000/svg"><rect fill="#5c5f60" height="44" rx="22" width="44"/><g fill="#fff"><path d="m22.0035 11.1794c3.5271 0 3.9411.0157 5.3352.0786 1.2893.0577 1.9863.2725 2.4527.456.6185.2411 1.0587.5241 1.5199.9853s.7494.9014.9853 1.5198c.1782.4664.3983 1.1635.4559 2.4527.0629 1.3941.0787 1.8081.0787 5.3352s-.0158 3.9412-.0787 5.3352c-.0576 1.2893-.2725 1.9863-.4559 2.4528-.2411.6184-.5241 1.0586-.9853 1.5198s-.9014.7495-1.5199.9853c-.4664.1782-1.1634.3983-2.4527.456-1.3941.0628-1.8081.0786-5.3352.0786s-3.9411-.0158-5.3352-.0786c-1.2892-.0577-1.9863-.2726-2.4527-.456-.6184-.2411-1.0587-.5241-1.5199-.9853s-.7494-.9014-.9853-1.5198c-.1781-.4665-.3983-1.1635-.4559-2.4528-.0629-1.394-.0786-1.8081-.0786-5.3352s.0157-3.9411.0786-5.3352c.0576-1.2892.2725-1.9863.4559-2.4527.2411-.6184.5241-1.0586.9853-1.5198s.9015-.7495 1.5199-.9853c.4664-.1782 1.1635-.3983 2.4527-.456 1.3941-.0681 1.8133-.0786 5.3352-.0786zm0-2.37935c-3.5847 0-4.0355.01572-5.4453.07861-1.4045.06289-2.3636.28825-3.2021.61318-.87.33542-1.6037.79136-2.3375 1.52506-.7337.7338-1.18439 1.4727-1.52505 2.3375-.32493.8385-.55029 1.7976-.61318 3.2074-.06289 1.4045-.07861 1.8552-.07861 5.44 0 3.5847.01572 4.0355.07861 5.4453.06289 1.4045.28825 2.3636.61318 3.2074.33542.87.79135 1.6037 1.52505 2.3374.7338.7337 1.4727 1.1844 2.3375 1.5251.8385.3249 1.7976.5503 3.2074.6132s1.8553.0786 5.4453.0786c3.5899 0 4.0354-.0157 5.4452-.0786 1.4046-.0629 2.3637-.2883 3.2074-.6132.87-.3354 1.6037-.7914 2.3375-1.5251.7337-.7337 1.1844-1.4727 1.5251-2.3374.3249-.8386.5502-1.7977.6131-3.2074.0629-1.4098.0786-1.8553.0786-5.4453s-.0157-4.0355-.0786-5.4453c-.0629-1.4045-.2882-2.3636-.6131-3.2074-.3355-.87-.7914-1.6037-1.5251-2.3374-.7338-.7337-1.4727-1.18444-2.3375-1.5251-.8385-.32493-1.7976-.55029-3.2074-.61318-1.415-.05765-1.8657-.07337-5.4505-.07337z"/><path d="m22.0034 15.2253c-3.742 0-6.7817 3.0345-6.7817 6.7817s3.0344 6.7817 6.7817 6.7817c3.7472 0 6.7816-3.0345 6.7816-6.7817s-3.0344-6.7817-6.7816-6.7817zm0 11.1788c-2.4318 0-4.4024-1.9706-4.4024-4.4023 0-2.4318 1.9706-4.4023 4.4024-4.4023 2.4317 0 4.4023 1.9705 4.4023 4.4023 0 2.4317-1.9706 4.4023-4.4023 4.4023z"/><path d="m29.0525 16.5356c.8741 0 1.5827-.7086 1.5827-1.5827 0-.8742-.7086-1.5828-1.5827-1.5828-.8742 0-1.5828.7086-1.5828 1.5828 0 .8741.7086 1.5827 1.5828 1.5827z"/></g></svg>