<svg fill="none" height="44" viewBox="0 0 44 44" width="44" xmlns="http://www.w3.org/2000/svg"><rect fill="#5c5f60" height="44" rx="22" width="44"/><g fill="#fff"><path clip-rule="evenodd" d="m21.9948 7.69995c-3.5745.00186-7.0319 1.2679-9.7538 3.57175-2.72196 2.3038-4.53098 5.4953-5.1036 9.0036-.57263 3.5083.12846 7.1048 1.97793 10.1463 1.84947 3.0416 4.72667 5.3298 8.11717 6.4556.748.1388 1.0298-.3248 1.0298-.719 0-.3941-.015-1.537-.02-2.7865-4.1888.9049-5.0739-1.7677-5.0739-1.7677-.6832-1.7354-1.6705-2.1916-1.6705-2.1916-1.3664-.9272.1022-.9098.1022-.9098 1.5135.1066 2.3088 1.5445 2.3088 1.5445 1.3414 2.2883 3.5231 1.6263 4.3808 1.2396.1347-.9694.5261-1.6288.9575-2.0032-3.3461-.3768-6.8617-1.661-6.8617-7.3978-.0208-1.4878.5345-2.9266 1.5509-4.0187-.1546-.3768-.6708-1.899.1471-3.9667 0 0 1.2641-.4016 4.1414 1.5346 2.468-.671 5.0719-.671 7.5399 0 2.8748-1.9362 4.1364-1.5346 4.1364-1.5346.8203 2.0627.3042 3.5849.1496 3.9667 1.0196 1.0923 1.576 2.5336 1.5534 4.0237 0 5.7491-3.5231 7.016-6.8742 7.3854.5386.4661 1.0198 1.3759 1.0198 2.7742 0 2.0031-.0174 3.6146-.0174 4.1079 0 .3992.2717.8653 1.0347.719 3.3909-1.1259 6.2684-3.4146 8.1179-6.4566 1.8494-3.0421 2.5501-6.6391 1.9768-10.1477-.5732-3.5087-2.3832-6.7002-5.106-9.0036-2.7228-2.30346-6.181-3.56867-9.756-3.56935z" fill-rule="evenodd"/><path d="m12.6395 29.1968c-.0324.0743-.1521.0967-.2494.0446-.0972-.0521-.1695-.1488-.1346-.2256.0349-.0769.1521-.0967.2493-.0446.0973.052.1721.1512.1347.2256z"/><path d="m13.25 29.8735c-.0516.0258-.1107.0331-.1671.0204s-.1066-.0444-.1421-.0898c-.0972-.1042-.1172-.248-.0424-.3124.0749-.0645.2095-.0347.3067.0694.0973.1041.1197.2479.0449.3124z"/><path d="m13.8436 30.7338c-.0923.0645-.2494 0-.3366-.1289-.0242-.0231-.0434-.0509-.0565-.0815-.0131-.0307-.0198-.0637-.0198-.097s.0067-.0663.0198-.097c.0131-.0306.0323-.0584.0565-.0815.0922-.062.2493 0 .3366.1264.0872.1265.0897.2951 0 .3595z"/><path d="m14.6493 31.5667c-.0822.0918-.2493.067-.3864-.057-.1372-.1239-.1696-.2925-.0873-.3818.0823-.0892.2493-.0644.3915.0571.1421.1214.1695.2925.0822.3817z"/><path d="m15.7784 32.0528c-.0374.1165-.207.1685-.3765.1189-.1696-.0495-.2818-.1884-.2493-.3074.0324-.119.2044-.1735.3764-.119.1721.0546.2818.186.2494.3075z"/><path d="m17.0105 32.1369c0 .1215-.1396.2256-.3191.2281s-.3267-.0967-.3267-.2182c0-.1214.1397-.2256.3192-.2281.1795-.0024.3266.0943.3266.2182z"/><path d="m18.1575 31.9461c.0224.1214-.1023.2479-.2818.2776-.1795.0298-.3366-.0421-.359-.1611-.0225-.119.1072-.2479.2817-.2802.1746-.0322.3366.0422.3591.1637z"/></g></svg>