<svg fill="none" height="44" viewBox="0 0 44 44" width="44" xmlns="http://www.w3.org/2000/svg"><rect fill="#5c5f60" height="44" rx="22" width="44"/><g fill="#fff"><path d="m24.0753 22.4173c0 5.0905-4.0911 9.2171-9.1376 9.2171-5.04641 0-9.1379-4.1275-9.1379-9.2171 0-5.0895 4.09118-9.2173 9.1379-9.2173 5.0468 0 9.1376 4.1269 9.1376 9.2173z"/><path d="m34.0994 22.4172c0 4.7916-2.0456 8.6775-4.569 8.6775s-4.569-3.8859-4.569-8.6775 2.0453-8.6775 4.5687-8.6775 4.569 3.8847 4.569 8.6775"/><path d="m38.1998 22.4174c0 4.2921-.7193 7.7737-1.6069 7.7737s-1.6066-3.4807-1.6066-7.7737.7194-7.7736 1.6066-7.7736c.8873 0 1.6069 3.4803 1.6069 7.7736z"/></g></svg>