<svg fill="none" height="44" viewBox="0 0 44 44" width="44" xmlns="http://www.w3.org/2000/svg"><rect fill="#5c5f60" height="44" rx="22" width="44"/><path clip-rule="evenodd" d="m9.95886 21.7679c6.41344-2.7942 10.69004-4.6364 12.82994-5.5264 6.1096-2.5412 7.3791-2.9826 8.2066-2.9972.182-.0032.5889.0419.8525.2558.2226.1806.2838.4245.3131.5958.0293.1712.0658.5612.0368.866-.3311 3.4787-1.7637 11.9207-2.4925 15.8169-.3084 1.6486-.9156 2.2014-1.5035 2.2555-1.2776.1176-2.2477-.8443-3.4851-1.6554-1.9363-1.2693-3.0302-2.0594-4.9097-3.298-2.1721-1.4313-.764-2.2181.4739-3.5038.3239-.3364 5.953-5.4565 6.0619-5.9209.0137-.0581.0263-.2747-.1023-.389-.1287-.1143-.3185-.0752-.4555-.0441-.1942.044-3.2875 2.0885-9.2798 6.1335-.878.6029-1.6732.8967-2.3858.8813-.7855-.017-2.2965-.4442-3.4198-.8093-1.37775-.4479-2.47276-.6846-2.37741-1.4452.04967-.3962.59522-.8014 1.63667-1.2155z" fill="#fff" fill-rule="evenodd"/></svg>