<svg fill="none" height="44" viewBox="0 0 44 44" width="44" xmlns="http://www.w3.org/2000/svg" xmlns:xlink="http://www.w3.org/1999/xlink"><clipPath id="a"><path d="m0 0h44v44h-44z"/></clipPath><g clip-path="url(#a)"><path d="m22 44c12.1503 0 22-9.8497 22-22 0-12.15027-9.8497-22-22-22-12.15027 0-22 9.84973-22 22 0 12.1503 9.84973 22 22 22z" fill="#5c5f60"/><path d="m36.6666 21.9999c0-1.7754-1.4409-3.2163-3.2163-3.2163-.8749 0-1.6468.3345-2.2129.9006-2.1871-1.5696-5.2234-2.5989-8.5684-2.7275l1.4666-6.8702 4.7603 1.0035c.0514 1.2094 1.0549 2.1871 2.29 2.1871 1.2609 0 2.2901-1.0292 2.2901-2.29 0-1.26084-1.0292-2.29008-2.2901-2.29008-.9005 0-1.6725.51462-2.0327 1.28655l-5.3263-1.13216c-.1544-.02573-.3088 0-.4375.07719-.1286.07719-.2058.20585-.2573.36024l-1.621 7.66786c-3.4222.1029-6.4842 1.1064-8.6971 2.7275-.5661-.5404-1.3637-.9006-2.2129-.9006-1.7754 0-3.21633 1.4409-3.21633 3.2163 0 1.3123.77193 2.4188 1.90409 2.9334-.05146.3088-.07719.6433-.07719.9778 0 4.9403 5.73803 8.9286 12.83973 8.9286 7.1018 0 12.8398-3.9883 12.8398-8.9286 0-.3345-.0257-.6433-.0772-.9521 1.055-.5146 1.8526-1.6468 1.8526-2.9591zm-22 2.2901c0-1.2608 1.0293-2.2901 2.2901-2.2901s2.2901 1.0293 2.2901 2.2901-1.0293 2.2901-2.2901 2.2901-2.2901-1.0293-2.2901-2.2901zm12.7883 6.0468c-1.5695 1.5696-4.5543 1.6725-5.4292 1.6725s-3.8854-.1287-5.4292-1.6725c-.2316-.2316-.2316-.6176 0-.8491.2315-.2316.6175-.2316.8491 0 .9778.9777 3.0877 1.338 4.6058 1.338 1.5182 0 3.6024-.3603 4.6059-1.338.2316-.2316.6175-.2316.8491 0 .1801.2573.1801.6175-.0515.8491zm-.4117-3.7567c-1.2608 0-2.29-1.0293-2.29-2.2901s1.0292-2.2901 2.29-2.2901c1.2609 0 2.2901 1.0293 2.2901 2.2901s-1.0292 2.2901-2.2901 2.2901z" fill="#fff"/></g></svg>