<svg fill="none" height="44" viewBox="0 0 44 44" width="44" xmlns="http://www.w3.org/2000/svg"><rect fill="#5c5f60" height="44" rx="22" width="44"/><path d="m17.9742 33.605c9.757 0 15.092-8.085 15.092-15.092 0-.231 0-.462-.011-.682 1.034-.748 1.936-1.683 2.651-2.75-.946.418-1.969.704-3.047.836 1.1-.66 1.936-1.694 2.332-2.937-1.023.605-2.156 1.045-3.366 1.287-.968-1.034-2.343-1.672-3.872-1.672-2.926 0-5.302 2.376-5.302 5.302 0 .418.044.825.143 1.21-4.411-.22-8.316-2.332-10.934-5.544-.451.781-.715 1.694-.715 2.662 0 1.837.935 3.465 2.365 4.411-.869-.022-1.683-.264-2.398-.66v.066c0 2.574 1.826 4.708 4.257 5.203-.44.121-.913.187-1.397.187-.341 0-.671-.033-1.001-.099.671 2.112 2.629 3.641 4.95 3.685-1.815 1.419-4.103 2.266-6.589 2.266-.429 0-.847-.022-1.26501-.077 2.32101 1.518 5.11501 2.398 8.10701 2.398z" fill="#fff"/></svg>