<svg width="400" height="281" viewBox="0 0 400 281" fill="none" xmlns="http://www.w3.org/2000/svg">
<rect width="400" height="281" fill="#E5E5E5"/>
<path d="M0 1H400V281H0V1Z" fill="white"/>
<path d="M37.0419 52.4816L36.9208 52.5053L36.8763 52.6204L34.8953 57.7502L34.6378 58.4171L35.2292 58.0154L45.0308 51.3582L44.8625 50.9543L37.0419 52.4816ZM34.9466 50.1629L58.1694 45.6488L29.0489 65.4351L34.9466 50.1629Z" fill="#F8F8F8" stroke="white" stroke-width="0.446678"/>
<path d="M44.5954 27.1283L46.6576 25.4353L57.7105 38.8987L55.6484 40.5917L44.5954 27.1283Z" fill="#F8F8F8" stroke="white" stroke-width="0.446678"/>
<path d="M52.8044 12.429L52.6736 11.6119L52.3755 12.3838L40.7775 42.4173L40.6316 42.795L41.0289 42.7169L56.9339 39.5892L57.1454 39.5476L57.1113 39.3348L52.8044 12.429ZM36.4298 46.3223L53.7713 1.41619L60.1738 41.6532L36.4298 46.3223Z" fill="#F8F8F8" stroke="white" stroke-width="0.446678"/>
<path d="M31.516 50.5503L31.5604 50.4352L31.4866 50.3363L26.7225 43.9491L26.3264 44.1351L29.1095 55.6522L29.2774 56.347L29.535 55.6802L31.516 50.5503ZM28.6988 65.2999L20.4352 31.0769L34.5965 50.0277L28.6988 65.2999Z" fill="#F8F8F8" stroke="white" stroke-width="0.446678"/>
<path d="M24.595 26.4252L41.828 23.8851L42.2171 26.5247L24.9841 29.0648L24.595 26.4252Z" fill="#F8F8F8" stroke="white" stroke-width="0.446678"/>
<path d="M47.0165 10.3143L47.3146 9.54245L46.6686 10.0595L25.3958 27.0872L25.2275 27.2219L25.3562 27.3949L35.0309 40.4006L35.2726 40.7255L35.4184 40.3478L47.0165 10.3143ZM21.57 26.7455L53.3545 1.25527L36.013 46.1614L21.57 26.7455Z" fill="#F8F8F8" stroke="white" stroke-width="0.446678"/>
<path fill-rule="evenodd" clip-rule="evenodd" d="M26.2035 138.964L42.0146 111.084L36.7282 158.489L26.2035 138.964ZM30.8092 139.001L34.1721 145.24L35.8672 130.063L30.8092 139.001Z" fill="#F8F8F8"/>
<path fill-rule="evenodd" clip-rule="evenodd" d="M11.8517 106.485L34.8726 106.957L34.7905 110.97L11.7696 110.499L11.8517 106.485Z" fill="#F8F8F8"/>
<path fill-rule="evenodd" clip-rule="evenodd" d="M-6.18445 78.8815L39.7274 107.035L24.0089 134.893L-6.18445 78.8815ZM4.39889 90.1064L24.0877 126.631L34.3536 108.436L4.39889 90.1064Z" fill="#F8F8F8"/>
<path fill-rule="evenodd" clip-rule="evenodd" d="M26.2844 138.921L-5.69733 136.803L36.8091 158.445L26.2844 138.921ZM23.7835 142.788L27.1464 149.027L13.5369 142.101L23.7835 142.788Z" fill="#F8F8F8"/>
<path fill-rule="evenodd" clip-rule="evenodd" d="M6.47802 109.812L-5.78263 129.302L-2.38459 131.44L9.87607 111.95L6.47802 109.812Z" fill="#F8F8F8"/>
<path fill-rule="evenodd" clip-rule="evenodd" d="M-6.1845 78.8815L-7.90361 132.71L24.0089 134.893L-6.1845 78.8815ZM-2.62513 93.8927L17.0637 130.417L-3.7787 128.992L-2.62513 93.8927Z" fill="#F8F8F8"/>
<path fill-rule="evenodd" clip-rule="evenodd" d="M304.959 45.6229L327.2 38.6971L299.578 62.261L304.959 45.6229ZM307.114 48.1573L305.394 53.4736L314.238 45.9314L307.114 48.1573Z" fill="#F8F8F8"/>
<path fill-rule="evenodd" clip-rule="evenodd" d="M315.4 19.668L326.017 32.4962L323.85 34.6907L313.233 21.8625L315.4 19.668Z" fill="#F8F8F8"/>
<path fill-rule="evenodd" clip-rule="evenodd" d="M321.517 -5.57779L328.267 35.1895L306.081 42.1536L321.517 -5.57779ZM320.563 6.46163L310.497 37.5868L324.987 33.0384L320.563 6.46163Z" fill="#F8F8F8"/>
<path fill-rule="evenodd" clip-rule="evenodd" d="M305.02 45.6428L291.046 27.0052L299.64 62.2808L305.02 45.6428ZM301.79 46.4357L300.07 51.752L297.317 40.4593L301.79 46.4357Z" fill="#F8F8F8"/>
<path fill-rule="evenodd" clip-rule="evenodd" d="M311.1 18.5911L294.981 22.7734L295.453 25.8207L311.571 21.6384L311.1 18.5911Z" fill="#F8F8F8"/>
<path fill-rule="evenodd" clip-rule="evenodd" d="M321.517 -5.57778L292.174 23.5174L306.081 42.1536L321.517 -5.57778ZM315.24 4.74039L305.175 35.8655L296.092 23.694L315.24 4.74039Z" fill="#F8F8F8"/>
<path fill-rule="evenodd" clip-rule="evenodd" d="M98.5763 45.2563L107.434 31.8972L102.935 56.4716L98.5763 45.2563ZM100.827 45.6724L102.22 49.256L103.662 41.389L100.827 45.6724Z" fill="#F8F8F8"/>
<path fill-rule="evenodd" clip-rule="evenodd" d="M92.8699 26.8713L104.109 29.103L103.906 31.215L92.6676 28.9834L92.8699 26.8713Z" fill="#F8F8F8"/>
<path fill-rule="evenodd" clip-rule="evenodd" d="M85.1647 10.7432L106.479 29.5623L97.6676 42.9177L85.1647 10.7432ZM89.8868 17.5815L98.0398 38.5621L103.795 29.8395L89.8868 17.5815Z" fill="#F8F8F8"/>
<path fill-rule="evenodd" clip-rule="evenodd" d="M98.6177 45.2402L83.0636 41.3676L102.976 56.4555L98.6177 45.2402ZM97.2385 47.067L98.6311 50.6505L92.2555 45.8214L97.2385 47.067Z" fill="#F8F8F8"/>
<path fill-rule="evenodd" clip-rule="evenodd" d="M90.1077 28.1651L83.3248 37.3998L84.9002 38.8211L91.683 29.5863L90.1077 28.1651Z" fill="#F8F8F8"/>
<path fill-rule="evenodd" clip-rule="evenodd" d="M85.1647 10.7432L82.15 39.0166L97.6676 42.9177L85.1647 10.7432ZM86.299 18.9757L94.452 39.9563L84.3173 37.4085L86.299 18.9757Z" fill="#F8F8F8"/>
<path fill-rule="evenodd" clip-rule="evenodd" d="M389.073 59.9055L414.998 32.4295L395.639 85.2095L389.073 59.9055ZM394.334 61.2406L396.432 69.3259L402.633 52.4296L394.334 61.2406Z" fill="#F8F8F8"/>
<path fill-rule="evenodd" clip-rule="evenodd" d="M381.762 18.698L407.982 25.7003L406.761 30.2715L380.541 23.2693L381.762 18.698Z" fill="#F8F8F8"/>
<path fill-rule="evenodd" clip-rule="evenodd" d="M368.865 -17.9631L413.517 27.1524L387.703 54.6292L368.865 -17.9631ZM377.829 -2.14302L390.113 45.1937L406.972 27.2482L377.829 -2.14302Z" fill="#F8F8F8"/>
<path fill-rule="evenodd" clip-rule="evenodd" d="M389.177 59.8783L353.163 48.4761L395.744 85.1823L389.177 59.8783ZM385.229 63.6035L387.327 71.6888L373.693 59.9398L385.229 63.6035Z" fill="#F8F8F8"/>
<path fill-rule="evenodd" clip-rule="evenodd" d="M374.677 20.9976L355.171 39.8657L358.46 43.2665L377.967 24.3983L374.677 20.9976Z" fill="#F8F8F8"/>
<path fill-rule="evenodd" clip-rule="evenodd" d="M368.865 -17.9631L351.786 43.1717L387.703 54.6292L368.865 -17.9631ZM368.726 0.219307L381.01 47.556L357.552 40.073L368.726 0.219307Z" fill="#F8F8F8"/>
</svg>
