<svg width="800" height="400" viewBox="0 0 800 400" fill="none" xmlns="http://www.w3.org/2000/svg">
<rect width="800" height="400" fill="white"/>
<rect width="800" height="400" fill="url(#paint0_linear)"/>
<path d="M452.094 191.556V128.07C452.89 127.602 453.578 126.971 454.113 126.219C454.648 125.466 455.019 124.609 455.2 123.704C455.381 122.799 455.369 121.865 455.165 120.965C454.961 120.064 454.569 119.217 454.015 118.478C453.461 117.74 452.758 117.126 451.95 116.678C451.143 116.23 450.25 115.957 449.33 115.878C448.41 115.798 447.484 115.914 446.612 116.217C445.74 116.52 444.941 117.004 444.269 117.637L408.131 107.04C407.766 105.646 406.952 104.411 405.814 103.527C404.677 102.643 403.279 102.158 401.838 102.149C400.397 102.14 398.994 102.606 397.845 103.475C396.696 104.345 395.865 105.569 395.483 106.958L357.103 117.691C355.898 116.533 354.292 115.886 352.62 115.884C351.116 115.882 349.657 116.396 348.486 117.34C347.315 118.283 346.503 119.6 346.186 121.07C345.868 122.54 346.063 124.074 346.74 125.417C347.416 126.76 348.533 127.831 349.903 128.451V191.189C349.014 191.584 348.224 192.17 347.59 192.907C346.955 193.643 346.491 194.511 346.233 195.448C345.974 196.386 345.926 197.368 346.092 198.326C346.259 199.284 346.636 200.193 347.196 200.988C347.756 201.782 348.486 202.443 349.332 202.922C350.178 203.401 351.12 203.686 352.089 203.757C353.059 203.828 354.032 203.684 354.939 203.333C355.846 202.983 356.664 202.436 357.334 201.732L395.564 210.454C396.015 211.837 396.912 213.03 398.116 213.846C399.319 214.663 400.76 215.055 402.212 214.961C403.663 214.868 405.042 214.294 406.131 213.33C407.22 212.367 407.957 211.068 408.226 209.639L443.549 201.202C444.139 201.965 444.891 202.589 445.75 203.029C446.608 203.468 447.554 203.713 448.518 203.746C449.483 203.778 450.442 203.598 451.329 203.217C452.215 202.836 453.007 202.264 453.648 201.543C454.288 200.821 454.761 199.967 455.034 199.041C455.307 198.115 455.372 197.141 455.225 196.187C455.078 195.234 454.722 194.324 454.183 193.524C453.645 192.723 452.936 192.051 452.108 191.556H452.094ZM397.303 113.52C398.512 114.655 400.108 115.287 401.766 115.287C403.424 115.287 405.02 114.655 406.229 113.52L435.099 121.984L406.569 128.356C405.959 127.706 405.222 127.188 404.404 126.834C403.587 126.48 402.705 126.297 401.814 126.297C400.923 126.297 400.041 126.48 399.223 126.834C398.405 127.188 397.669 127.706 397.059 128.356L366.858 121.984L397.303 113.52ZM358.842 195.034C358.559 194.178 358.103 193.388 357.503 192.715C356.902 192.042 356.17 191.5 355.351 191.121V162.197L375.933 166.001C376.449 167.41 377.439 168.596 378.732 169.357V199.653L358.842 195.034ZM406.963 204.299C406.391 203.551 405.664 202.936 404.831 202.496C403.998 202.056 403.08 201.802 402.14 201.752C401.199 201.702 400.259 201.856 399.385 202.204C398.51 202.553 397.721 203.087 397.072 203.77L385.525 201.134V169.303C386.329 168.811 387.018 168.152 387.544 167.37C388.071 166.589 388.423 165.703 388.577 164.773C388.73 163.843 388.682 162.89 388.434 161.981C388.187 161.071 387.746 160.226 387.142 159.502C386.539 158.778 385.786 158.192 384.936 157.785C384.086 157.378 383.158 157.159 382.215 157.143C381.273 157.127 380.338 157.314 379.474 157.691C378.611 158.069 377.838 158.628 377.21 159.331L355.351 155.255V128.451C356.127 128.087 356.828 127.58 357.416 126.956L395.605 135.108C396.041 136.406 396.873 137.534 397.985 138.334C399.096 139.133 400.431 139.563 401.8 139.563C403.169 139.563 404.504 139.133 405.616 138.334C406.727 137.534 407.56 136.406 407.995 135.108L443.956 127.092C444.362 127.502 444.819 127.858 445.315 128.152V155.432L424.746 159.426C423.562 158.378 422.035 157.798 420.453 157.796C419.004 157.777 417.59 158.238 416.431 159.107C415.271 159.976 414.432 161.205 414.045 162.601C413.657 163.997 413.742 165.482 414.287 166.825C414.832 168.167 415.806 169.292 417.057 170.023V201.949L406.963 204.299ZM423.836 169.914C424.574 169.464 425.216 168.872 425.725 168.173C426.233 167.473 426.598 166.68 426.798 165.838L445.301 162.252V191.556C444.519 192.033 443.844 192.667 443.318 193.418C442.792 194.168 442.427 195.019 442.245 195.917L423.836 200.332V169.914Z" fill="white"/>
<path d="M325.489 273.233V300.513H316.414V273.233H308.969V265.516H332.948V273.233H325.489Z" fill="white"/>
<path d="M377.332 273.233H366.464V279.061H376.694V286.764H366.464V292.796H377.332V300.513H357.443V265.516H377.332V273.233Z" fill="white"/>
<path d="M412.642 279.944L423.768 265.516H434.99L421.092 282.104L436.253 300.513H424.502L412.642 285.351V300.513H403.566V265.516H412.642V279.944Z" fill="white"/>
<path d="M467.894 265.516V286.248C467.798 287.227 467.907 288.216 468.213 289.152C468.519 290.087 469.017 290.949 469.674 291.682C470.834 292.731 472.334 293.324 473.898 293.352C475.462 293.379 476.982 292.839 478.178 291.832C480.271 289.997 480.216 287.43 480.216 285.487V265.516H489.291V285.609C489.291 289.291 489.142 293.122 485.365 296.953C482.417 299.942 478.749 301.301 473.817 301.301C468.383 301.301 464.375 299.412 462.229 297.103C459.186 293.801 458.819 289.345 458.819 285.609V265.516H467.894Z" fill="white"/>
<path d="M338.505 236.497H331.929V253.683H335.013V247.665H338.505C339.224 247.672 339.938 247.537 340.606 247.267C341.273 246.996 341.879 246.596 342.39 246.089C342.931 245.568 343.361 244.943 343.655 244.252C343.949 243.561 344.1 242.818 344.1 242.067C344.1 241.317 343.949 240.574 343.655 239.883C343.361 239.192 342.931 238.567 342.39 238.046C341.344 237.047 339.951 236.492 338.505 236.497V236.497ZM338.355 244.88H335.013V239.282H338.355C339.097 239.282 339.809 239.577 340.334 240.102C340.859 240.627 341.154 241.339 341.154 242.081C341.154 242.823 340.859 243.535 340.334 244.06C339.809 244.585 339.097 244.88 338.355 244.88V244.88Z" fill="white"/>
<path d="M354.862 246.17H362.239V243.372H354.862V239.282H362.728V236.497H351.778V253.683H362.904V250.898H354.862V246.17Z" fill="white"/>
<path d="M378.514 246.564H383.297V249.689C382.401 250.464 381.3 250.962 380.127 251.123C378.954 251.284 377.759 251.101 376.688 250.596C375.617 250.091 374.716 249.285 374.094 248.278C373.472 247.27 373.156 246.103 373.184 244.919C373.212 243.736 373.584 242.586 374.254 241.609C374.923 240.632 375.862 239.871 376.956 239.418C378.05 238.965 379.253 238.839 380.417 239.056C381.581 239.273 382.657 239.824 383.514 240.641L385.633 238.821C384.803 237.974 383.808 237.307 382.71 236.861C381.611 236.415 380.433 236.199 379.248 236.226C378.051 236.199 376.861 236.41 375.747 236.846C374.632 237.282 373.615 237.935 372.754 238.766C371.067 240.455 370.12 242.744 370.12 245.131C370.12 247.518 371.067 249.807 372.754 251.496C374.503 253.156 376.837 254.059 379.248 254.009C380.585 254.023 381.908 253.74 383.123 253.181C384.337 252.622 385.413 251.8 386.272 250.776V243.847H378.582L378.514 246.564Z" fill="white"/>
<path d="M423.333 243.67L422.314 243.276L421.431 242.937C421.105 242.76 420.426 242.461 420.154 242.271C419.929 242.096 419.746 241.871 419.621 241.615C419.497 241.358 419.433 241.076 419.434 240.79C419.434 239.731 420.426 238.97 421.771 238.97C422.371 238.933 422.97 239.054 423.509 239.321C424.048 239.588 424.507 239.991 424.841 240.491L427.029 238.983C426.474 238.088 425.691 237.358 424.759 236.868C423.827 236.379 422.781 236.147 421.73 236.198C420.339 236.171 418.985 236.654 417.926 237.557C417.434 237.964 417.041 238.477 416.778 239.059C416.514 239.64 416.386 240.274 416.405 240.913C416.364 241.551 416.475 242.19 416.728 242.777C416.98 243.365 417.367 243.885 417.858 244.295C418.903 245.099 420.08 245.715 421.336 246.116C422.226 246.387 423.073 246.785 423.849 247.298C424.162 247.468 424.421 247.722 424.596 248.032C424.772 248.342 424.856 248.695 424.841 249.05C424.841 250.164 424.067 251.292 421.92 251.292C421.023 251.342 420.132 251.12 419.363 250.654C418.595 250.189 417.985 249.502 417.614 248.684L415.291 250.137C415.866 251.382 416.805 252.423 417.984 253.123C419.162 253.824 420.525 254.152 421.893 254.063C425.819 254.063 427.925 252.012 427.925 248.969C427.973 247.843 427.584 246.743 426.838 245.898C425.842 244.915 424.647 244.156 423.333 243.67V243.67Z" fill="white"/>
<path d="M440.859 244.065L436.444 236.497H433.115L439.31 247.026V253.683H442.367V247.026L448.549 236.497H445.247L440.859 244.065Z" fill="white"/>
<path d="M465.245 245.817C464.237 244.868 463.044 244.137 461.74 243.671L460.735 243.277L459.838 242.937C459.526 242.76 458.833 242.461 458.561 242.271C458.335 242.096 458.153 241.872 458.028 241.615C457.903 241.358 457.839 241.076 457.841 240.79C457.841 239.731 458.833 238.97 460.191 238.97C460.789 238.934 461.386 239.055 461.923 239.322C462.459 239.589 462.916 239.993 463.248 240.492L465.435 238.984C464.882 238.088 464.099 237.357 463.167 236.867C462.235 236.377 461.189 236.146 460.137 236.198C458.746 236.172 457.393 236.655 456.333 237.557C455.841 237.964 455.448 238.478 455.184 239.059C454.921 239.64 454.793 240.274 454.811 240.913C454.779 241.545 454.895 242.177 455.15 242.757C455.405 243.337 455.791 243.85 456.279 244.255C457.327 245.053 458.503 245.669 459.757 246.075C460.648 246.344 461.494 246.742 462.27 247.257C462.583 247.427 462.841 247.682 463.017 247.991C463.192 248.301 463.277 248.654 463.262 249.01C463.262 250.124 462.501 251.251 460.354 251.251C459.456 251.3 458.563 251.078 457.792 250.613C457.022 250.148 456.409 249.461 456.034 248.643L453.711 250.097C454.288 251.343 455.228 252.386 456.41 253.087C457.591 253.788 458.957 254.114 460.327 254.023C464.24 254.023 466.346 251.971 466.346 248.928C466.4 247.787 466.005 246.67 465.245 245.817V245.817Z" fill="white"/>
<path d="M399.98 236.497L392.807 253.683H396.067L398.472 247.719H398.431L401.298 240.709L404.151 247.719H404.11L406.515 253.683H409.775L402.602 236.497H399.98Z" fill="white"/>
<defs>
<linearGradient id="paint0_linear" x1="7.95106" y1="200" x2="800" y2="200" gradientUnits="userSpaceOnUse">
<stop stop-color="#433274"/>
<stop offset="1" stop-color="#2B5C76"/>
</linearGradient>
</defs>
</svg>
