<?xml version="1.0" standalone="no"?>
<!DOCTYPE svg PUBLIC "-//W3C//DTD SVG 20010904//EN"
 "http://www.w3.org/TR/2001/REC-SVG-20010904/DTD/svg10.dtd">
<svg version="1.0" xmlns="http://www.w3.org/2000/svg"
 width="400.000000pt" height="400.000000pt" viewBox="0 0 400.000000 400.000000"
 preserveAspectRatio="xMidYMid meet">
<metadata>
Created by potrace 1.15, written by Peter Selinger 2001-2017
</metadata>
<g transform="translate(0.000000,400.000000) scale(0.100000,-0.100000)"
fill="#000000" stroke="none">
<path d="M1390 3464 c-85 -15 -296 -81 -347 -108 -26 -13 -37 -45 -189 -573
-89 -307 -160 -559 -159 -561 2 -2 54 13 117 33 156 51 324 92 445 110 83 12
117 13 175 4 125 -19 297 -89 464 -189 l51 -30 158 543 c87 298 160 549 162
558 10 35 -231 163 -378 200 -113 29 -375 35 -499 13z"/>
<path d="M2425 3138 c-3 -7 -75 -253 -161 -547 -114 -390 -154 -539 -147 -550
33 -53 249 -174 368 -206 199 -53 546 -13 790 92 l89 38 159 553 c88 304 158
555 155 557 -2 2 -35 -7 -73 -22 -94 -34 -248 -79 -348 -100 -130 -28 -307
-24 -431 10 -110 30 -252 94 -335 151 -60 41 -60 41 -66 24z"/>
<path d="M1050 2165 c-101 -19 -238 -59 -334 -98 l-79 -32 -158 -550 c-87
-302 -159 -555 -159 -562 0 -6 28 1 71 19 127 53 428 108 593 108 128 0 316
-63 499 -167 44 -24 82 -41 86 -36 10 10 321 1086 321 1106 0 34 -245 156
-397 197 -102 28 -333 36 -443 15z"/>
<path d="M2042 1818 c-5 -18 -76 -262 -157 -543 -81 -280 -148 -516 -149 -522
-2 -19 196 -138 283 -172 129 -50 225 -64 385 -58 118 4 163 11 276 40 75 20
174 51 220 69 l85 34 57 195 c31 107 101 349 156 539 55 190 104 354 108 364
9 22 22 25 -146 -33 -166 -57 -291 -81 -460 -87 -137 -6 -150 -4 -235 21 -95
28 -231 89 -334 149 -34 20 -66 36 -71 36 -5 0 -13 -15 -18 -32z"/>
</g>
</svg>
